<svg width="32" height="32" viewBox="0 0 32 32" fill="none" xmlns="http://www.w3.org/2000/svg">
<rect width="32" height="32" rx="6" fill="#F3F6F9"/>
<path d="M22.1383 10.9864C22.7157 11.5638 22.7252 12.497 22.1596 13.086L16.7427 18.7271C16.4674 19.0137 16.0896 19.1795 15.6922 19.1878L13.4169 19.2355L13.465 16.945C13.4731 16.5566 13.6316 16.1866 13.907 15.9127L19.4441 10.4073C20.0303 9.82442 20.9777 9.82578 21.5623 10.4104L22.1383 10.9864Z" fill="#3699FF"/>
<path opacity="0.3" d="M16.6002 9.33325C16.9684 9.33325 17.2668 9.63173 17.2668 9.99992C17.2668 10.3681 16.9684 10.6666 16.6002 10.6666H12.0002C11.2638 10.6666 10.6668 11.2635 10.6668 11.9999V19.9999C10.6668 20.7363 11.2638 21.3333 12.0002 21.3333H20.0002C20.7365 21.3333 21.3335 20.7363 21.3335 19.9999V16.6666C21.3335 16.2984 21.632 15.9999 22.0002 15.9999C22.3684 15.9999 22.6668 16.2984 22.6668 16.6666V19.9999C22.6668 21.4727 21.4729 22.6666 20.0002 22.6666H12.0002C10.5274 22.6666 9.3335 21.4727 9.3335 19.9999V11.9999C9.3335 10.5272 10.5274 9.33325 12.0002 9.33325H16.6002Z" fill="#3699FF"/>
</svg>
