<svg width="18" height="18" viewBox="0 0 18 18" fill="none" xmlns="http://www.w3.org/2000/svg">
<path d="M5.75156 4.37344C5.71137 4.33474 5.6794 4.28832 5.65756 4.23698C5.63572 4.18563 5.62446 4.13041 5.62446 4.07461C5.62446 4.01881 5.63572 3.96359 5.65756 3.91224C5.6794 3.8609 5.71137 3.81448 5.75156 3.77578L8.70469 0.829688C8.74278 0.789694 8.78859 0.757854 8.83935 0.736099C8.89012 0.714343 8.94477 0.703125 9 0.703125C9.05523 0.703125 9.10988 0.714343 9.16065 0.736099C9.21141 0.757854 9.25722 0.789694 9.29531 0.829688L12.2484 3.77578C12.2886 3.81448 12.3206 3.8609 12.3424 3.91224C12.3643 3.96359 12.3755 4.01881 12.3755 4.07461C12.3755 4.13041 12.3643 4.18563 12.3424 4.23698C12.3206 4.28832 12.2886 4.33474 12.2484 4.37344C12.2103 4.41343 12.1645 4.44527 12.1138 4.46703C12.063 4.48878 12.0084 4.5 11.9531 4.5C11.8979 4.5 11.8432 4.48878 11.7925 4.46703C11.7417 4.44527 11.6959 4.41343 11.6578 4.37344L9.42188 2.14453V9C9.42188 9.11189 9.37743 9.21919 9.29831 9.29831C9.21919 9.37743 9.11189 9.42188 9 9.42188C8.88811 9.42188 8.78081 9.37743 8.70169 9.29831C8.62257 9.21919 8.57812 9.11189 8.57812 9V2.14453L6.34219 4.37344C6.3041 4.41343 6.25828 4.44527 6.20752 4.46703C6.15676 4.48878 6.1021 4.5 6.04688 4.5C5.99165 4.5 5.93699 4.48878 5.88623 4.46703C5.83547 4.44527 5.78965 4.41343 5.75156 4.37344ZM14.0625 6.32812H12.375C12.2631 6.32812 12.1558 6.37257 12.0767 6.45169C11.9976 6.53081 11.9531 6.63811 11.9531 6.75C11.9531 6.86189 11.9976 6.96919 12.0767 7.04831C12.1558 7.12743 12.2631 7.17188 12.375 7.17188H14.0625C14.0998 7.17188 14.1356 7.18669 14.1619 7.21306C14.1883 7.23944 14.2031 7.2752 14.2031 7.3125V14.625C14.2031 14.6623 14.1883 14.6981 14.1619 14.7244C14.1356 14.7508 14.0998 14.7656 14.0625 14.7656H3.9375C3.9002 14.7656 3.86444 14.7508 3.83806 14.7244C3.81169 14.6981 3.79688 14.6623 3.79688 14.625V7.3125C3.79688 7.2752 3.81169 7.23944 3.83806 7.21306C3.86444 7.18669 3.9002 7.17188 3.9375 7.17188H5.625C5.73689 7.17188 5.84419 7.12743 5.92331 7.04831C6.00243 6.96919 6.04688 6.86189 6.04688 6.75C6.04688 6.63811 6.00243 6.53081 5.92331 6.45169C5.84419 6.37257 5.73689 6.32812 5.625 6.32812H3.9375C3.67643 6.32812 3.42605 6.43184 3.24144 6.61644C3.05684 6.80105 2.95313 7.05143 2.95312 7.3125V14.625C2.95313 14.8861 3.05684 15.1365 3.24144 15.3211C3.42605 15.5057 3.67643 15.6094 3.9375 15.6094H14.0625C14.3236 15.6094 14.574 15.5057 14.7586 15.3211C14.9432 15.1365 15.0469 14.8861 15.0469 14.625V7.3125C15.0469 7.05143 14.9432 6.80105 14.7586 6.61644C14.574 6.43184 14.3236 6.32812 14.0625 6.32812Z" fill="#3699FF"/>
</svg>
