<svg width="24" height="24" viewBox="0 0 24 24" fill="none" xmlns="http://www.w3.org/2000/svg">
<path opacity="0.3" d="M19 22H5C4.4 22 4 21.6 4 21V3C4 2.4 4.4 2 5 2H14L20 8V21C20 21.6 19.6 22 19 22ZM12.5 18C12.5 17.4 12.6 17.5 12 17.5H8.5C7.9 17.5 8 17.4 8 18C8 18.6 7.9 18.5 8.5 18.5L12 18C12.6 18 12.5 18.6 12.5 18ZM16.5 13C16.5 12.4 16.6 12.5 16 12.5H8.5C7.9 12.5 8 12.4 8 13C8 13.6 7.9 13.5 8.5 13.5H15.5C16.1 13.5 16.5 13.6 16.5 13ZM12.5 8C12.5 7.4 12.6 7.5 12 7.5H8C7.4 7.5 7.5 7.4 7.5 8C7.5 8.6 7.4 8.5 8 8.5H12C12.6 8.5 12.5 8.6 12.5 8Z" fill="#9696A6"/>
<path d="M12 17H8C7.44772 17 7 17.4477 7 18C7 18.5523 7.44772 19 8 19H12C12.5523 19 13 18.5523 13 18C13 17.4477 12.5523 17 12 17Z" fill="#9696A6"/>
<path d="M16 12H8C7.44772 12 7 12.4477 7 13C7 13.5523 7.44772 14 8 14H16C16.5523 14 17 13.5523 17 13C17 12.4477 16.5523 12 16 12Z" fill="#9696A6"/>
<path d="M12 7H8C7.44772 7 7 7.44772 7 8C7 8.55228 7.44772 9 8 9H12C12.5523 9 13 8.55228 13 8C13 7.44772 12.5523 7 12 7Z" fill="#9696A6"/>
<path d="M15 8H20L14 2V7C14 7.6 14.4 8 15 8Z" fill="#9696A6"/>
</svg>
