<svg width="24" height="24" viewBox="0 0 24 24" fill="none" xmlns="http://www.w3.org/2000/svg">
<path opacity="0.3" fill-rule="evenodd" clip-rule="evenodd" d="M2 4.63158C2 3.1782 3.1782 2 4.63158 2H13.47C14.0155 2 14.278 2.66919 13.8778 3.04006L12.4556 4.35821C11.9009 4.87228 11.1726 5.15789 10.4163 5.15789H7.1579C6.05333 5.15789 5.15789 6.05333 5.15789 7.1579V16.8421C5.15789 17.9467 6.05333 18.8421 7.1579 18.8421H16.8421C17.9467 18.8421 18.8421 17.9467 18.8421 16.8421V13.7518C18.8421 12.927 19.1817 12.1387 19.7809 11.572L20.9878 10.4308C21.3703 10.0691 22 10.3403 22 10.8668V19.3684C22 20.8218 20.8218 22 19.3684 22H4.63158C3.1782 22 2 20.8218 2 19.3684V4.63158Z" fill="#9696A6"/>
<path d="M10.9257 11.1882C10.5352 10.7977 10.5352 10.1645 10.9257 9.77393L18.067 2.63266C18.848 1.85161 20.1144 1.85161 20.8954 2.63266L21.3666 3.10387C22.1477 3.88492 22.1477 5.15125 21.3666 5.9323L14.2253 13.0736C13.8348 13.4641 13.2017 13.4641 12.8111 13.0736L10.9257 11.1882Z" fill="#9696A6"/>
<path d="M8.82336 12.0064L8.08845 14.3348C7.86543 15.0414 8.46144 15.7366 9.19381 15.6242L11.8973 15.2092C12.4641 15.1222 12.6915 14.4278 12.286 14.0223L9.98588 11.7221C9.61445 11.3507 8.98147 11.5055 8.82336 12.0064Z" fill="#9696A6"/>
</svg>
