<svg width="40" height="40" viewBox="0 0 40 40" fill="none" xmlns="http://www.w3.org/2000/svg">
<g clip-path="url(#clip0_1_1397)">
<path fill-rule="evenodd" clip-rule="evenodd" d="M20 39.4286C30.7301 39.4286 39.4286 30.7301 39.4286 20C39.4286 9.2699 30.7301 0.571429 20 0.571429C9.2699 0.571429 0.571429 9.2699 0.571429 20C0.571429 30.7301 9.2699 39.4286 20 39.4286ZM20 40C31.0457 40 40 31.0457 40 20C40 8.9543 31.0457 0 20 0C8.9543 0 0 8.9543 0 20C0 31.0457 8.9543 40 20 40Z" fill="white"/>
<path d="M34.2857 3.14286C34.2857 4.87861 32.8786 6.28571 31.1429 6.28571C29.4071 6.28571 28 4.87861 28 3.14286C28 1.4071 29.4071 0 31.1429 0C32.8786 0 34.2857 1.4071 34.2857 3.14286Z" fill="#FFFF00"/>
<path d="M12.0237 23.554C10.9657 23.554 10.1069 23.2075 9.44727 22.5144C8.79102 21.8213 8.46289 20.8989 8.46289 19.7471C8.46289 18.592 8.78767 17.6695 9.43722 16.9798C10.0868 16.2867 10.9389 15.9402 11.9936 15.9402C12.8809 15.9402 13.6175 16.1545 14.2034 16.583C14.7927 17.0083 15.1225 17.5791 15.1928 18.2957H14.1833C14.1431 17.8202 13.9289 17.4486 13.5405 17.1807C13.1521 16.9095 12.6398 16.7739 12.0036 16.7739C11.2436 16.7739 10.6309 17.0334 10.1655 17.5524C9.7034 18.0713 9.47238 18.8029 9.47238 19.7471C9.47238 20.688 9.70675 21.4195 10.1755 21.9419C10.6443 22.4608 11.257 22.7203 12.0137 22.7203C13.0751 22.7203 13.8636 22.3704 14.3792 21.6707V20.5507H12.4355V19.6718H15.3234V23.4285H14.6353L14.3792 22.655C13.8803 23.2544 13.0951 23.554 12.0237 23.554Z" fill="white"/>
<path d="M20.6169 20.4151L19.3211 16.9999L18.0857 20.4151H20.6169ZM22.8569 23.4285H21.757L20.9032 21.1885H17.8195L17.0059 23.4285H15.9763L18.8039 16.0657H19.8535L22.8569 23.4285Z" fill="white"/>
<path d="M29.8078 23.4285H28.7531L28.06 21.4647C27.9361 21.1165 27.7302 20.8319 27.4422 20.6109C27.1543 20.39 26.8228 20.2795 26.4478 20.2795H24.6448V23.4285H23.6705V16.0657H26.93C27.4992 16.0657 27.9646 16.121 28.3262 16.2315C28.6878 16.342 28.9824 16.5747 29.2101 16.9296C29.4378 17.2845 29.5516 17.6846 29.5516 18.1299C29.5516 18.6388 29.4043 19.0641 29.1097 19.4056C28.815 19.7471 28.4116 19.9698 27.8993 20.0736V20.0936C28.4116 20.2577 28.8016 20.7013 29.0695 21.4246L29.8078 23.4285ZM24.6448 19.4056H26.8195C27.4255 19.4056 27.8641 19.3102 28.1353 19.1193C28.4099 18.9285 28.5472 18.5987 28.5472 18.1299C28.5472 17.2929 28.0215 16.8743 26.9701 16.8743H24.6448V19.4056Z" fill="white"/>
<path d="M32.2034 23.4285H31.2241V16.0657H32.2034V23.4285Z" fill="white"/>
</g>
<defs>
<clipPath id="clip0_1_1397">
<rect width="40" height="40" fill="white"/>
</clipPath>
</defs>
</svg>
