<svg width="24" height="24" viewBox="0 0 24 24" fill="none" xmlns="http://www.w3.org/2000/svg">
<path d="M22.0002 5.75118C22.0002 5.30164 21.6236 4.95938 21.2176 4.96869H5.74989C5.05454 4.96869 4.70495 5.8142 5.19995 6.30478L10.8879 11.9435L5.19431 17.7009C4.70739 18.1933 5.05743 19.0315 5.74989 19.0315H21.2189C21.6466 19.0315 21.999 18.6825 22 18.2523C22 18.2516 22.0002 18.2509 22.0002 18.2502V5.75118ZM20.4377 16.3491L16.0809 11.9435L20.4377 7.62453V16.3491ZM7.64781 6.53122H19.321L13.4844 12.3172L7.64781 6.53122ZM11.9976 13.0435L12.9343 13.9722C13.2389 14.274 13.7298 14.274 14.0343 13.9722L14.9711 13.0435L19.3476 17.4689H7.62126L11.9976 13.0435Z" fill="#9696A6"/>
<path opacity="0.3" d="M3.77052 9.81253H5.74978C6.1813 9.81253 6.53104 9.46279 6.53104 9.03126C6.53104 8.59974 6.1813 8.25 5.74978 8.25H3.77052C3.339 8.25 2.98926 8.59974 2.98926 9.03126C2.98926 9.46279 3.33915 9.81253 3.77052 9.81253Z" fill="#9696A6"/>
<path opacity="0.3" d="M5.54178 12.0001C5.54178 11.5686 5.19204 11.2189 4.76052 11.2189H2.78126C2.34974 11.2189 2 11.5686 2 12.0001C2 12.4317 2.34974 12.7814 2.78126 12.7814H4.76052C5.19189 12.7814 5.54178 12.4317 5.54178 12.0001Z" fill="#9696A6"/>
<path opacity="0.3" d="M6.53104 14.9689C6.53104 14.5374 6.1813 14.1876 5.74978 14.1876H3.77052C3.339 14.1876 2.98926 14.5374 2.98926 14.9689C2.98926 15.4004 3.339 15.7502 3.77052 15.7502H5.74978C6.1813 15.7502 6.53104 15.4004 6.53104 14.9689Z" fill="#9696A6"/>
</svg>
