<svg width="24" height="26" viewBox="0 0 24 26" fill="none" xmlns="http://www.w3.org/2000/svg">
<path d="M11.2929 7.26587C10.9024 6.8428 10.9024 6.15687 11.2929 5.7338C11.6834 5.31074 12.3166 5.31074 12.7071 5.7338L18.7071 12.2338C19.0857 12.6439 19.0989 13.3043 18.7372 13.7319L13.2372 20.2319C12.864 20.6729 12.2314 20.7027 11.8243 20.2984C11.4172 19.8941 11.3897 19.2088 11.7628 18.7678L16.6159 13.0324L11.2929 7.26587Z" fill="#6993FF"/>
<path opacity="0.3" d="M4.29289 7.26587C3.90237 6.8428 3.90237 6.15687 4.29289 5.7338C4.68342 5.31074 5.31658 5.31074 5.70711 5.7338L11.7071 12.2338C12.0857 12.6439 12.0989 13.3043 11.7372 13.7319L6.23715 20.2319C5.86396 20.6729 5.23139 20.7027 4.82427 20.2984C4.41716 19.8941 4.38965 19.2088 4.76285 18.7678L9.61586 13.0324L4.29289 7.26587Z" fill="#6993FF"/>
</svg>
