<svg width="24" height="24" viewBox="0 0 24 24" fill="none" xmlns="http://www.w3.org/2000/svg">
<path opacity="0.3" d="M21.6 11.2L19.3 8.89998V5.59993C19.3 4.99993 18.9 4.59993 18.3 4.59993H14.9L12.6 2.3C12.2 1.9 11.6 1.9 11.2 2.3L8.9 4.59993H5.6C5 4.59993 4.6 4.99993 4.6 5.59993V8.89998L2.3 11.2C1.9 11.6 1.9 12.1999 2.3 12.5999L4.6 14.9V18.2C4.6 18.8 5 19.2 5.6 19.2H8.9L11.2 21.5C11.6 21.9 12.2 21.9 12.6 21.5L14.9 19.2H18.2C18.8 19.2 19.2 18.8 19.2 18.2V14.9L21.5 12.5999C22 12.1999 22 11.6 21.6 11.2Z" fill="#9696A6"/>
<path d="M11.2996 9.40002C11.2996 10.2 11.0996 10.9 10.6996 11.3C10.2996 11.7 9.7996 11.9 9.1996 11.9C8.7996 11.9 8.39961 11.8 8.09961 11.6C7.79961 11.4 7.49961 11.2 7.39961 10.8C7.19961 10.4 7.09961 10 7.09961 9.40002C7.09961 8.80002 7.19961 8.4 7.29961 8C7.39961 7.6 7.6996 7.29998 7.9996 7.09998C8.2996 6.89998 8.6996 6.80005 9.1996 6.80005C9.4996 6.80005 9.79961 6.9 10.0996 7C10.3996 7.1 10.5996 7.3 10.7996 7.5C10.9996 7.7 11.0996 8.00005 11.1996 8.30005C11.2996 8.60005 11.2996 9.00002 11.2996 9.40002ZM10.0996 9.40002C10.0996 8.80002 9.9996 8.39998 9.89961 8.09998C9.79961 7.79998 9.5996 7.70007 9.1996 7.70007C8.9996 7.70007 8.7996 7.80002 8.6996 7.90002C8.5996 8.00002 8.49961 8.2 8.39961 8.5C8.39961 8.7 8.29961 9.10002 8.29961 9.40002C8.29961 9.80002 8.29961 10.1 8.39961 10.4C8.39961 10.6 8.4996 10.8 8.6996 11C8.7996 11.1 8.9996 11.2001 9.1996 11.2001C9.4996 11.2001 9.69961 11.1 9.89961 10.8C9.9996 10.4 10.0996 10 10.0996 9.40002ZM14.8996 7.80005L9.39961 16.7001C9.29961 16.9001 9.09961 17.1 8.89961 17.1C8.79961 17.1 8.69961 17.1 8.59961 17C8.49961 16.9 8.39961 16.8001 8.39961 16.7001C8.39961 16.6001 8.3996 16.5 8.4996 16.4L13.9996 7.5C14.0996 7.3 14.1996 7.19998 14.2996 7.09998C14.3996 6.99998 14.4996 7 14.5996 7C14.6996 7 14.7996 6.99998 14.8996 7.09998C14.9996 7.19998 14.9996 7.30002 14.9996 7.40002C15.1996 7.30002 15.0996 7.50005 14.8996 7.80005ZM16.5996 14.2001C16.5996 15.0001 16.3996 15.7 15.9996 16.1C15.5996 16.5 15.0996 16.7001 14.4996 16.7001C14.0996 16.7001 13.6996 16.6 13.3996 16.4C13.0996 16.2 12.7996 16 12.6996 15.6C12.4996 15.2 12.3996 14.8001 12.3996 14.2001C12.3996 13.3001 12.5996 12.7 12.8996 12.3C13.1996 11.9 13.6996 11.7001 14.4996 11.7001C14.7996 11.7001 15.0996 11.8 15.3996 11.9C15.6996 12 15.8996 12.2 16.0996 12.4C16.2996 12.6 16.3996 12.9001 16.4996 13.2001C16.5996 13.4001 16.5996 13.8001 16.5996 14.2001ZM15.3996 14.1C15.3996 13.5 15.2996 13.1 15.1996 12.9C15.0996 12.6 14.8996 12.5 14.4996 12.5C14.2996 12.5 14.0996 12.6001 13.9996 12.7001C13.8996 12.8001 13.7996 13.0001 13.6996 13.2001C13.5996 13.4001 13.5996 13.8 13.5996 14.1C13.5996 14.7 13.6996 15.1 13.7996 15.4C13.8996 15.7 14.0996 15.8 14.4996 15.8C14.7996 15.8 14.9996 15.7 15.1996 15.4C15.2996 15.2 15.3996 14.7 15.3996 14.1Z" fill="#9696A6"/>
</svg>
