<svg width="24" height="24" viewBox="0 0 24 24" fill="none" xmlns="http://www.w3.org/2000/svg">
<path opacity="0.3" d="M17.6996 5.60005C16.6996 5.20005 15.4996 5.50009 14.7996 6.20009L10.1996 10.8001C9.4996 11.5001 8.3996 11.8001 7.4996 11.5001L5.09961 10.8001V18.9001H20.0996V6.4001L17.6996 5.60005Z" fill="#9696A6"/>
<path d="M21 18H6V3C6 2.4 5.6 2 5 2C4.4 2 4 2.4 4 3V18H3C2.4 18 2 18.4 2 19C2 19.6 2.4 20 3 20H4V21C4 21.6 4.4 22 5 22C5.6 22 6 21.6 6 21V20H21C21.6 20 22 19.6 22 19C22 18.4 21.6 18 21 18Z" fill="#9696A6"/>
</svg>
