<svg width="24" height="24" viewBox="0 0 24 24" fill="none" xmlns="http://www.w3.org/2000/svg">
<path opacity="0.3" d="M22 12C22 17.5 17.5 22 12 22C6.5 22 2 17.5 2 12C2 6.5 6.5 2 12 2C17.5 2 22 6.5 22 12Z" fill="#9696A6"/>
<path d="M11.9998 22C14.5998 22 16.9998 21 18.6998 19.4C17.8998 16.9 15.1998 15 11.9998 15C8.79982 15 6.0998 16.9 5.2998 19.4C6.9998 21 9.39982 22 11.9998 22Z" fill="#9696A6"/>
<path d="M14.6663 10.6667C14.6663 9.19391 13.4724 8 11.9997 8C10.5269 8 9.33301 9.19391 9.33301 10.6667C9.33301 12.1394 10.5269 13.3333 11.9997 13.3333C13.4724 13.3333 14.6663 12.1394 14.6663 10.6667Z" fill="#9696A6"/>
</svg>
