<svg width="17" height="17" viewBox="0 0 17 17" fill="none" xmlns="http://www.w3.org/2000/svg">
<path d="M16.9844 0.00927734H0V16.9937H16.9844V0.00927734Z" fill="#F5F5F5"/>
<path d="M15.6938 0.00927734H1.30621C0.58481 0.00927734 0 0.594088 0 1.31549H17C17 0.594088 16.4152 0.00927734 15.6938 0.00927734Z" fill="#FF4B55"/>
<path d="M17 5.23389H0V6.5401H17V5.23389Z" fill="#FF4B55"/>
<path d="M17 2.62109H0V3.9273H17V2.62109Z" fill="#FF4B55"/>
<path d="M17 7.84668H0V9.15289H17V7.84668Z" fill="#FF4B55"/>
<path d="M17 13.0725H0V14.3787H17V13.0725Z" fill="#FF4B55"/>
<path d="M17 15.6855H0C0 16.4069 0.584812 16.9918 1.30621 16.9918H15.6938C16.4152 16.9918 17 16.4069 17 15.6855Z" fill="#FF4B55"/>
<path d="M17 10.4597H0V11.7659H17V10.4597Z" fill="#FF4B55"/>
<path d="M9.14547 0.00927734H1C0.447715 0.00927734 0 0.456991 0 1.00928V9.15475H9.14547V0.00927734Z" fill="#41479B"/>
<path d="M1.16912 0.691174L1.23958 0.902479L1.4623 0.904205C1.49112 0.904438 1.50311 0.941227 1.4799 0.95836L1.30074 1.09067L1.36791 1.30304C1.37661 1.33053 1.34533 1.35328 1.32182 1.33651L1.1406 1.20698L0.959376 1.33651C0.935935 1.35331 0.904624 1.33053 0.91329 1.30304L0.98046 1.09067L0.801296 0.95836C0.778121 0.941227 0.79004 0.904438 0.818894 0.904205L1.04162 0.902479L1.11208 0.691174C1.12131 0.663814 1.16002 0.663814 1.16912 0.691174Z" fill="#F5F5F5"/>
<path d="M1.16912 2.45389L1.23958 2.6652L1.4623 2.66693C1.49112 2.66716 1.50311 2.70395 1.4799 2.72108L1.30074 2.85339L1.36791 3.06576C1.37661 3.09325 1.34533 3.116 1.32182 3.09923L1.1406 2.9697L0.959376 3.09923C0.935935 3.11603 0.904624 3.09325 0.91329 3.06576L0.98046 2.85339L0.801296 2.72108C0.778121 2.70395 0.79004 2.66716 0.818894 2.66693L1.04162 2.6652L1.11208 2.45389C1.12131 2.4265 1.16002 2.4265 1.16912 2.45389Z" fill="#F5F5F5"/>
<path d="M1.16912 4.4087L1.23958 4.62001L1.4623 4.62173C1.49112 4.62197 1.50311 4.65876 1.4799 4.67592L1.30074 4.80824L1.36791 5.0206C1.37661 5.0481 1.34533 5.07084 1.32182 5.05407L1.1406 4.92455L0.959376 5.05407C0.935935 5.07087 0.904624 5.0481 0.91329 5.0206L0.98046 4.80824L0.801296 4.67592C0.778121 4.65879 0.79004 4.62197 0.818894 4.62173L1.04162 4.62001L1.11208 4.4087C1.12131 4.38134 1.16002 4.38134 1.16912 4.4087Z" fill="#F5F5F5"/>
<path d="M1.16912 6.20485L1.23958 6.41615L1.4623 6.41788C1.49112 6.41811 1.50311 6.4549 1.4799 6.47203L1.30074 6.60435L1.36791 6.81671C1.37661 6.84421 1.34533 6.86695 1.32182 6.85018L1.1406 6.72066L0.959376 6.85018C0.935935 6.86698 0.904624 6.84421 0.91329 6.81671L0.98046 6.60435L0.801296 6.47203C0.778121 6.4549 0.79004 6.41811 0.818894 6.41788L1.04162 6.41615L1.11208 6.20485C1.12131 6.17749 1.16002 6.17749 1.16912 6.20485Z" fill="#F5F5F5"/>
<path d="M1.16912 7.83937L1.23958 8.05067L1.4623 8.0524C1.49112 8.05263 1.50311 8.08942 1.4799 8.10655L1.30074 8.23887L1.36791 8.45124C1.37661 8.47873 1.34533 8.50147 1.32182 8.4847L1.1406 8.35518L0.959376 8.4847C0.935935 8.5015 0.904624 8.47873 0.91329 8.45124L0.98046 8.23887L0.801296 8.10655C0.778121 8.08942 0.79004 8.0526 0.818894 8.0524L1.04162 8.05067L1.11208 7.83937C1.12131 7.81201 1.16002 7.81201 1.16912 7.83937Z" fill="#F5F5F5"/>
<path d="M2.02703 1.52589L2.09749 1.7372L2.32021 1.73892C2.34903 1.73915 2.36102 1.77594 2.33781 1.79308L2.15865 1.92539L2.22582 2.13776C2.23452 2.16525 2.20324 2.18799 2.17973 2.17123L1.99851 2.0417L1.81729 2.17123C1.79385 2.18803 1.76253 2.16525 1.7712 2.13776L1.83837 1.92539L1.65921 1.79308C1.63603 1.77594 1.64795 1.73915 1.6768 1.73892L1.89953 1.7372L1.96999 1.52589C1.97922 1.49853 2.01793 1.49853 2.02703 1.52589Z" fill="#F5F5F5"/>
<path d="M2.02703 3.48072L2.09749 3.69203L2.32021 3.69376C2.34903 3.69399 2.36102 3.73078 2.33781 3.74791L2.15865 3.88022L2.22582 4.09259C2.23452 4.12008 2.20324 4.14283 2.17973 4.12606L1.99851 3.99653L1.81729 4.12606C1.79385 4.14286 1.76253 4.12008 1.7712 4.09259L1.83837 3.88022L1.65921 3.74791C1.63603 3.73078 1.64795 3.69399 1.6768 3.69376L1.89953 3.69203L1.96999 3.48072C1.97922 3.45337 2.01793 3.45337 2.02703 3.48072Z" fill="#F5F5F5"/>
<path d="M2.02703 5.33812L2.09749 5.54943L2.32021 5.55115C2.34903 5.55139 2.36102 5.58817 2.33781 5.60531L2.15865 5.73762L2.22582 5.94999C2.23452 5.97748 2.20324 6.00023 2.17973 5.98346L1.99851 5.85393L1.81729 5.98346C1.79385 6.00026 1.76253 5.97748 1.7712 5.94999L1.83837 5.73762L1.65921 5.60531C1.63603 5.58817 1.64795 5.55139 1.6768 5.55115L1.89953 5.54943L1.96999 5.33812C1.97922 5.3108 2.01793 5.3108 2.02703 5.33812Z" fill="#F5F5F5"/>
<path d="M2.02703 7.00614L2.09749 7.21745L2.32021 7.21917C2.34903 7.2194 2.36102 7.25619 2.33781 7.27333L2.15865 7.40564L2.22582 7.61801C2.23452 7.6455 2.20324 7.66824 2.17973 7.65148L1.99851 7.52195L1.81729 7.65148C1.79385 7.66828 1.76253 7.6455 1.7712 7.61801L1.83837 7.40564L1.65921 7.27333C1.63603 7.25619 1.64795 7.2194 1.6768 7.21917L1.89953 7.21745L1.96999 7.00614C1.97922 6.97875 2.01793 6.97875 2.02703 7.00614Z" fill="#F5F5F5"/>
<path d="M2.88494 0.691174L2.9554 0.902479L3.17812 0.904205C3.20695 0.904438 3.21893 0.941227 3.19572 0.95836L3.01656 1.09067L3.08373 1.30304C3.09243 1.33053 3.06115 1.35328 3.03764 1.33651L2.85642 1.20698L2.6752 1.33651C2.65176 1.35331 2.62044 1.33053 2.62911 1.30304L2.69628 1.09067L2.51712 0.95836C2.49394 0.941227 2.50586 0.904438 2.53471 0.904205L2.75744 0.902479L2.8279 0.691174C2.83713 0.663814 2.87581 0.663814 2.88494 0.691174Z" fill="#F5F5F5"/>
<path d="M2.88494 2.45389L2.9554 2.6652L3.17812 2.66693C3.20695 2.66716 3.21893 2.70395 3.19572 2.72108L3.01656 2.85339L3.08373 3.06576C3.09243 3.09325 3.06115 3.116 3.03764 3.09923L2.85642 2.9697L2.6752 3.09923C2.65176 3.11603 2.62044 3.09325 2.62911 3.06576L2.69628 2.85339L2.51712 2.72108C2.49394 2.70395 2.50586 2.66716 2.53471 2.66693L2.75744 2.6652L2.8279 2.45389C2.83713 2.4265 2.87581 2.4265 2.88494 2.45389Z" fill="#F5F5F5"/>
<path d="M2.88494 4.4087L2.9554 4.62001L3.17812 4.62173C3.20695 4.62197 3.21893 4.65876 3.19572 4.67592L3.01656 4.80824L3.08373 5.0206C3.09243 5.0481 3.06115 5.07084 3.03764 5.05407L2.85642 4.92455L2.6752 5.05407C2.65176 5.07087 2.62044 5.0481 2.62911 5.0206L2.69628 4.80824L2.51712 4.67592C2.49394 4.65879 2.50586 4.62197 2.53471 4.62173L2.75744 4.62001L2.8279 4.4087C2.83713 4.38134 2.87581 4.38134 2.88494 4.4087Z" fill="#F5F5F5"/>
<path d="M2.88487 6.20485L2.95533 6.41615L3.17806 6.41788C3.20688 6.41811 3.21886 6.4549 3.19566 6.47204L3.01649 6.60435L3.08366 6.81672C3.09236 6.84421 3.06108 6.86695 3.03758 6.85018L2.85642 6.72063L2.6752 6.85015C2.65176 6.86695 2.62044 6.84417 2.62911 6.81668L2.69628 6.60432L2.51712 6.472C2.49394 6.45487 2.50586 6.41808 2.53471 6.41785L2.75744 6.41612L2.8279 6.20482C2.83706 6.17749 2.87574 6.17749 2.88487 6.20485Z" fill="#F5F5F5"/>
<path d="M2.88494 7.83937L2.9554 8.05067L3.17812 8.0524C3.20695 8.05263 3.21893 8.08942 3.19572 8.10655L3.01656 8.23887L3.08373 8.45124C3.09243 8.47873 3.06115 8.50147 3.03764 8.4847L2.85642 8.35518L2.6752 8.4847C2.65176 8.5015 2.62044 8.47873 2.62911 8.45124L2.69628 8.23887L2.51712 8.10655C2.49394 8.08942 2.50586 8.0526 2.53471 8.0524L2.75744 8.05067L2.8279 7.83937C2.83713 7.81201 2.87581 7.81201 2.88494 7.83937Z" fill="#F5F5F5"/>
<path d="M3.74285 1.52589L3.81331 1.7372L4.03603 1.73892C4.06485 1.73915 4.07684 1.77594 4.05363 1.79308L3.87447 1.92539L3.94164 2.13776C3.95034 2.16525 3.91906 2.18799 3.89555 2.17123L3.71433 2.0417L3.53311 2.17123C3.50967 2.18803 3.47835 2.16525 3.48702 2.13776L3.55419 1.92539L3.37503 1.79308C3.35185 1.77594 3.36377 1.73915 3.39262 1.73892L3.61545 1.7372L3.68591 1.52589C3.69504 1.49853 3.73372 1.49853 3.74285 1.52589Z" fill="#F5F5F5"/>
<path d="M3.74285 3.48072L3.81331 3.69203L4.03603 3.69376C4.06485 3.69399 4.07684 3.73078 4.05363 3.74791L3.87447 3.88022L3.94164 4.09259C3.95034 4.12008 3.91906 4.14283 3.89555 4.12606L3.71433 3.99653L3.53311 4.12606C3.50967 4.14286 3.47835 4.12008 3.48702 4.09259L3.55419 3.88022L3.37503 3.74791C3.35185 3.73078 3.36377 3.69399 3.39262 3.69376L3.61535 3.69203L3.68581 3.48072C3.69504 3.45337 3.73372 3.45337 3.74285 3.48072Z" fill="#F5F5F5"/>
<path d="M3.74285 5.33812L3.81331 5.54943L4.03603 5.55115C4.06485 5.55139 4.07684 5.58817 4.05363 5.60531L3.87447 5.73762L3.94164 5.94999C3.95034 5.97748 3.91906 6.00023 3.89555 5.98346L3.71433 5.85393L3.53311 5.98346C3.50967 6.00026 3.47835 5.97748 3.48702 5.94999L3.55419 5.73762L3.37503 5.60531C3.35185 5.58817 3.36377 5.55139 3.39262 5.55115L3.61535 5.54943L3.68581 5.33812C3.69504 5.3108 3.73372 5.3108 3.74285 5.33812Z" fill="#F5F5F5"/>
<path d="M3.74285 7.00614L3.81331 7.21745L4.03603 7.21917C4.06485 7.2194 4.07684 7.25619 4.05363 7.27333L3.87447 7.40564L3.94164 7.61801C3.95034 7.6455 3.91906 7.66824 3.89555 7.65148L3.71433 7.52195L3.53311 7.65148C3.50967 7.66828 3.47835 7.6455 3.48702 7.61801L3.55419 7.40564L3.37503 7.27333C3.35185 7.25619 3.36377 7.2194 3.39262 7.21917L3.61535 7.21745L3.68581 7.00614C3.69504 6.97875 3.73372 6.97875 3.74285 7.00614Z" fill="#F5F5F5"/>
<path d="M4.60076 0.691174L4.67122 0.902479L4.89395 0.904205C4.92277 0.904438 4.93475 0.941227 4.91154 0.95836L4.73238 1.09067L4.79955 1.30304C4.80825 1.33053 4.77697 1.35328 4.75346 1.33651L4.57224 1.20698L4.39102 1.33651C4.36758 1.35331 4.33627 1.33053 4.34493 1.30304L4.4121 1.09067L4.23294 0.95836C4.20976 0.941227 4.22168 0.904438 4.25053 0.904205L4.47326 0.902479L4.54372 0.691174C4.55295 0.663814 4.59163 0.663814 4.60076 0.691174Z" fill="#F5F5F5"/>
<path d="M4.60076 2.45389L4.67122 2.6652L4.89395 2.66693C4.92277 2.66716 4.93475 2.70395 4.91154 2.72108L4.73238 2.85339L4.79955 3.06576C4.80825 3.09325 4.77697 3.116 4.75346 3.09923L4.57224 2.9697L4.39102 3.09923C4.36758 3.11603 4.33627 3.09325 4.34493 3.06576L4.4121 2.85339L4.23294 2.72108C4.20976 2.70395 4.22168 2.66716 4.25053 2.66693L4.47326 2.6652L4.54372 2.45389C4.55295 2.4265 4.59163 2.4265 4.60076 2.45389Z" fill="#F5F5F5"/>
<path d="M4.60076 4.4087L4.67122 4.62001L4.89395 4.62173C4.92277 4.62197 4.93475 4.65876 4.91154 4.67592L4.73238 4.80824L4.79955 5.0206C4.80825 5.0481 4.77697 5.07084 4.75346 5.05407L4.57224 4.92455L4.39102 5.05407C4.36758 5.07087 4.33627 5.0481 4.34493 5.0206L4.4121 4.80824L4.23294 4.67592C4.20976 4.65879 4.22168 4.62197 4.25053 4.62173L4.47326 4.62001L4.54372 4.4087C4.55295 4.38134 4.59163 4.38134 4.60076 4.4087Z" fill="#F5F5F5"/>
<path d="M4.60076 6.20485L4.67122 6.41615L4.89395 6.41788C4.92277 6.41811 4.93475 6.4549 4.91154 6.47203L4.73238 6.60435L4.79955 6.81671C4.80825 6.84421 4.77697 6.86695 4.75346 6.85018L4.57224 6.72066L4.39102 6.85018C4.36758 6.86698 4.33627 6.84421 4.34493 6.81671L4.4121 6.60435L4.23294 6.47203C4.20976 6.4549 4.22168 6.41811 4.25053 6.41788L4.47326 6.41615L4.54372 6.20485C4.55295 6.17749 4.59163 6.17749 4.60076 6.20485Z" fill="#F5F5F5"/>
<path d="M4.60076 7.83937L4.67122 8.05067L4.89395 8.0524C4.92277 8.05263 4.93475 8.08942 4.91154 8.10655L4.73238 8.23887L4.79955 8.45124C4.80825 8.47873 4.77697 8.50147 4.75346 8.4847L4.57224 8.35518L4.39102 8.4847C4.36758 8.5015 4.33627 8.47873 4.34493 8.45124L4.4121 8.23887L4.23294 8.10655C4.20976 8.08942 4.22168 8.0526 4.25053 8.0524L4.47326 8.05067L4.54372 7.83937C4.55295 7.81201 4.59163 7.81201 4.60076 7.83937Z" fill="#F5F5F5"/>
<path d="M5.45867 1.52589L5.52913 1.7372L5.75185 1.73892C5.78067 1.73915 5.79266 1.77594 5.76945 1.79308L5.59029 1.92539L5.65746 2.13776C5.66616 2.16525 5.63488 2.18799 5.61137 2.17123L5.43015 2.0417L5.24893 2.17123C5.22549 2.18803 5.19418 2.16525 5.20284 2.13776L5.27001 1.92539L5.09085 1.79308C5.06767 1.77594 5.07959 1.73915 5.10841 1.73892L5.33114 1.7372L5.4016 1.52589C5.41086 1.49853 5.44954 1.49853 5.45867 1.52589Z" fill="#F5F5F5"/>
<path d="M5.45867 3.48072L5.52913 3.69203L5.75185 3.69376C5.78067 3.69399 5.79266 3.73078 5.76945 3.74791L5.59029 3.88022L5.65746 4.09259C5.66616 4.12008 5.63488 4.14283 5.61137 4.12606L5.43015 3.99653L5.24893 4.12606C5.22549 4.14286 5.19418 4.12008 5.20284 4.09259L5.27001 3.88022L5.09085 3.74791C5.06767 3.73078 5.07959 3.69399 5.10841 3.69376L5.33114 3.69203L5.4016 3.48072C5.41086 3.45337 5.44954 3.45337 5.45867 3.48072Z" fill="#F5F5F5"/>
<path d="M5.45867 5.33812L5.52913 5.54943L5.75185 5.55115C5.78067 5.55139 5.79266 5.58817 5.76945 5.60531L5.59029 5.73762L5.65746 5.94999C5.66616 5.97748 5.63488 6.00023 5.61137 5.98346L5.43015 5.85393L5.24893 5.98346C5.22549 6.00026 5.19418 5.97748 5.20284 5.94999L5.27001 5.73762L5.09085 5.60531C5.06767 5.58817 5.07959 5.55139 5.10841 5.55115L5.33114 5.54943L5.4016 5.33812C5.41086 5.3108 5.44954 5.3108 5.45867 5.33812Z" fill="#F5F5F5"/>
<path d="M5.45867 7.00614L5.52913 7.21745L5.75185 7.21917C5.78067 7.2194 5.79266 7.25619 5.76945 7.27333L5.59029 7.40564L5.65746 7.61801C5.66616 7.6455 5.63488 7.66824 5.61137 7.65148L5.43015 7.52195L5.24893 7.65148C5.22549 7.66828 5.19418 7.6455 5.20284 7.61801L5.27001 7.40564L5.09085 7.27333C5.06767 7.25619 5.07959 7.2194 5.10841 7.21917L5.33114 7.21745L5.4016 7.00614C5.41086 6.97875 5.44954 6.97875 5.45867 7.00614Z" fill="#F5F5F5"/>
<path d="M6.31658 0.691174L6.38704 0.902479L6.60976 0.904205C6.63858 0.904438 6.65057 0.941227 6.62736 0.95836L6.4482 1.09067L6.51537 1.30304C6.52407 1.33053 6.49279 1.35328 6.46928 1.33651L6.28806 1.20698L6.10684 1.33651C6.0834 1.35331 6.05209 1.33053 6.06075 1.30304L6.12792 1.09067L5.94876 0.95836C5.92558 0.941227 5.9375 0.904438 5.96635 0.904205L6.18908 0.902479L6.25954 0.691174C6.26877 0.663814 6.30745 0.663814 6.31658 0.691174Z" fill="#F5F5F5"/>
<path d="M6.31658 2.45389L6.38704 2.6652L6.60976 2.66693C6.63858 2.66716 6.65057 2.70395 6.62736 2.72108L6.4482 2.85339L6.51537 3.06576C6.52407 3.09325 6.49279 3.116 6.46928 3.09923L6.28806 2.9697L6.10684 3.09923C6.0834 3.11603 6.05209 3.09325 6.06075 3.06576L6.12792 2.85339L5.94876 2.72108C5.92558 2.70395 5.9375 2.66716 5.96635 2.66693L6.18908 2.6652L6.25954 2.45389C6.26877 2.4265 6.30745 2.4265 6.31658 2.45389Z" fill="#F5F5F5"/>
<path d="M6.31658 4.4087L6.38704 4.62001L6.60976 4.62173C6.63858 4.62197 6.65057 4.65876 6.62736 4.67592L6.4482 4.80824L6.51537 5.0206C6.52407 5.0481 6.49279 5.07084 6.46928 5.05407L6.28806 4.92455L6.10684 5.05407C6.0834 5.07087 6.05209 5.0481 6.06075 5.0206L6.12792 4.80824L5.94876 4.67592C5.92558 4.65879 5.9375 4.62197 5.96635 4.62173L6.18908 4.62001L6.25954 4.4087C6.26877 4.38134 6.30745 4.38134 6.31658 4.4087Z" fill="#F5F5F5"/>
<path d="M6.31658 6.20485L6.38704 6.41615L6.60976 6.41788C6.63858 6.41811 6.65057 6.4549 6.62736 6.47203L6.4482 6.60435L6.51537 6.81671C6.52407 6.84421 6.49279 6.86695 6.46928 6.85018L6.28806 6.72066L6.10684 6.85018C6.0834 6.86698 6.05209 6.84421 6.06075 6.81671L6.12792 6.60435L5.94876 6.47203C5.92558 6.4549 5.9375 6.41811 5.96635 6.41788L6.18908 6.41615L6.25954 6.20485C6.26877 6.17749 6.30745 6.17749 6.31658 6.20485Z" fill="#F5F5F5"/>
<path d="M6.31658 7.83937L6.38704 8.05067L6.60976 8.0524C6.63858 8.05263 6.65057 8.08942 6.62736 8.10655L6.4482 8.23887L6.51537 8.45124C6.52407 8.47873 6.49279 8.50147 6.46928 8.4847L6.28806 8.35518L6.10684 8.4847C6.0834 8.5015 6.05209 8.47873 6.06075 8.45124L6.12792 8.23887L5.94876 8.10655C5.92558 8.08942 5.9375 8.0526 5.96635 8.0524L6.18908 8.05067L6.25954 7.83937C6.26877 7.81201 6.30745 7.81201 6.31658 7.83937Z" fill="#F5F5F5"/>
<path d="M7.17498 1.52589L7.24544 1.7372L7.46816 1.73892C7.49698 1.73915 7.50897 1.77594 7.48576 1.79308L7.3066 1.92539L7.37377 2.13776C7.38247 2.16525 7.35119 2.18799 7.32768 2.17123L7.14646 2.0417L6.96524 2.17123C6.94179 2.18803 6.91048 2.16525 6.91915 2.13776L6.98632 1.92539L6.80716 1.79308C6.78398 1.77594 6.7959 1.73915 6.82475 1.73892L7.04748 1.7372L7.11794 1.52589C7.12713 1.49853 7.16585 1.49853 7.17498 1.52589Z" fill="#F5F5F5"/>
<path d="M7.17498 3.48072L7.24544 3.69203L7.46816 3.69376C7.49698 3.69399 7.50897 3.73078 7.48576 3.74791L7.3066 3.88022L7.37377 4.09259C7.38247 4.12008 7.35119 4.14283 7.32768 4.12606L7.14646 3.99653L6.96524 4.12606C6.94179 4.14286 6.91048 4.12008 6.91915 4.09259L6.98632 3.88022L6.80716 3.74791C6.78398 3.73078 6.7959 3.69399 6.82475 3.69376L7.04748 3.69203L7.11794 3.48072C7.12713 3.45337 7.16585 3.45337 7.17498 3.48072Z" fill="#F5F5F5"/>
<path d="M7.17498 5.33812L7.24544 5.54943L7.46816 5.55115C7.49698 5.55139 7.50897 5.58817 7.48576 5.60531L7.3066 5.73762L7.37377 5.94999C7.38247 5.97748 7.35119 6.00023 7.32768 5.98346L7.14646 5.85393L6.96524 5.98346C6.94179 6.00026 6.91048 5.97748 6.91915 5.94999L6.98632 5.73762L6.80716 5.60531C6.78398 5.58817 6.7959 5.55139 6.82475 5.55115L7.04748 5.54943L7.11794 5.33812C7.12713 5.3108 7.16585 5.3108 7.17498 5.33812Z" fill="#F5F5F5"/>
<path d="M7.17498 7.00614L7.24544 7.21745L7.46816 7.21917C7.49698 7.2194 7.50897 7.25619 7.48576 7.27333L7.3066 7.40564L7.37377 7.61801C7.38247 7.6455 7.35119 7.66824 7.32768 7.65148L7.14646 7.52195L6.96524 7.65148C6.94179 7.66828 6.91048 7.6455 6.91915 7.61801L6.98632 7.40564L6.80716 7.27333C6.78398 7.25619 6.7959 7.2194 6.82475 7.21917L7.04748 7.21745L7.11794 7.00614C7.12713 6.97875 7.16585 6.97875 7.17498 7.00614Z" fill="#F5F5F5"/>
<path d="M8.03289 0.691174L8.10335 0.902479L8.32607 0.904205C8.35489 0.904438 8.36688 0.941227 8.34367 0.95836L8.16451 1.09067L8.23168 1.30304C8.24038 1.33053 8.2091 1.35328 8.18559 1.33651L8.00437 1.20698L7.82315 1.33651C7.7997 1.35331 7.76839 1.33053 7.77706 1.30304L7.84423 1.09067L7.66507 0.95836C7.64189 0.941227 7.65381 0.904438 7.68266 0.904205L7.90539 0.902479L7.97585 0.691174C7.98504 0.663814 8.02376 0.663814 8.03289 0.691174Z" fill="#F5F5F5"/>
<path d="M8.03289 2.45389L8.10335 2.6652L8.32607 2.66693C8.35489 2.66716 8.36688 2.70395 8.34367 2.72108L8.16451 2.85339L8.23168 3.06576C8.24038 3.09325 8.2091 3.116 8.18559 3.09923L8.00437 2.9697L7.82315 3.09923C7.7997 3.11603 7.76839 3.09325 7.77706 3.06576L7.84423 2.85339L7.66507 2.72108C7.64189 2.70395 7.65381 2.66716 7.68266 2.66693L7.90539 2.6652L7.97585 2.45389C7.98504 2.4265 8.02376 2.4265 8.03289 2.45389Z" fill="#F5F5F5"/>
<path d="M8.03289 4.4087L8.10335 4.62001L8.32607 4.62173C8.35489 4.62197 8.36688 4.65876 8.34367 4.67592L8.16451 4.80824L8.23168 5.0206C8.24038 5.0481 8.2091 5.07084 8.18559 5.05407L8.00437 4.92455L7.82315 5.05407C7.7997 5.07087 7.76839 5.0481 7.77706 5.0206L7.84423 4.80824L7.66507 4.67592C7.64189 4.65879 7.65381 4.62197 7.68266 4.62173L7.90539 4.62001L7.97585 4.4087C7.98504 4.38134 8.02376 4.38134 8.03289 4.4087Z" fill="#F5F5F5"/>
<path d="M8.03289 6.20485L8.10335 6.41615L8.32607 6.41788C8.35489 6.41811 8.36688 6.4549 8.34367 6.47203L8.16451 6.60435L8.23168 6.81671C8.24038 6.84421 8.2091 6.86695 8.18559 6.85018L8.00437 6.72066L7.82315 6.85018C7.7997 6.86698 7.76839 6.84421 7.77706 6.81671L7.84423 6.60435L7.66507 6.47203C7.64189 6.4549 7.65381 6.41811 7.68266 6.41788L7.90539 6.41615L7.97585 6.20485C7.98504 6.17749 8.02376 6.17749 8.03289 6.20485Z" fill="#F5F5F5"/>
<path d="M8.03289 7.83937L8.10335 8.05067L8.32607 8.0524C8.35489 8.05263 8.36688 8.08942 8.34367 8.10655L8.16451 8.23887L8.23168 8.45124C8.24038 8.47873 8.2091 8.50147 8.18559 8.4847L8.00437 8.35518L7.82315 8.4847C7.7997 8.5015 7.76839 8.47873 7.77706 8.45124L7.84423 8.23887L7.66507 8.10655C7.64189 8.08942 7.65381 8.0526 7.68266 8.0524L7.90539 8.05067L7.97585 7.83937C7.98504 7.81201 8.02376 7.81201 8.03289 7.83937Z" fill="#F5F5F5"/>
</svg>
