<svg width="36" height="35" viewBox="0 0 36 35" fill="none" xmlns="http://www.w3.org/2000/svg">
<rect width="36" height="35" rx="4" fill="#D7F9EF"/>
<path d="M22.01 19.77C22.01 15.384 15.618 17.288 15.618 14.228C15.618 12.953 16.621 12.29 17.896 12.324C19.341 12.341 20.089 13.242 20.191 14.041H21.891C21.704 12.239 20.225 10.998 17.964 10.998C15.618 10.998 14.037 12.324 14.037 14.279C14.037 18.682 20.446 16.642 20.446 19.838C20.446 20.96 19.562 21.81 18.066 21.81C16.417 21.81 15.72 20.824 15.618 19.838H13.969C14.003 21.793 15.686 23.119 18.066 23.119C20.633 23.119 22.01 21.453 22.01 19.77Z" fill="#0BB783"/>
</svg>
