<svg width="25" height="24" viewBox="0 0 25 24" fill="none" xmlns="http://www.w3.org/2000/svg">
<path d="M8.00516 19.3295C7.10435 19.3295 6.20354 19.3295 5.30272 19.3295C4.49258 19.3295 3.88871 19.9035 3.86126 20.6823C3.8565 20.8672 3.88862 21.0511 3.95572 21.2234C4.02283 21.3957 4.12359 21.5528 4.25209 21.6856C4.3806 21.8184 4.53426 21.9242 4.7041 21.9968C4.87393 22.0694 5.05652 22.1073 5.24117 22.1084C6.64105 22.1342 8.04092 22.1184 9.43997 22.12C9.59301 22.12 9.74523 22.12 9.89744 22.12C10.206 22.1275 10.4156 22.2825 10.4173 22.5932C10.4201 22.6569 10.4095 22.7205 10.3861 22.7798C10.3627 22.8391 10.3271 22.8928 10.2816 22.9374C10.236 22.982 10.1816 23.0164 10.1219 23.0385C10.0621 23.0606 9.99841 23.0698 9.93487 23.0655C8.21892 23.038 6.49632 23.2121 4.78952 22.9822C3.63835 22.8264 2.89224 21.7585 2.94881 20.5307C2.99538 19.462 3.89037 18.4732 4.98083 18.4091C6.12701 18.3424 7.27985 18.3783 8.42936 18.3708C9.28858 18.3649 10.1486 18.3858 11.0079 18.3508C11.3151 18.3339 11.6072 18.2123 11.836 18.0062C12.0647 17.8002 12.2163 17.522 12.2655 17.2179C12.3645 16.4924 11.9985 15.8776 11.3372 15.6352C11.2058 15.5926 11.0678 15.5737 10.9297 15.5794C9.80678 15.5794 8.68389 15.5853 7.56182 15.5728C7.33724 15.5728 7.22412 15.6502 7.10601 15.8377C6.79909 16.3258 6.33496 16.5549 5.76186 16.4824C5.49717 16.4588 5.24559 16.3564 5.03954 16.1883C4.83348 16.0202 4.68238 15.7943 4.6057 15.5394C4.41439 14.973 4.54248 14.4566 4.99081 14.0659C5.18544 13.8993 5.16216 13.7885 5.04238 13.5936C3.88843 11.7188 2.74253 9.83877 1.60466 7.95344C0.464297 6.05257 0.440175 4.11754 1.68285 2.27997C2.91637 0.45823 4.72048 -0.302287 6.87727 0.109209C9.04654 0.525702 10.4165 1.90096 10.9471 4.0584C11.2799 5.4195 11.0095 6.69896 10.2925 7.89013C9.16021 9.76269 8.02041 11.6305 6.87311 13.4936C6.71258 13.7535 6.74086 13.881 6.91803 14.15C7.22495 14.6148 7.60092 14.644 8.07419 14.6348C9.07232 14.614 10.0705 14.6015 11.0686 14.6507C12.2331 14.7081 13.0848 15.5919 13.2312 16.7989C13.3485 17.7818 12.649 18.8389 11.6508 19.1813C11.3497 19.2846 11.0334 19.3367 10.7151 19.3354C9.80678 19.3254 8.90597 19.3295 8.00516 19.3295ZM5.90659 13.2196C5.95138 13.1725 5.99358 13.123 6.03302 13.0713C7.22163 11.1213 8.44517 9.19376 9.58303 7.21292C10.4331 5.72937 10.3574 4.18834 9.38174 2.7806C8.42437 1.39617 7.05943 0.75394 5.36511 0.999671C2.28505 1.45198 0.749595 4.75477 2.36989 7.41367C2.97431 8.40658 3.57929 9.3995 4.18482 10.3924L5.90659 13.2196ZM6.38237 15.083C6.35741 14.8114 6.21601 14.6457 5.93487 14.6407C5.63211 14.6407 5.4591 14.8306 5.4591 15.1055C5.45775 15.1653 5.46848 15.2249 5.49067 15.2805C5.51286 15.3361 5.54604 15.3867 5.58821 15.4292C5.63039 15.4717 5.6807 15.5052 5.73613 15.5277C5.79155 15.5502 5.85095 15.5613 5.91075 15.5603C6.18773 15.5628 6.36823 15.387 6.38403 15.083H6.38237Z" fill="#3173F1"/>
<path d="M16.1267 22.1191C16.654 22.1191 17.1805 22.1066 17.7071 22.1241C18.0398 22.1349 18.2444 22.0225 18.4972 21.7626C18.8566 21.3927 18.7426 21.1795 18.5222 20.8363C17.3935 19.0912 16.2581 17.3494 15.1785 15.5743C13.3627 12.5872 15.0462 8.64802 18.4565 7.91999C20.6291 7.45602 22.429 8.16156 23.7615 9.93415C25.0092 11.5943 25.0749 13.8608 23.9628 15.6451C22.8341 17.456 21.6779 19.2503 20.5251 21.047C20.3829 21.2686 20.3363 21.3944 20.5758 21.6168C21.1872 22.1849 21.1198 23.1461 20.481 23.6709C19.8422 24.1957 18.9007 24.0874 18.4448 23.3786C18.2785 23.1212 18.1121 23.0703 17.8418 23.0728C16.7331 23.0837 15.6243 23.0778 14.5147 23.0778C14.4315 23.0778 14.3484 23.0778 14.2652 23.0778C13.9458 23.0712 13.7012 22.9179 13.6954 22.5989C13.6896 22.2798 13.9283 22.1199 14.2552 22.1207C14.879 22.1207 15.5029 22.1207 16.1267 22.1207V22.1191ZM19.591 20.7763C20.7605 18.9437 21.8851 17.1628 23.0213 15.3919C23.6418 14.4231 23.9362 13.3927 23.7374 12.2357C23.3856 10.1449 21.4276 8.34315 18.9048 8.7863C15.8164 9.32857 14.4307 12.6272 16.1001 15.2936C16.9318 16.6197 17.7786 17.9342 18.6195 19.2536L19.591 20.7763ZM19.5869 22.1324C19.324 22.1491 19.1519 22.2857 19.1377 22.5664C19.1236 22.8696 19.314 23.0504 19.5869 23.0562C19.6501 23.0597 19.7133 23.0496 19.7723 23.0267C19.8313 23.0038 19.8848 22.9685 19.9291 22.9233C19.9734 22.878 20.0076 22.8238 20.0293 22.7643C20.0511 22.7048 20.0599 22.6413 20.0552 22.5781C20.0468 22.324 19.8805 22.1491 19.5869 22.1324Z" fill="#3173F1"/>
<path d="M12.0625 22.1274C12.3262 22.1608 12.4984 22.2857 12.5058 22.5773C12.5142 22.8905 12.3187 23.0604 12.0492 23.0587C11.7797 23.0571 11.5842 22.8721 11.5984 22.5673C11.6142 22.2865 11.7905 22.1524 12.0625 22.1274Z" fill="#3173F1"/>
<path d="M3.60561 5.15709C3.60561 3.84597 4.60374 2.83722 5.9088 2.83472C7.22965 2.83222 8.26687 3.85763 8.26604 5.16458C8.26259 5.78098 8.01752 6.37136 7.58362 6.80855C7.14971 7.24573 6.56169 7.49474 5.94623 7.50194C5.63785 7.50529 5.33192 7.44692 5.04638 7.33025C4.76084 7.21359 4.50144 7.04098 4.28342 6.82256C4.06539 6.60414 3.89313 6.3443 3.77673 6.05831C3.66034 5.77231 3.60216 5.46591 3.60561 5.15709ZM4.52556 5.16458C4.52556 5.91427 5.1785 6.57483 5.92377 6.58066C6.6549 6.58066 7.3303 5.91427 7.34444 5.17541C7.35941 4.41989 6.67902 3.74767 5.91212 3.75934C5.5432 3.76479 5.19117 3.91512 4.93184 4.17795C4.67251 4.44078 4.52661 4.79509 4.52556 5.16458Z" fill="#3173F1"/>
<path d="M19.574 15.2645C19.2692 15.2649 18.9672 15.2052 18.6855 15.0887C18.4037 14.9723 18.1476 14.8014 17.9318 14.5858C17.7159 14.3702 17.5447 14.1142 17.4277 13.8323C17.3107 13.5504 17.2503 13.2482 17.25 12.9429C17.252 12.3185 17.5005 11.7201 17.9413 11.2785C18.3822 10.8369 18.9795 10.5878 19.6031 10.5856C20.8982 10.5964 21.9146 11.6485 21.9104 12.9721C21.9054 14.2674 20.8865 15.2678 19.574 15.2645ZM19.584 14.3315C19.7677 14.3337 19.9501 14.2994 20.1206 14.2305C20.291 14.1617 20.4461 14.0596 20.5769 13.9303C20.7077 13.8011 20.8117 13.6471 20.8826 13.4773C20.9536 13.3075 20.9903 13.1253 20.9905 12.9413C20.9856 12.5698 20.8371 12.2147 20.5762 11.9506C20.3153 11.6865 19.9623 11.534 19.5914 11.5252C18.8503 11.5252 18.1774 12.1916 18.1708 12.9346C18.1641 13.6776 18.8162 14.3273 19.584 14.3315Z" fill="#3173F1"/>
</svg>
