<svg width="20" height="21" viewBox="0 0 20 21" fill="none" xmlns="http://www.w3.org/2000/svg">
<path d="M18.9594 0.409334C18.8706 0.339364 18.7671 0.290372 18.6567 0.26602C18.5463 0.241669 18.4319 0.242588 18.3219 0.268709L6.32188 3.26871C6.1583 3.3087 6.01294 3.40258 5.90921 3.53522C5.80547 3.66787 5.74939 3.83157 5.75 3.99996V14.3218C5.1971 13.9462 4.54341 13.7469 3.875 13.75C3.20749 13.75 2.55497 13.9479 1.99995 14.3187C1.44494 14.6896 1.01235 15.2167 0.756908 15.8334C0.501462 16.4501 0.434626 17.1287 0.564851 17.7834C0.695076 18.4381 1.01651 19.0394 1.48852 19.5114C1.96052 19.9834 2.56189 20.3049 3.21657 20.4351C3.87126 20.5653 4.54986 20.4985 5.16656 20.2431C5.78326 19.9876 6.31036 19.555 6.68121 19C7.05206 18.445 7.25 17.7925 7.25 17.125V9.08121L17.75 6.45621V11.3218C17.1971 10.9462 16.5434 10.7469 15.875 10.75C15.2075 10.75 14.555 10.9479 14 11.3187C13.4449 11.6896 13.0124 12.2167 12.7569 12.8334C12.5015 13.4501 12.4346 14.1287 12.5649 14.7834C12.6951 15.4381 13.0165 16.0394 13.4885 16.5114C13.9605 16.9834 14.5619 17.3049 15.2166 17.4351C15.8713 17.5653 16.5499 17.4985 17.1666 17.2431C17.7833 16.9876 18.3104 16.555 18.6812 16C19.0521 15.445 19.25 14.7925 19.25 14.125V0.999959C19.2511 0.885646 19.2254 0.772668 19.1749 0.670096C19.1244 0.567523 19.0506 0.478212 18.9594 0.409334ZM3.875 19C3.50416 19 3.14165 18.89 2.83331 18.684C2.52497 18.4779 2.28464 18.1851 2.14273 17.8425C2.00081 17.4999 1.96368 17.1229 2.03603 16.7592C2.10838 16.3955 2.28695 16.0614 2.54918 15.7991C2.8114 15.5369 3.14549 15.3583 3.50921 15.286C3.87292 15.2136 4.24992 15.2508 4.59253 15.3927C4.93514 15.5346 5.22798 15.7749 5.43401 16.0833C5.64003 16.3916 5.75 16.7541 5.75 17.125C5.74754 17.6215 5.5492 18.097 5.1981 18.4481C4.84701 18.7992 4.37152 18.9975 3.875 19ZM7.25 7.54371V4.58121L17.75 1.95621V4.91871L7.25 7.54371ZM15.875 16C15.5042 16 15.1416 15.89 14.8333 15.684C14.525 15.4779 14.2846 15.1851 14.1427 14.8425C14.0008 14.4999 13.9637 14.1229 14.036 13.7592C14.1084 13.3954 14.287 13.0614 14.5492 12.7991C14.8114 12.5369 15.1455 12.3583 15.5092 12.286C15.8729 12.2136 16.2499 12.2508 16.5925 12.3927C16.9351 12.5346 17.228 12.7749 17.434 13.0833C17.64 13.3916 17.75 13.7541 17.75 14.125C17.7475 14.6215 17.5492 15.097 17.1981 15.4481C16.847 15.7992 16.3715 15.9975 15.875 16Z" fill="#3173F1"/>
</svg>
