<svg width="24" height="20" viewBox="0 0 24 20" fill="none" xmlns="http://www.w3.org/2000/svg">
<mask id="path-1-outside-1_1_4723" maskUnits="userSpaceOnUse" x="-1.00146" y="-0.65625" width="26" height="21" fill="black">
<rect fill="white" x="-1.00146" y="-0.65625" width="26" height="21"/>
<path d="M10.3984 7.41836C10.0077 7.53832 9.63778 7.7016 9.23209 7.72659C9.06548 7.73658 9.04715 7.87237 8.99634 7.9765C8.40154 9.20857 7.50436 10.0999 6.15816 10.4756C5.93907 10.5373 5.89491 10.7039 5.8466 10.873C5.17183 13.2383 4.49984 15.6055 3.83063 17.9747C3.79783 18.1151 3.73487 18.2467 3.64611 18.3603C3.55735 18.474 3.44493 18.567 3.31664 18.6328C2.781 18.9235 2.25535 19.2334 1.73386 19.5491C1.43063 19.7333 1.22237 19.6841 1.05659 19.3667C0.755866 18.7902 0.438476 18.2213 0.132749 17.6465C-0.0846755 17.2383 -0.0580181 17.0867 0.361836 16.8917C0.755033 16.7126 0.861663 16.5402 0.62008 16.1312C0.34101 15.6655 0.397657 15.5097 0.890819 15.2406C1.25486 15.0415 1.32317 14.8608 1.11241 14.4842C0.79252 13.9136 0.816678 13.8461 1.39065 13.5004C1.73136 13.2955 1.84465 13.1081 1.60224 12.7565C1.39231 12.4516 1.40397 12.1192 1.51227 11.7635C1.7197 11.0754 1.88797 10.3757 2.07791 9.68091C2.13955 9.45515 2.10456 9.29521 1.93129 9.09778C0.803349 7.83155 0.531777 6.35457 1.0541 4.76345C1.56892 3.19816 2.71185 2.28181 4.30297 1.91111C4.55288 1.85113 4.84111 1.79282 5.08603 1.84696C5.61834 1.96359 5.91907 1.71784 6.28395 1.3688C6.71761 0.952137 7.2469 0.648259 7.82537 0.483817C8.40384 0.319376 9.01383 0.299396 9.60182 0.425629C10.1898 0.551863 10.7379 0.820454 11.1979 1.20784C11.6579 1.59523 12.0158 2.08958 12.2402 2.64752C12.3593 2.94158 12.5118 3.04155 12.8108 3.06404C13.9588 3.14735 15.1034 3.27563 16.2505 3.36144C16.7153 3.39643 17.0594 3.62301 17.3684 3.93124C19.491 6.04884 21.6111 8.16838 23.7287 10.2899C24.0961 10.6572 24.0936 10.7714 23.7196 11.1462C21.938 12.9367 20.155 14.7261 18.3706 16.5144C17.9541 16.9309 17.8808 16.9251 17.4584 16.5027C15.4058 14.4526 13.3607 12.395 11.2939 10.3548C10.8382 9.905 10.5333 9.42267 10.52 8.7629C10.5116 8.32222 10.4425 7.8807 10.3984 7.41836ZM11.8145 3.72298C11.3147 3.70382 10.8724 4.23197 10.9407 4.90257C11.0764 6.22544 11.2064 7.54832 11.3189 8.87286C11.3315 9.13621 11.4424 9.38527 11.6296 9.57095C13.6589 11.6002 15.686 13.6306 17.7108 15.6622C17.8899 15.8421 17.9882 15.8413 18.169 15.6572C19.7168 14.0866 21.2718 12.5241 22.834 10.9696C23.0131 10.7914 23.0281 10.6939 22.8424 10.5098C20.8164 8.49549 18.7949 6.47702 16.7778 4.45439C16.6312 4.30778 16.4737 4.16449 16.253 4.14283C14.8201 4.00788 13.3865 3.87126 11.8112 3.72298H11.8145ZM5.33011 2.67501C4.89026 2.59171 4.48457 2.68251 4.08721 2.80163C1.48645 3.58469 0.701718 6.88355 2.67936 8.7479C2.93678 8.99115 3.01258 9.21857 2.91595 9.55262C2.74184 10.1358 2.61355 10.7314 2.43362 11.3112C2.25368 11.891 2.21952 12.4191 2.54774 12.9723C2.80849 13.4113 2.73768 13.5337 2.30699 13.8186C1.81966 14.1402 1.81133 14.1444 2.08207 14.6942C2.24868 15.0316 2.23702 15.2773 1.87714 15.4947C1.34566 15.8129 1.35566 15.8279 1.63223 16.4161C1.64472 16.4411 1.65139 16.4686 1.66555 16.4919C1.84049 16.7843 1.73969 16.9917 1.46312 17.1417C1.37082 17.2021 1.27544 17.2577 1.17739 17.3083C0.954963 17.4016 0.881656 17.514 1.04077 17.7414C1.25319 18.0455 1.31484 18.5595 1.6239 18.6578C1.90713 18.7469 2.23285 18.3504 2.55024 18.1888C2.85097 18.0355 3.07173 17.8556 3.17503 17.484C3.83646 15.0849 4.53539 12.6965 5.21515 10.3032C5.29012 10.0375 5.40925 9.86668 5.70165 9.81336C6.82126 9.60594 7.57933 8.91451 8.13747 7.9665C8.26659 7.74825 8.18495 7.69243 7.97086 7.64912C7.51005 7.54699 7.0744 7.35352 6.68964 7.08015C6.46055 6.92353 6.29144 6.73443 6.47471 6.46286C6.65798 6.19129 6.8979 6.27293 7.12449 6.43537C7.44264 6.65876 7.80286 6.8152 8.18329 6.89521C8.4332 6.95186 8.55816 6.89521 8.59148 6.60281C8.6821 5.86085 8.53472 5.10929 8.1706 4.4565C7.80648 3.80372 7.24443 3.28345 6.56552 2.97074C6.14066 2.77914 6.05569 2.83912 5.97572 3.29646C5.92657 3.5772 6.16649 3.5672 6.28978 3.66217C6.77461 4.03121 6.96871 4.60351 6.78211 5.17914C6.59551 5.75477 6.03237 6.15963 5.45757 6.13631C4.87527 6.11215 4.30713 5.67397 4.16385 5.12916C4.01557 4.56435 4.22133 3.89792 4.74698 3.658C5.22182 3.44224 5.24681 3.07154 5.33011 2.67501ZM6.65465 2.11687C6.76128 2.16519 6.83709 2.20017 6.91206 2.2335C7.70325 2.5991 8.36486 3.1962 8.80945 3.94586C9.25404 4.69551 9.46067 5.56244 9.40203 6.43204C9.36621 6.96019 9.36288 6.95186 9.87603 6.76526C10.1909 6.64946 10.3859 6.5295 10.2801 6.11382C10.1743 5.69813 10.1784 5.25745 10.1618 4.83093C10.1276 3.99788 10.5175 3.37977 11.2864 3.07487C11.5046 2.99157 11.5305 2.91659 11.4297 2.71833C11.1797 2.21965 10.7939 1.80178 10.3167 1.51291C9.13296 0.789831 7.43271 1.0614 6.65632 2.11437L6.65465 2.11687ZM5.50755 5.34075C5.58385 5.34157 5.65953 5.32696 5.73005 5.29781C5.80057 5.26866 5.86447 5.22556 5.91792 5.1711C5.97137 5.11664 6.01326 5.05194 6.04109 4.98089C6.06891 4.90983 6.0821 4.83389 6.07985 4.75762C6.07402 4.4244 5.84077 4.21114 5.48589 4.21614C5.13101 4.22114 4.90276 4.44689 4.91609 4.78178C4.91781 4.85745 4.93452 4.93202 4.96525 5.00118C4.99599 5.07035 5.04014 5.13273 5.09515 5.18472C5.15016 5.2367 5.21493 5.27726 5.28572 5.30404C5.35651 5.33083 5.43191 5.3433 5.50755 5.34075Z"/>
</mask>
<path d="M10.3984 7.41836C10.0077 7.53832 9.63778 7.7016 9.23209 7.72659C9.06548 7.73658 9.04715 7.87237 8.99634 7.9765C8.40154 9.20857 7.50436 10.0999 6.15816 10.4756C5.93907 10.5373 5.89491 10.7039 5.8466 10.873C5.17183 13.2383 4.49984 15.6055 3.83063 17.9747C3.79783 18.1151 3.73487 18.2467 3.64611 18.3603C3.55735 18.474 3.44493 18.567 3.31664 18.6328C2.781 18.9235 2.25535 19.2334 1.73386 19.5491C1.43063 19.7333 1.22237 19.6841 1.05659 19.3667C0.755866 18.7902 0.438476 18.2213 0.132749 17.6465C-0.0846755 17.2383 -0.0580181 17.0867 0.361836 16.8917C0.755033 16.7126 0.861663 16.5402 0.62008 16.1312C0.34101 15.6655 0.397657 15.5097 0.890819 15.2406C1.25486 15.0415 1.32317 14.8608 1.11241 14.4842C0.79252 13.9136 0.816678 13.8461 1.39065 13.5004C1.73136 13.2955 1.84465 13.1081 1.60224 12.7565C1.39231 12.4516 1.40397 12.1192 1.51227 11.7635C1.7197 11.0754 1.88797 10.3757 2.07791 9.68091C2.13955 9.45515 2.10456 9.29521 1.93129 9.09778C0.803349 7.83155 0.531777 6.35457 1.0541 4.76345C1.56892 3.19816 2.71185 2.28181 4.30297 1.91111C4.55288 1.85113 4.84111 1.79282 5.08603 1.84696C5.61834 1.96359 5.91907 1.71784 6.28395 1.3688C6.71761 0.952137 7.2469 0.648259 7.82537 0.483817C8.40384 0.319376 9.01383 0.299396 9.60182 0.425629C10.1898 0.551863 10.7379 0.820454 11.1979 1.20784C11.6579 1.59523 12.0158 2.08958 12.2402 2.64752C12.3593 2.94158 12.5118 3.04155 12.8108 3.06404C13.9588 3.14735 15.1034 3.27563 16.2505 3.36144C16.7153 3.39643 17.0594 3.62301 17.3684 3.93124C19.491 6.04884 21.6111 8.16838 23.7287 10.2899C24.0961 10.6572 24.0936 10.7714 23.7196 11.1462C21.938 12.9367 20.155 14.7261 18.3706 16.5144C17.9541 16.9309 17.8808 16.9251 17.4584 16.5027C15.4058 14.4526 13.3607 12.395 11.2939 10.3548C10.8382 9.905 10.5333 9.42267 10.52 8.7629C10.5116 8.32222 10.4425 7.8807 10.3984 7.41836ZM11.8145 3.72298C11.3147 3.70382 10.8724 4.23197 10.9407 4.90257C11.0764 6.22544 11.2064 7.54832 11.3189 8.87286C11.3315 9.13621 11.4424 9.38527 11.6296 9.57095C13.6589 11.6002 15.686 13.6306 17.7108 15.6622C17.8899 15.8421 17.9882 15.8413 18.169 15.6572C19.7168 14.0866 21.2718 12.5241 22.834 10.9696C23.0131 10.7914 23.0281 10.6939 22.8424 10.5098C20.8164 8.49549 18.7949 6.47702 16.7778 4.45439C16.6312 4.30778 16.4737 4.16449 16.253 4.14283C14.8201 4.00788 13.3865 3.87126 11.8112 3.72298H11.8145ZM5.33011 2.67501C4.89026 2.59171 4.48457 2.68251 4.08721 2.80163C1.48645 3.58469 0.701718 6.88355 2.67936 8.7479C2.93678 8.99115 3.01258 9.21857 2.91595 9.55262C2.74184 10.1358 2.61355 10.7314 2.43362 11.3112C2.25368 11.891 2.21952 12.4191 2.54774 12.9723C2.80849 13.4113 2.73768 13.5337 2.30699 13.8186C1.81966 14.1402 1.81133 14.1444 2.08207 14.6942C2.24868 15.0316 2.23702 15.2773 1.87714 15.4947C1.34566 15.8129 1.35566 15.8279 1.63223 16.4161C1.64472 16.4411 1.65139 16.4686 1.66555 16.4919C1.84049 16.7843 1.73969 16.9917 1.46312 17.1417C1.37082 17.2021 1.27544 17.2577 1.17739 17.3083C0.954963 17.4016 0.881656 17.514 1.04077 17.7414C1.25319 18.0455 1.31484 18.5595 1.6239 18.6578C1.90713 18.7469 2.23285 18.3504 2.55024 18.1888C2.85097 18.0355 3.07173 17.8556 3.17503 17.484C3.83646 15.0849 4.53539 12.6965 5.21515 10.3032C5.29012 10.0375 5.40925 9.86668 5.70165 9.81336C6.82126 9.60594 7.57933 8.91451 8.13747 7.9665C8.26659 7.74825 8.18495 7.69243 7.97086 7.64912C7.51005 7.54699 7.0744 7.35352 6.68964 7.08015C6.46055 6.92353 6.29144 6.73443 6.47471 6.46286C6.65798 6.19129 6.8979 6.27293 7.12449 6.43537C7.44264 6.65876 7.80286 6.8152 8.18329 6.89521C8.4332 6.95186 8.55816 6.89521 8.59148 6.60281C8.6821 5.86085 8.53472 5.10929 8.1706 4.4565C7.80648 3.80372 7.24443 3.28345 6.56552 2.97074C6.14066 2.77914 6.05569 2.83912 5.97572 3.29646C5.92657 3.5772 6.16649 3.5672 6.28978 3.66217C6.77461 4.03121 6.96871 4.60351 6.78211 5.17914C6.59551 5.75477 6.03237 6.15963 5.45757 6.13631C4.87527 6.11215 4.30713 5.67397 4.16385 5.12916C4.01557 4.56435 4.22133 3.89792 4.74698 3.658C5.22182 3.44224 5.24681 3.07154 5.33011 2.67501ZM6.65465 2.11687C6.76128 2.16519 6.83709 2.20017 6.91206 2.2335C7.70325 2.5991 8.36486 3.1962 8.80945 3.94586C9.25404 4.69551 9.46067 5.56244 9.40203 6.43204C9.36621 6.96019 9.36288 6.95186 9.87603 6.76526C10.1909 6.64946 10.3859 6.5295 10.2801 6.11382C10.1743 5.69813 10.1784 5.25745 10.1618 4.83093C10.1276 3.99788 10.5175 3.37977 11.2864 3.07487C11.5046 2.99157 11.5305 2.91659 11.4297 2.71833C11.1797 2.21965 10.7939 1.80178 10.3167 1.51291C9.13296 0.789831 7.43271 1.0614 6.65632 2.11437L6.65465 2.11687ZM5.50755 5.34075C5.58385 5.34157 5.65953 5.32696 5.73005 5.29781C5.80057 5.26866 5.86447 5.22556 5.91792 5.1711C5.97137 5.11664 6.01326 5.05194 6.04109 4.98089C6.06891 4.90983 6.0821 4.83389 6.07985 4.75762C6.07402 4.4244 5.84077 4.21114 5.48589 4.21614C5.13101 4.22114 4.90276 4.44689 4.91609 4.78178C4.91781 4.85745 4.93452 4.93202 4.96525 5.00118C4.99599 5.07035 5.04014 5.13273 5.09515 5.18472C5.15016 5.2367 5.21493 5.27726 5.28572 5.30404C5.35651 5.33083 5.43191 5.3433 5.50755 5.34075Z" fill="#3173F1"/>
<path d="M10.3984 7.41836C10.0077 7.53832 9.63778 7.7016 9.23209 7.72659C9.06548 7.73658 9.04715 7.87237 8.99634 7.9765C8.40154 9.20857 7.50436 10.0999 6.15816 10.4756C5.93907 10.5373 5.89491 10.7039 5.8466 10.873C5.17183 13.2383 4.49984 15.6055 3.83063 17.9747C3.79783 18.1151 3.73487 18.2467 3.64611 18.3603C3.55735 18.474 3.44493 18.567 3.31664 18.6328C2.781 18.9235 2.25535 19.2334 1.73386 19.5491C1.43063 19.7333 1.22237 19.6841 1.05659 19.3667C0.755866 18.7902 0.438476 18.2213 0.132749 17.6465C-0.0846755 17.2383 -0.0580181 17.0867 0.361836 16.8917C0.755033 16.7126 0.861663 16.5402 0.62008 16.1312C0.34101 15.6655 0.397657 15.5097 0.890819 15.2406C1.25486 15.0415 1.32317 14.8608 1.11241 14.4842C0.79252 13.9136 0.816678 13.8461 1.39065 13.5004C1.73136 13.2955 1.84465 13.1081 1.60224 12.7565C1.39231 12.4516 1.40397 12.1192 1.51227 11.7635C1.7197 11.0754 1.88797 10.3757 2.07791 9.68091C2.13955 9.45515 2.10456 9.29521 1.93129 9.09778C0.803349 7.83155 0.531777 6.35457 1.0541 4.76345C1.56892 3.19816 2.71185 2.28181 4.30297 1.91111C4.55288 1.85113 4.84111 1.79282 5.08603 1.84696C5.61834 1.96359 5.91907 1.71784 6.28395 1.3688C6.71761 0.952137 7.2469 0.648259 7.82537 0.483817C8.40384 0.319376 9.01383 0.299396 9.60182 0.425629C10.1898 0.551863 10.7379 0.820454 11.1979 1.20784C11.6579 1.59523 12.0158 2.08958 12.2402 2.64752C12.3593 2.94158 12.5118 3.04155 12.8108 3.06404C13.9588 3.14735 15.1034 3.27563 16.2505 3.36144C16.7153 3.39643 17.0594 3.62301 17.3684 3.93124C19.491 6.04884 21.6111 8.16838 23.7287 10.2899C24.0961 10.6572 24.0936 10.7714 23.7196 11.1462C21.938 12.9367 20.155 14.7261 18.3706 16.5144C17.9541 16.9309 17.8808 16.9251 17.4584 16.5027C15.4058 14.4526 13.3607 12.395 11.2939 10.3548C10.8382 9.905 10.5333 9.42267 10.52 8.7629C10.5116 8.32222 10.4425 7.8807 10.3984 7.41836ZM11.8145 3.72298C11.3147 3.70382 10.8724 4.23197 10.9407 4.90257C11.0764 6.22544 11.2064 7.54832 11.3189 8.87286C11.3315 9.13621 11.4424 9.38527 11.6296 9.57095C13.6589 11.6002 15.686 13.6306 17.7108 15.6622C17.8899 15.8421 17.9882 15.8413 18.169 15.6572C19.7168 14.0866 21.2718 12.5241 22.834 10.9696C23.0131 10.7914 23.0281 10.6939 22.8424 10.5098C20.8164 8.49549 18.7949 6.47702 16.7778 4.45439C16.6312 4.30778 16.4737 4.16449 16.253 4.14283C14.8201 4.00788 13.3865 3.87126 11.8112 3.72298H11.8145ZM5.33011 2.67501C4.89026 2.59171 4.48457 2.68251 4.08721 2.80163C1.48645 3.58469 0.701718 6.88355 2.67936 8.7479C2.93678 8.99115 3.01258 9.21857 2.91595 9.55262C2.74184 10.1358 2.61355 10.7314 2.43362 11.3112C2.25368 11.891 2.21952 12.4191 2.54774 12.9723C2.80849 13.4113 2.73768 13.5337 2.30699 13.8186C1.81966 14.1402 1.81133 14.1444 2.08207 14.6942C2.24868 15.0316 2.23702 15.2773 1.87714 15.4947C1.34566 15.8129 1.35566 15.8279 1.63223 16.4161C1.64472 16.4411 1.65139 16.4686 1.66555 16.4919C1.84049 16.7843 1.73969 16.9917 1.46312 17.1417C1.37082 17.2021 1.27544 17.2577 1.17739 17.3083C0.954963 17.4016 0.881656 17.514 1.04077 17.7414C1.25319 18.0455 1.31484 18.5595 1.6239 18.6578C1.90713 18.7469 2.23285 18.3504 2.55024 18.1888C2.85097 18.0355 3.07173 17.8556 3.17503 17.484C3.83646 15.0849 4.53539 12.6965 5.21515 10.3032C5.29012 10.0375 5.40925 9.86668 5.70165 9.81336C6.82126 9.60594 7.57933 8.91451 8.13747 7.9665C8.26659 7.74825 8.18495 7.69243 7.97086 7.64912C7.51005 7.54699 7.0744 7.35352 6.68964 7.08015C6.46055 6.92353 6.29144 6.73443 6.47471 6.46286C6.65798 6.19129 6.8979 6.27293 7.12449 6.43537C7.44264 6.65876 7.80286 6.8152 8.18329 6.89521C8.4332 6.95186 8.55816 6.89521 8.59148 6.60281C8.6821 5.86085 8.53472 5.10929 8.1706 4.4565C7.80648 3.80372 7.24443 3.28345 6.56552 2.97074C6.14066 2.77914 6.05569 2.83912 5.97572 3.29646C5.92657 3.5772 6.16649 3.5672 6.28978 3.66217C6.77461 4.03121 6.96871 4.60351 6.78211 5.17914C6.59551 5.75477 6.03237 6.15963 5.45757 6.13631C4.87527 6.11215 4.30713 5.67397 4.16385 5.12916C4.01557 4.56435 4.22133 3.89792 4.74698 3.658C5.22182 3.44224 5.24681 3.07154 5.33011 2.67501ZM6.65465 2.11687C6.76128 2.16519 6.83709 2.20017 6.91206 2.2335C7.70325 2.5991 8.36486 3.1962 8.80945 3.94586C9.25404 4.69551 9.46067 5.56244 9.40203 6.43204C9.36621 6.96019 9.36288 6.95186 9.87603 6.76526C10.1909 6.64946 10.3859 6.5295 10.2801 6.11382C10.1743 5.69813 10.1784 5.25745 10.1618 4.83093C10.1276 3.99788 10.5175 3.37977 11.2864 3.07487C11.5046 2.99157 11.5305 2.91659 11.4297 2.71833C11.1797 2.21965 10.7939 1.80178 10.3167 1.51291C9.13296 0.789831 7.43271 1.0614 6.65632 2.11437L6.65465 2.11687ZM5.50755 5.34075C5.58385 5.34157 5.65953 5.32696 5.73005 5.29781C5.80057 5.26866 5.86447 5.22556 5.91792 5.1711C5.97137 5.11664 6.01326 5.05194 6.04109 4.98089C6.06891 4.90983 6.0821 4.83389 6.07985 4.75762C6.07402 4.4244 5.84077 4.21114 5.48589 4.21614C5.13101 4.22114 4.90276 4.44689 4.91609 4.78178C4.91781 4.85745 4.93452 4.93202 4.96525 5.00118C4.99599 5.07035 5.04014 5.13273 5.09515 5.18472C5.15016 5.2367 5.21493 5.27726 5.28572 5.30404C5.35651 5.33083 5.43191 5.3433 5.50755 5.34075Z" stroke="#3173F1" stroke-width="0.4" mask="url(#path-1-outside-1_1_4723)"/>
<path d="M16.8032 7.28043L16.8033 7.28098C16.9119 7.27492 17.0077 7.28908 17.0902 7.32959C17.1725 7.37001 17.2335 7.43267 17.2796 7.51008C17.3361 7.5923 17.3625 7.69154 17.3543 7.79106C17.346 7.89196 17.3027 7.98676 17.2317 8.05901L17.2316 8.05911C16.5892 8.71154 15.9438 9.36111 15.2866 9.99917L16.8032 7.28043ZM16.8032 7.28043L16.7928 7.28211M16.8032 7.28043L16.7928 7.28211M16.7928 7.28211C16.7234 7.29336 16.6574 7.3202 16.5998 7.36061L16.5929 7.36543L16.5869 7.37132C16.5349 7.42273 16.4828 7.47414 16.4307 7.52556C15.8221 8.12629 15.2123 8.7282 14.6145 9.3429L14.6145 9.34294M16.7928 7.28211L14.6145 9.34294M14.6145 9.34294C14.5235 9.43664 14.4858 9.55161 14.4986 9.66753C14.5112 9.78082 14.5709 9.88644 14.6584 9.97103C14.7459 10.0556 14.8525 10.1111 14.9657 10.1201M14.6145 9.34294L14.9657 10.1201M14.9657 10.1201C15.0812 10.1293 15.194 10.089 15.2865 9.99919L14.9657 10.1201Z" fill="#3173F1" stroke="#3173F1" stroke-width="0.2"/>
<path d="M18.6582 9.65598L18.6582 9.65597C18.7315 9.58266 18.8172 9.51575 18.9183 9.48272C19.0225 9.44866 19.1348 9.45333 19.2529 9.50834C19.3367 9.54249 19.4081 9.60152 19.4575 9.67752C19.5059 9.75211 19.5307 9.83949 19.5288 9.92827C19.5494 10.1256 19.418 10.2586 19.3244 10.3522L17.5902 12.0864C17.5901 12.0865 17.5901 12.0865 17.5901 12.0865C17.4903 12.1867 17.3726 12.2742 17.24 12.2981C17.0978 12.3237 16.9606 12.2729 16.8371 12.1432L18.6582 9.65598ZM18.6582 9.65598L16.8949 11.4201M18.6582 9.65598L16.8949 11.4201M16.8949 11.4201C16.7971 11.5166 16.7198 11.6313 16.7002 11.7597C16.6797 11.894 16.7248 12.0254 16.8371 12.1431L16.8949 11.4201Z" fill="#3173F1" stroke="#3173F1" stroke-width="0.2"/>
</svg>
