<svg width="24" height="24" viewBox="0 0 24 24" fill="none" xmlns="http://www.w3.org/2000/svg">
<path d="M20.6811 20.8316C20.4203 20.5583 20.5403 20.2966 20.7911 20.0816C21.5324 19.4492 22.1473 18.6824 22.6036 17.8216M20.6811 20.8316L20.6087 20.9005C20.6087 20.9005 20.6087 20.9005 20.6087 20.9006M20.6811 20.8316L20.6088 20.9006C20.6088 20.9006 20.6088 20.9006 20.6087 20.9006M20.6811 20.8316C20.922 21.0849 21.1786 20.9883 21.4153 20.7816C22.5068 19.849 23.3471 18.6577 23.8595 17.3166L11.4692 1.27226C11.4897 1.14345 11.5573 1.02682 11.6589 0.944951C11.7597 0.863646 11.887 0.822408 12.0163 0.829035C12.1456 0.827132 12.2713 0.871979 12.3702 0.955403C12.47 1.03955 12.5357 1.15717 12.555 1.28624C12.5827 1.45702 12.5942 1.63002 12.5895 1.80297C12.5895 6.50976 12.5875 11.2168 12.5836 15.9242C12.5837 16.1095 12.6047 16.1939 12.6442 16.2384C12.6804 16.279 12.7562 16.3112 12.9522 16.3099H12.9523C15.5911 16.2965 18.2305 16.2978 20.8694 16.2991C21.6609 16.2995 22.4523 16.2999 23.2436 16.2999C23.4342 16.2999 23.5934 16.3129 23.7199 16.3467C23.847 16.3807 23.9514 16.4387 24.0166 16.5365C24.0816 16.6338 24.0962 16.7532 24.0813 16.885C24.0665 17.0166 24.0211 17.1717 23.953 17.3519L23.9529 17.3523C23.4346 18.7088 22.5846 19.9138 21.4807 20.8573C21.3572 20.965 21.2163 21.0555 21.0644 21.078C20.9041 21.1017 20.7484 21.0474 20.6087 20.9006M20.6087 20.9006C20.46 20.7447 20.4092 20.578 20.4468 20.4125C20.4825 20.2555 20.594 20.1189 20.7261 20.0057L20.7262 20.0055C21.4575 19.3816 22.0643 18.6251 22.5147 17.7759M22.5147 17.7759C22.5145 17.7763 22.5143 17.7767 22.5141 17.7771L22.6036 17.8216M22.5147 17.7759C22.5149 17.7755 22.5151 17.7751 22.5153 17.7748L22.6036 17.8216M22.5147 17.7759C22.5592 17.6864 22.5992 17.5996 22.6448 17.5007C22.6573 17.4734 22.6703 17.4452 22.684 17.4158M22.6036 17.8216C22.6488 17.7308 22.6901 17.6411 22.7366 17.5404C22.7548 17.5008 22.7738 17.4595 22.7942 17.4158H22.684M22.684 17.4158H7.56603M22.684 17.4158C22.6987 17.384 22.7141 17.3508 22.7306 17.3158L7.56603 17.4158M7.56603 17.4158C7.40796 17.4259 7.24926 17.42 7.09237 17.3981L7.08464 17.3971L7.08471 17.3968C6.96054 17.3695 6.84954 17.3003 6.77038 17.2009C6.69121 17.1014 6.64872 16.9777 6.65003 16.8506C6.65134 16.7235 6.69639 16.6007 6.77759 16.5029C6.85879 16.405 6.97119 16.3382 7.0959 16.3135L7.10182 16.3123L7.10184 16.3125C7.23124 16.2949 7.36204 16.2899 7.4924 16.2974C7.83171 16.2974 8.17144 16.2961 8.51143 16.2947C9.36518 16.2913 10.2206 16.2879 11.0749 16.3058C11.2584 16.3095 11.3333 16.2844 11.3701 16.2479C11.4073 16.2109 11.4332 16.1349 11.4328 15.9501C11.4195 11.228 11.417 6.50583 11.4253 1.78367C11.4253 1.78347 11.4253 1.78327 11.4253 1.78308L11.5253 1.78325C11.5236 1.61755 11.5378 1.45206 11.5678 1.28909L7.56603 17.4158Z" fill="#3173F1" stroke="#3173F1" stroke-width="0.2"/>
<path d="M14.2549 6.14015L14.2548 6.14009C14.1767 6.20524 14.0827 6.24839 13.9824 6.26507C13.8836 6.2815 13.7823 6.27171 13.6886 6.23672C13.5801 6.20558 13.4852 6.13864 13.4194 6.04672C13.3533 5.95433 13.3206 5.84224 13.3266 5.72886C13.3266 5.31392 13.3255 4.8986 13.3244 4.48314C13.3217 3.44142 13.319 2.39874 13.3333 1.3586L13.3333 1.35856C13.3367 1.11553 13.4654 0.937407 13.6595 0.867643C13.8484 0.799745 14.0797 0.841039 14.2866 0.987319C15.3403 1.72238 16.3116 2.56918 17.1834 3.51296L17.1838 3.51345L17.1838 3.51345C19.3819 5.92527 20.7459 8.74836 21.3333 11.9478L21.3335 11.9489C21.4872 12.8432 21.5713 13.7481 21.5849 14.6555C21.5905 14.8752 21.5475 15.0552 21.4264 15.1785C21.3053 15.3017 21.1271 15.347 20.9134 15.3475C18.6089 15.3519 16.3033 15.3519 13.9966 15.3475C13.9965 15.3475 13.9965 15.3475 13.9964 15.3475L13.9966 15.2475L14.2549 6.14015ZM14.2549 6.14015L14.2577 6.13762C14.4418 5.97176 14.4417 5.74924 14.4416 5.57585C14.4416 5.57164 14.4416 5.56746 14.4416 5.56331V5.55715V5.551V5.54484V5.53868V5.53252V5.52637V5.52021V5.51405V5.50789V5.50174V5.49558V5.48942V5.48326V5.47711V5.47095V5.46479V5.45863V5.45247V5.44632V5.44016V5.434V5.42784V5.42168V5.41552V5.40936V5.40321V5.39705V5.39089V5.38473V5.37857V5.37241V5.36625V5.36009V5.35393V5.34777V5.34161V5.33545V5.32929V5.32313V5.31697V5.3108V5.30464V5.29848V5.29232V5.28616V5.28V5.27383V5.26767V5.26151V5.25535V5.24918V5.24302V5.23686V5.23069V5.22453V5.21836V5.2122V5.20604V5.19987V5.19371V5.18754V5.18137V5.17521V5.16904V5.16288V5.15671V5.15054V5.14437V5.13821V5.13204V5.12587V5.1197V5.11353V5.10737V5.1012V5.09503V5.08886V5.08269V5.07652V5.07034V5.06417V5.058V5.05183V5.04566V5.03948V5.03331V5.02714V5.02097V5.01479V5.00862V5.00244V4.99627V4.99009V4.98392V4.97774V4.97156V4.96539V4.95921V4.95303V4.94685V4.94067V4.9345V4.92832V4.92214V4.91596V4.90978V4.9036V4.89741V4.89123V4.88505V4.87887V4.87268V4.8665V4.86032V4.85413V4.84795V4.84176V4.83557V4.82939V4.8232V4.81701V4.81083V4.80464V4.79845V4.79226V4.78607V4.77988V4.77369V4.7675V4.76131V4.75511V4.74892V4.74273V4.73653V4.73034V4.72414V4.71795V4.71175V4.70555V4.69936V4.69316V4.68696V4.68076V4.67456V4.66836V4.66216V4.65596V4.64976V4.64356V4.63735V4.63115V4.62495V4.61874V4.61254V4.60633V4.60012V4.59392V4.58771V4.5815V4.57529V4.56908V4.56287V4.55666V4.55045V4.54424V4.53802V4.53181V4.5256V4.51938V4.51316V4.50695V4.50073V4.49451V4.4883V4.48208V4.47586V4.46964V4.46342V4.45719V4.45097V4.44475V4.43852V4.4323V4.42607V4.41985V4.41362V4.40739V4.40117V4.39494V4.38871V4.38248V4.37625V4.37001V4.36378V4.35755V4.35131V4.34508V4.33884V4.33261V4.32637V4.32013V4.31389V4.30765V4.30141V4.29517V4.28893V4.28268V4.27644V4.2702V4.26395V4.2577V4.25146V4.24521V4.23896V4.23271V4.22646V4.22021V4.21396V4.2077V4.20145V4.1952V4.18894V4.18268V4.17643V4.17017V4.16391V4.15765V4.15139V4.14513V4.13886V4.1326V4.12634V4.12007V4.1138V4.10754V4.10127V4.095V4.08873V4.08246V4.07619V4.06991V4.06364V4.05737V4.05109V4.04481V4.03854V4.03226V4.02598V4.0197V4.01342V4.00713V4.00085V3.99457V3.98828V3.98199V3.97571V3.96942V3.96313V3.95684V3.95055V3.94425V3.93796V3.93167V3.92537V3.91908V3.91278V3.90648V3.90018V3.89388V3.88758V3.88127V3.87497V3.86867V3.86236V3.85605V3.84974V3.84344V3.83713V3.83081V3.8245V3.81819V3.81187V3.80556V3.79924V3.79292V3.7866V3.78028V3.77396V3.76764V3.76132V3.75499V3.74867V3.74234V3.73601V3.72968V3.72335V3.71702V3.71069V3.70435V3.69802V3.69168V3.68534V3.67901V3.67267V3.66633V3.65998V3.65364V3.6473V3.64095V3.6346V3.62825V3.62191V3.61555V3.6092V3.60285V3.5965V3.59014V3.58378V3.57743V3.57107V3.56471V3.55834V3.55198V3.54562V3.53925V3.53289V3.52652V3.52015V3.51378V3.50741V3.50103V3.49466V3.48828V3.48191V3.47553V3.46915V3.46277V3.45638V3.45V3.44362V3.43723V3.43084V3.42445V3.41806V3.41167V3.40528V3.39889V3.39249V3.38609V3.37969V3.37329V3.36689V3.36049V3.35409V3.34768V3.34128V3.33487V3.32846V3.32205V3.31564V3.30922V3.30281V3.29639V3.28997V3.28356V3.27713V3.27071V3.26429V3.25786V3.25144V3.24501V3.23858V3.23215V3.22572V3.21929V3.21285V3.20641V3.19998V3.19354V3.1871V3.18065V3.17421V3.16777V3.16132V3.15487V3.14842V3.14197V3.13552V3.12906V3.12261V3.11615V3.10969V3.10323V3.09677V3.09031V3.08384V3.07737V3.07091V3.06444V3.05797V3.05149V3.04502V3.03854V3.03207V3.02559V3.01911V3.01262V3.00614V2.99966V2.99317V2.98668V2.98019V2.9737V2.96721V2.96071V2.95422V2.94772V2.94122V2.93472V2.92821V2.92171V2.9152V2.9087V2.90219V2.89567V2.88916V2.88265V2.87613V2.86961V2.86309V2.85657V2.85005V2.84353V2.837V2.83047V2.82394V2.81741V2.81088V2.80435V2.79781V2.79127V2.78473V2.77819V2.77165V2.7651V2.75856V2.75201V2.74546V2.73891V2.73235V2.7258V2.71924V2.71268V2.70612V2.69956V2.693V2.68643V2.67986V2.67329V2.66672V2.66015V2.65357V2.647V2.64042V2.63384V2.62726V2.62067V2.61409V2.6075V2.60091V2.59432V2.58773V2.58113V2.57454V2.56794V2.56134V2.55474V2.54813V2.54153V2.53492V2.52831V2.52495C15.712 3.51072 16.8193 4.6911 17.7222 6.02276L17.7223 6.02303C19.3223 8.36628 20.2546 11.1007 20.4193 13.9333L20.4193 13.9336C20.4288 14.0875 20.4073 14.1444 20.3819 14.1702C20.355 14.1976 20.2944 14.2208 20.1366 14.2208V14.3208L20.1375 14.2208C18.3297 14.2041 16.5235 14.2041 14.719 14.2208L14.7189 14.2208C14.5595 14.2225 14.505 14.1962 14.4811 14.1695C14.4539 14.139 14.4358 14.0767 14.4358 13.9238C14.445 13.0164 14.4441 12.1091 14.4432 11.203C14.4427 10.6371 14.4422 10.0717 14.4441 9.50698L14.3441 9.50664M14.2549 6.14015L14.3441 9.50664M14.3441 9.50664C14.3422 10.0723 14.3427 10.6381 14.3432 11.2041C14.3441 12.1098 14.345 13.0161 14.3358 13.9233L14.3441 9.50664Z" fill="#3173F1" stroke="#3173F1" stroke-width="0.2"/>
<path d="M9.50551 3.72681L9.50552 3.72681C9.51417 3.71108 9.52302 3.69472 9.53209 3.67795C9.56824 3.61114 9.60789 3.53784 9.65266 3.47165C9.71756 3.36139 9.81905 3.27731 9.93954 3.23406M9.50551 3.72681L9.93954 3.23406M9.50551 3.72681L9.50482 3.7281C7.62814 7.26202 5.75312 10.7965 3.87978 14.3315C3.72474 14.6235 3.66567 14.8857 3.77953 15.0804C3.89403 15.2761 4.1506 15.3483 4.4773 15.3483H4.48787H4.49844H4.50901H4.51958H4.53015H4.54072H4.55129H4.56186H4.57243H4.583H4.59357H4.60414H4.61471H4.62528H4.63585H4.64642H4.65699H4.66756H4.67813H4.6887H4.69927H4.70983H4.7204H4.73097H4.74154H4.75211H4.76268H4.77325H4.78382H4.79439H4.80496H4.81553H4.8261H4.83667H4.84724H4.85781H4.86838H4.87895H4.88952H4.90008H4.91065H4.92122H4.93179H4.94236H4.95293H4.9635H4.97407H4.98464H4.99521H5.00578H5.01635H5.02692H5.03749H5.04806H5.05863H5.06919H5.07976H5.09033H5.1009H5.11147H5.12204H5.13261H5.14318H5.15375H5.16432H5.17489H5.18546H5.19603H5.20659H5.21716H5.22773H5.2383H5.24887H5.25944H5.27001H5.28058H5.29115H5.30172H5.31229H5.32286H5.33343H5.34399H5.35456H5.36513H5.3757H5.38627H5.39684H5.40741H5.41798H5.42855H5.43912H5.44969H5.46025H5.47082H5.48139H5.49196H5.50253H5.5131H5.52367H5.53424H5.54481H5.55538H5.56594H5.57651H5.58708H5.59765H5.60822H5.61879H5.62936H5.63993H5.6505H5.66107H5.67163H5.6822H5.69277H5.70334H5.71391H5.72448H5.73505H5.74562H5.75619H5.76675H5.77732H5.78789H5.79846H5.80903H5.8196H5.83017H5.84074H5.85131H5.86187H5.87244H5.88301H5.89358H5.90415H5.91472H5.92529H5.93586H5.94642H5.95699H5.96756H5.97813H5.9887H5.99927H6.00984H6.02041H6.03098H6.04154H6.05211H6.06268H6.07325H6.08382H6.09439H6.10496H6.11552H6.12609H6.13666H6.14723H6.1578H6.16837H6.17894H6.18951H6.20007H6.21064H6.22121H6.23178H6.24235H6.25292H6.26349H6.27405H6.28462H6.29519H6.30576H6.31633H6.3269H6.33747H6.34803H6.3586H6.36917H6.37974H6.39031H6.40088H6.41145H6.42201H6.43258H6.44315H6.45372H6.46429H6.47486H6.48542H6.49599H6.50656H6.51713H6.5277H6.53827H6.54884H6.5594H6.56997H6.58054H6.59111H6.60168H6.61225H6.62281H6.63338H6.64395H6.65452H6.66509H6.67566H6.68622H6.69679H6.70736H6.71793H6.7285H6.73907H6.74963H6.7602H6.77077H6.78134H6.79191H6.80248H6.81304H6.82361H6.83418H6.84475H6.85532H6.86588H6.87645H6.88702H6.89759H6.90816H6.91873H6.92929H6.93986H6.95043H6.961H6.97157H6.98213H6.9927H7.00327H7.01384H7.02441H7.03498H7.04554H7.05611H7.06668H7.07725H7.08782H7.09838H7.10895H7.11952H7.13009H7.14066H7.15122H7.16179H7.17236H7.18293H7.1935H7.20406H7.21463H7.2252H7.23577H7.24634H7.2569H7.26747H7.27804H7.28861H7.29918H7.30974H7.32031H7.33088H7.34145H7.35202H7.36258H7.37315H7.38372H7.39429H7.40486H7.41542H7.42599H7.43656H7.44713H7.4577H7.46826H7.47883H7.4894H7.49997H7.51053H7.5211H7.53167H7.54224H7.55281H7.56337H7.57394H7.58451H7.59508H7.60564H7.61621H7.62678H7.63735H7.64792H7.65848H7.66905H7.67962H7.69019H7.70075H7.71132H7.72189H7.73246H7.74303H7.75359H7.76416H7.77473H7.7853H7.79586H7.80643H7.817H7.82757H7.83813H7.8487H7.85927H7.86984H7.8804H7.89097H7.90154H7.91211H7.92268H7.93324H7.94381H7.95438H7.96495H7.97551H7.98608H7.99665H8.00722H8.01778H8.02835H8.03892H8.04949H8.06005H8.07062H8.08119H8.09176H8.10232H8.11289H8.12346H8.13403H8.14459H8.15516H8.16573H8.1763H8.18686H8.19743H8.208H8.21857H8.22913H8.2397H8.25027H8.26083H8.2714H8.28197H8.29254H8.3031H8.31367H8.32424H8.33481H8.34537H8.35594H8.36651H8.37708H8.38764H8.39821H8.40878H8.41934H8.42991H8.44048H8.45105H8.46161H8.47218H8.48275H8.49332H8.50388H8.51445H8.52502H8.53558H8.54615H8.55672H8.56729H8.57785H8.58842H8.59899H8.60956H8.62012H8.63069H8.64126H8.65182H8.66239H8.67296H8.68353H8.69409H8.70466H8.71523H8.72579H8.73636H8.74693H8.75749H8.76806H8.77863H8.7892H8.79976H8.81033H8.8209H8.83146H8.84203H8.8526H8.86317H8.87373H8.8843H8.89487H8.90543H8.916H8.92657H8.93713H8.9477H8.95827H8.96884H8.9794H8.98997H9.00054H9.0111H9.02167H9.03224H9.0428H9.05337H9.06394H9.0745H9.08507H9.09564H9.10621H9.11677H9.12734H9.13791H9.14847H9.15904H9.16961H9.18017H9.19074H9.20131H9.21187H9.22244H9.23301H9.24357H9.25414H9.26471H9.27527H9.28584H9.29641H9.30697H9.31754H9.32811H9.33868H9.34924H9.35981H9.37038H9.38094H9.39151H9.40208H9.41264H9.42321H9.43378H9.44434H9.45491H9.46548H9.47604H9.48661H9.49718H9.50774H9.51831H9.52888H9.53944H9.55001H9.56058H9.57114H9.58171H9.59228H9.60284H9.61341H9.62397H9.63454H9.64511H9.65567H9.66624H9.67681H9.68737H9.69794H9.70851H9.71907H9.72964H9.74021H9.75077H9.76134H9.77191H9.78247H9.79304H9.80361H9.81417H9.82474H9.8353H9.84587H9.85644H9.867H9.87757H9.88814C10.0401 15.3483 10.1676 15.3421 10.272 15.3213C10.3774 15.3004 10.4676 15.263 10.5369 15.1945C10.6063 15.1258 10.6443 15.0363 10.6657 14.9315C10.6868 14.8279 10.6931 14.7014 10.6931 14.5508V14.5406V14.5304V14.5201V14.5099V14.4996V14.4894V14.4792V14.4689V14.4587V14.4484V14.4382V14.4279V14.4177V14.4075V14.3972V14.387V14.3767V14.3665V14.3563V14.346V14.3358V14.3255V14.3153V14.3051V14.2948V14.2846V14.2743V14.2641V14.2539V14.2436V14.2334V14.2231V14.2129V14.2026V14.1924V14.1822V14.1719V14.1617V14.1514V14.1412V14.131V14.1207V14.1105V14.1002V14.09V14.0798V14.0695V14.0593V14.049V14.0388V14.0285V14.0183V14.0081V13.9978V13.9876V13.9773V13.9671V13.9569V13.9466V13.9364V13.9261V13.9159V13.9057V13.8954V13.8852V13.8749V13.8647V13.8544V13.8442V13.834V13.8237V13.8135V13.8032V13.793V13.7828V13.7725V13.7623V13.752V13.7418V13.7315V13.7213V13.7111V13.7008V13.6906V13.6803V13.6701V13.6599V13.6496V13.6394V13.6291V13.6189V13.6087V13.5984V13.5882V13.5779V13.5677V13.5574V13.5472V13.537V13.5267V13.5165V13.5062V13.496V13.4858V13.4755V13.4653V13.455V13.4448V13.4345V13.4243V13.4141V13.4038V13.3936V13.3833V13.3731V13.3629V13.3526V13.3424V13.3321V13.3219V13.3116V13.3014V13.2912V13.2809V13.2707V13.2604V13.2502V13.24V13.2297V13.2195V13.2092V13.199V13.1887V13.1785V13.1683V13.158V13.1478V13.1375V13.1273V13.1171V13.1068V13.0966V13.0863V13.0761V13.0658V13.0556V13.0454V13.0351V13.0249V13.0146V13.0044V12.9942V12.9839V12.9737V12.9634V12.9532V12.9429V12.9327V12.9225V12.9122V12.902V12.8917V12.8815V12.8712V12.861V12.8508V12.8405V12.8303V12.82V12.8098V12.7996V12.7893V12.7791V12.7688V12.7586V12.7483V12.7381V12.7279V12.7176V12.7074V12.6971V12.6869V12.6767V12.6664V12.6562V12.6459V12.6357V12.6254V12.6152V12.605V12.5947V12.5845V12.5742V12.564V12.5537V12.5435V12.5333V12.523V12.5128V12.5025V12.4923V12.4821V12.4718V12.4616V12.4513V12.4411V12.4308V12.4206V12.4104V12.4001V12.3899V12.3796V12.3694V12.3591V12.3489V12.3387V12.3284V12.3182V12.3079V12.2977V12.2874V12.2772V12.267V12.2567V12.2465V12.2362V12.226V12.2158V12.2055V12.1953V12.185V12.1748V12.1645V12.1543V12.1441V12.1338V12.1236V12.1133V12.1031V12.0928V12.0826V12.0724V12.0621V12.0519V12.0416V12.0314V12.0211V12.0109V12.0007V11.9904V11.9802V11.9699V11.9597V11.9495V11.9392V11.929V11.9187V11.9085V11.8982V11.888V11.8778V11.8675V11.8573V11.847V11.8368V11.8265V11.8163V11.8061V11.7958V11.7856V11.7753V11.7651V11.7548V11.7446V11.7344V11.7241V11.7139V11.7036V11.6934V11.6831V11.6729V11.6627V11.6524V11.6422V11.6319V11.6217V11.6114V11.6012V11.591V11.5807V11.5705V11.5602V11.55V11.5397V11.5295V11.5193V11.509V11.4988V11.4885V11.4783V11.468V11.4578V11.4476V11.4373V11.4271V11.4168V11.4066V11.3963V11.3861V11.3759V11.3656V11.3554V11.3451V11.3349V11.3246V11.3144V11.3042V11.2939V11.2837V11.2734V11.2632V11.2529V11.2427V11.2325V11.2222V11.212V11.2017V11.1915V11.1812V11.171V11.1608V11.1505V11.1403V11.13V11.1198V11.1095V11.0993V11.0891V11.0788V11.0686V11.0583V11.0481V11.0378V11.0276V11.0174V11.0071V10.9969V10.9866V10.9764V10.9661V10.9559V10.9457V10.9354V10.9252V10.9149V10.9047V10.8944V10.8842V10.874V10.8637V10.8535V10.8432V10.833V10.8227V10.8125V10.8022V10.792V10.7818V10.7715V10.7613V10.751V10.7408V10.7305V10.7203V10.7101V10.6998V10.6896V10.6793V10.6691V10.6588V10.6486V10.6384V10.6281V10.6179V10.6076V10.5974V10.5871V10.5769V10.5667V10.5564V10.5462V10.5359V10.5257V10.5154V10.5052V10.495V10.4847V10.4745V10.4642V10.454V10.4437V10.4335V10.4232V10.413V10.4028V10.3925V10.3823V10.372V10.3618V10.3515V10.3413V10.3311V10.3208V10.3106V10.3003V10.2901V10.2798V10.2696V10.2594V10.2491V10.2389V10.2286V10.2184V10.2081V10.1979V10.1876V10.1774V10.1672V10.1569V10.1467V10.1364V10.1262V10.1159V10.1057V10.0955V10.0852V10.075V10.0647V10.0545V10.0442V10.034V10.0237V10.0135V10.0033V9.99302V9.98277V9.97253V9.96229V9.95204V9.9418V9.93155V9.92131V9.91107V9.90082V9.89058V9.88033V9.87009V9.85985V9.8496V9.83936V9.82912V9.81887V9.80863V9.79838V9.78814V9.7779V9.76765V9.75741V9.74717V9.73692V9.72668V9.71643V9.70619V9.69595V9.6857V9.67546V9.66521V9.65497V9.64473V9.63448V9.62424V9.61399V9.60375V9.59351V9.58326V9.57302V9.56277V9.55253V9.54229V9.53204V9.5218V9.51155V9.50131V9.49107V9.48082V9.47058V9.46033V9.45009V9.43985V9.4296V9.41936V9.40911V9.39887V9.38863V9.37838V9.36814V9.35789V9.34765V9.33741V9.32716V9.31692V9.30667C10.6931 8.00274 10.6912 6.69853 10.6873 5.39404C10.6873 5.39398 10.6873 5.39393 10.6873 5.39388L10.6873 5.391V5.38783V5.38466V5.38149V5.37832V5.37515V5.37198V5.36881V5.36564V5.36247V5.3593V5.35613V5.35296V5.34979V5.34661V5.34344V5.34027V5.3371V5.33393V5.33076V5.32759V5.32442V5.32125V5.31808V5.31491V5.31174V5.30857V5.3054V5.30223V5.29906V5.29589V5.29271V5.28954V5.28637V5.2832V5.28003V5.27686V5.27369V5.27052V5.26735V5.26418V5.26101V5.25784V5.25467V5.2515V5.24833V5.24516V5.24199V5.23882V5.23564V5.23247V5.2293V5.22613V5.22296V5.21979V5.21662V5.21345V5.21028V5.20711V5.20394V5.20077V5.1976V5.19443V5.19126V5.18809V5.18492V5.18174V5.17857V5.1754V5.17223V5.16906V5.16589V5.16272V5.15955V5.15638V5.15321V5.15004V5.14687V5.1437V5.14053V5.13736V5.13419V5.13102V5.12785V5.12467V5.1215V5.11833V5.11516V5.11199V5.10882V5.10565V5.10248V5.09931V5.09614V5.09297V5.0898V5.08663V5.08346V5.08029V5.07712V5.07395V5.07077V5.0676V5.06443V5.06126V5.05809V5.05492V5.05175V5.04858V5.04541V5.04224V5.03907V5.0359V5.03273V5.02956V5.02639V5.02322V5.02005V5.01687V5.0137V5.01053V5.00736V5.00419V5.00102V4.99785V4.99468V4.99151V4.98834V4.98517V4.982V4.97883V4.97566V4.97249V4.96932V4.96615V4.96298V4.9598V4.95663V4.95346V4.95029V4.94712V4.94395V4.94078V4.93761V4.93444V4.93127V4.9281V4.92493V4.92176V4.91859V4.91542V4.91225V4.90908V4.9059V4.90273V4.89956V4.89639V4.89322V4.89005V4.88688V4.88371V4.88054V4.87737V4.8742V4.87103V4.86786V4.86469V4.86152V4.85835V4.85518V4.85201V4.84883V4.84566V4.84249V4.83932V4.83615V4.83298V4.82981V4.82664V4.82347V4.8203V4.81713V4.81396V4.81079V4.80762V4.80445V4.80128V4.79811V4.79493V4.79176V4.78859V4.78542V4.78225V4.77908V4.77591V4.77274V4.76957V4.7664V4.76323V4.76006V4.75689V4.75372V4.75055V4.74738V4.74421V4.74103V4.73786V4.73469V4.73152V4.72835V4.72518V4.72201V4.71884V4.71567V4.7125V4.70933V4.70616V4.70299V4.69982V4.69665V4.69348V4.69031V4.68714V4.68396V4.68079V4.67762V4.67445V4.67128V4.66811V4.66494V4.66177V4.6586V4.65543V4.65226V4.64909V4.64592V4.64275V4.63958V4.63641V4.63324V4.63006V4.62689V4.62372V4.62055V4.61738V4.61421V4.61104V4.60787V4.6047V4.60153V4.59836V4.59519V4.59202V4.58885V4.58568V4.58251V4.57934V4.57617V4.57299V4.56982V4.56665V4.56348V4.56031V4.55714V4.55397V4.5508V4.54763V4.54446V4.54129V4.53812V4.53495V4.53178V4.52861V4.52544V4.52227V4.51909V4.51592V4.51275V4.50958V4.50641V4.50324V4.50007V4.4969V4.49373V4.49056V4.48739V4.48422V4.48105V4.47788V4.47471V4.47154V4.46837V4.4652V4.46202V4.45885V4.45568V4.45251V4.44934V4.44617V4.443V4.43983V4.43666V4.43349V4.43032V4.42715V4.42398V4.42081V4.41764V4.41447V4.4113V4.40812V4.40495V4.40178V4.39861V4.39544V4.39227V4.3891V4.38593V4.38276V4.37959V4.37642V4.37325V4.37008V4.36691V4.36374V4.36057V4.3574V4.35423V4.35105V4.34788V4.34471V4.34154V4.33837V4.3352V4.33203V4.32886V4.32569V4.32252V4.31935V4.31618V4.31301V4.30984V4.30667V4.3035V4.30033V4.29715V4.29398V4.29081V4.28764V4.28447V4.2813V4.27813V4.27496V4.27179V4.26862V4.26545V4.26228V4.25911V4.25594V4.25277V4.2496V4.24643V4.24325V4.24008V4.23691V4.23374V4.23057V4.2274V4.22423V4.22106V4.21789V4.21472V4.21155V4.20838V4.20521V4.20204V4.19887V4.1957V4.19253V4.18936V4.18618V4.18301V4.17984V4.17667V4.1735V4.17033V4.16716V4.16399V4.16082V4.15765V4.15448V4.15131V4.14814V4.14497V4.1418V4.13863V4.13546V4.13228V4.12911V4.12594V4.12277V4.1196V4.11643V4.11326V4.11009V4.10692V4.10375V4.10058V4.09741V4.09424V4.09107V4.0879V4.08473V4.08156V4.07839V4.07521V4.07204V4.06887V4.0657V4.06253V4.05936V4.05619V4.05302V4.04985V4.04668V4.04351V4.04034V4.03717V4.034V4.03083V4.02766V4.02449V4.02131V4.01814V4.01497V4.0118V4.00863V4.00546V4.00229V3.99912V3.99595V3.99278V3.98961V3.98644V3.98327V3.9801V3.97693V3.97376V3.97059V3.96742V3.96424V3.96107V3.9579V3.95473V3.95156V3.94839V3.94522V3.94205V3.93888V3.93571V3.93254V3.92937V3.9262V3.92303V3.91986V3.91669V3.91352V3.91034V3.90717V3.904V3.90083V3.89766V3.89449V3.89132V3.88815V3.88498V3.88181V3.87864V3.87547V3.8723V3.86913V3.86596V3.86279V3.85962V3.85645V3.85327V3.8501V3.84693V3.84376V3.84059V3.83742V3.83425V3.83108V3.82791V3.82474V3.82157V3.8184V3.81523V3.81206V3.80889V3.80572V3.80255V3.79937V3.7962V3.79303V3.78986V3.78669V3.78352V3.78035V3.77718V3.77437C10.6953 3.65526 10.6625 3.53694 10.5943 3.43888C10.5261 3.34079 10.4265 3.2689 10.312 3.23499C10.1918 3.19118 10.06 3.19082 9.93954 3.23406M9.50551 3.72681L9.93954 3.23406M9.57897 13.9262L9.57897 13.9264C9.57982 14.0794 9.56175 14.1419 9.53459 14.1724C9.51078 14.199 9.45628 14.2254 9.29708 14.2233C8.2872 14.2088 7.27653 14.211 6.2387 14.2133C5.90563 14.214 5.56977 14.2148 5.23023 14.215L9.57064 6.03164V6.09584C9.57064 8.70498 9.57064 11.3151 9.57897 13.9262ZM5.06397 14.315C5.10175 14.315 5.13949 14.315 5.17718 14.315L5.11701 14.215L5.06397 14.315Z" fill="#3173F1" stroke="#3173F1" stroke-width="0.2"/>
<path d="M9.83596 22.6249C8.99012 23.2157 8.08012 23.1991 7.23429 22.6074C6.55179 22.1299 5.93512 22.1274 5.25262 22.6074M9.83596 22.6249L9.89295 22.7071C9.893 22.7071 9.89304 22.707 9.89309 22.707M9.83596 22.6249C10.5568 22.1249 11.181 22.1349 11.8901 22.6349C12.6926 23.1966 13.5801 23.2207 14.3843 22.6624M9.83596 22.6249L9.89322 22.7069C9.89318 22.7069 9.89313 22.707 9.89309 22.707M9.89309 22.707C9.45562 23.0125 8.9967 23.1641 8.53415 23.1596C8.07177 23.1551 7.61354 22.9947 7.17697 22.6894L7.17696 22.6894C6.84717 22.4586 6.54202 22.3486 6.24336 22.3484C5.94478 22.3481 5.63976 22.4574 5.31015 22.6892M9.89309 22.707C10.2422 22.4649 10.5585 22.3526 10.8667 22.3549C11.175 22.3572 11.4888 22.4743 11.8325 22.7166L11.8328 22.7168C12.2479 23.0074 12.6894 23.1618 13.1351 23.1687C13.5809 23.1755 14.024 23.0343 14.4412 22.7446M5.31015 22.6892C5.31015 22.6892 5.31016 22.6892 5.31016 22.6892L5.25262 22.6074M5.31015 22.6892L5.25262 22.6074M5.31015 22.6892C4.87341 22.9964 4.41649 23.1556 3.95445 23.1592C3.49238 23.1628 3.03317 23.0108 2.59201 22.7091L2.59186 22.709C2.27821 22.4937 1.98264 22.3659 1.69127 22.3437C1.40277 22.3217 1.1073 22.4023 0.790158 22.6245M5.25262 22.6074C4.40679 23.2024 3.50262 23.2107 2.64846 22.6266C2.00512 22.1849 1.39846 22.0757 0.731792 22.5432M0.790158 22.6245C0.790498 22.6242 0.790837 22.624 0.791177 22.6237L0.731792 22.5432M0.790158 22.6245C0.789841 22.6247 0.789524 22.6249 0.789206 22.6251L0.731792 22.5432M0.790158 22.6245C0.650077 22.7275 0.501739 22.7666 0.357979 22.7342C0.216407 22.7024 0.0973751 22.6054 0.00484144 22.4731C-0.0923279 22.3341 -0.122392 22.1908 -0.0886624 22.0533C-0.0558691 21.9196 0.0336744 21.8059 0.14716 21.7139L0.210125 21.7916M0.731792 22.5432C0.486792 22.7241 0.253458 22.6541 0.0867916 22.4157C-0.0798751 22.1774 0.00345822 21.9591 0.210125 21.7916M0.210125 21.7916L0.14691 21.7141C0.570709 21.3683 1.10521 21.1875 1.65183 21.2049C2.15865 21.1976 2.6533 21.3604 3.05672 21.6674C3.35676 21.8882 3.64534 21.9909 3.92999 21.9902C4.21535 21.9896 4.50856 21.885 4.81718 21.6703L4.81721 21.6703C5.28467 21.3454 5.76517 21.1811 6.24994 21.1827C6.73459 21.1844 7.21457 21.3518 7.68119 21.6752C7.98187 21.8833 8.26683 21.9847 8.54612 21.9869C8.82512 21.9891 9.10987 21.8923 9.41054 21.6836C9.88481 21.3539 10.3705 21.1857 10.8606 21.1866C11.3507 21.1875 11.8361 21.3573 12.3098 21.6879C12.6105 21.8975 12.8958 21.9925 13.1753 21.9887C13.4553 21.9848 13.7408 21.8817 14.0409 21.675L14.0976 21.7574M0.210125 21.7916L19.065 22.7393M14.0976 21.7574L14.0406 21.6753C14.5083 21.3504 14.9885 21.1851 15.473 21.1855C15.9575 21.186 16.4373 21.3522 16.9045 21.6751C17.2056 21.8832 17.4905 21.9845 17.7697 21.9865C18.0486 21.9885 18.3332 21.8915 18.6339 21.6828L18.634 21.6827C19.1 21.3595 19.5792 21.1903 20.0636 21.1865C20.5481 21.1826 21.0289 21.3443 21.4977 21.6676C21.7823 21.8636 22.0566 21.973 22.3273 21.9893C22.5966 22.0055 22.8719 21.9302 23.1609 21.7397L23.216 21.8232M14.0976 21.7574C13.4743 22.1866 12.8801 22.2074 12.2526 21.7699M14.0976 21.7574L12.2526 21.7699M23.216 21.8232L23.1605 21.74C23.2963 21.6495 23.4464 21.593 23.5963 21.606C23.7509 21.6194 23.8872 21.7049 23.9929 21.8614C23.993 21.8614 23.993 21.8614 23.993 21.8614L23.9101 21.9174M23.216 21.8232C23.466 21.6566 23.726 21.6449 23.9101 21.9174M23.216 21.8232C22.6076 22.2241 22.0301 22.1557 21.441 21.7499C20.531 21.1224 19.5968 21.1366 18.691 21.7649L23.9101 21.9174M23.9101 21.9174C24.1118 22.2149 23.9585 22.4366 23.706 22.6191C22.971 23.1482 21.911 23.2099 21.1676 22.6732C20.4243 22.1366 19.7676 22.1257 19.0076 22.6574M19.0076 22.6574C18.2243 23.2057 17.341 23.2132 16.551 22.6574M19.0076 22.6574L19.0649 22.7394C19.065 22.7393 19.065 22.7393 19.065 22.7393M19.0076 22.6574L19.065 22.7393M16.551 22.6574C15.796 22.1274 15.141 22.1382 14.3843 22.6624M16.551 22.6574L16.4935 22.7393C16.4935 22.7392 16.4934 22.7392 16.4934 22.7392M16.551 22.6574L16.4934 22.7392M14.3843 22.6624L14.4412 22.7446M14.3843 22.6624L14.4413 22.7446C14.4413 22.7446 14.4413 22.7446 14.4412 22.7446M14.4412 22.7446C14.809 22.4898 15.1425 22.3664 15.4688 22.3646C15.7948 22.3628 16.1273 22.4822 16.4934 22.7392M16.4934 22.7392C17.3183 23.3196 18.2476 23.3115 19.065 22.7393M12.2526 21.7699C11.3318 21.1274 10.3893 21.1249 9.46762 21.7657C8.84096 22.2007 8.24929 22.1899 7.62429 21.7574C6.71762 21.1291 5.78179 21.1216 4.87429 21.7524L12.2526 21.7699Z" fill="#3173F1" stroke="#3173F1" stroke-width="0.2"/>
<path d="M1.33386 17.4157C1.29748 17.4157 1.26092 17.4158 1.22417 17.4158C1.64707 18.3592 2.26137 19.2049 3.02856 19.8991C3.06643 19.9336 3.10431 19.9672 3.14219 20.0008C3.18764 20.0411 3.2331 20.0815 3.27856 20.1233C3.49689 20.3324 3.57606 20.5708 3.35356 20.8149C3.13106 21.0591 2.88356 21.0141 2.65356 20.8149M1.33386 17.4157C1.75043 18.33 2.34982 19.1501 3.09565 19.825L3.09586 19.8252C3.13077 19.8569 3.1685 19.8904 3.20679 19.9244C3.25383 19.9662 3.30171 20.0087 3.34626 20.0497L3.34775 20.0511L3.34773 20.0511C3.46442 20.1629 3.55574 20.2932 3.58002 20.4396C3.60526 20.5919 3.55504 20.7423 3.42747 20.8823C3.30062 21.0215 3.15586 21.0884 3.00162 21.0811C2.85231 21.074 2.71237 20.9981 2.58848 20.8909M1.33386 17.4157C1.46067 17.4155 1.58532 17.4152 1.70829 17.4148C2.13966 17.4137 2.5504 17.4126 2.96113 17.4191L2.96145 17.4191C3.13067 17.4213 3.30576 17.4009 3.44204 17.319C3.58722 17.2318 3.67383 17.0838 3.67771 16.8693C3.68155 16.6565 3.60423 16.5037 3.46359 16.41C3.33116 16.3217 3.15682 16.2958 2.98356 16.2958C2.72223 16.2958 2.45991 16.2951 2.19707 16.2945C1.66973 16.2932 1.14033 16.2919 0.612817 16.2958L0.612448 16.2958C0.339294 16.2988 0.120335 16.366 0.003701 16.5321C-0.113309 16.6987 -0.100161 16.9258 -0.00703243 17.1801L1.33386 17.4157ZM2.58848 20.8909C2.58861 20.891 2.58875 20.8911 2.58888 20.8912L2.65356 20.8149M2.58848 20.8909C2.58835 20.8908 2.58822 20.8907 2.58809 20.8905L2.65356 20.8149M2.58848 20.8909C2.04219 20.4275 1.55318 19.9006 1.13185 19.3213L1.13176 19.3211C0.655085 18.6635 0.271851 17.943 -0.00701069 17.1802L1.21272 19.2624M2.65356 20.8149C2.11318 20.3567 1.62947 19.8355 1.21272 19.2624M1.21272 19.2624C0.741462 18.6123 0.36258 17.9 0.086889 17.1458C-0.0922777 16.6566 0.086889 16.4016 0.613556 16.3958C1.14059 16.3919 1.66911 16.3932 2.19615 16.3945C2.45911 16.3951 2.7217 16.3958 2.98356 16.3958C3.31689 16.3958 3.58439 16.4983 3.57772 16.8674L1.21272 19.2624Z" fill="#3173F1" stroke="#3173F1" stroke-width="0.2"/>
<path d="M5.29873 16.2972L5.28897 16.2961L5.27919 16.297C5.12752 16.3107 4.99068 16.3559 4.89023 16.4478C4.78755 16.5418 4.7349 16.6736 4.73235 16.8345C4.7278 17.0012 4.77181 17.1475 4.87229 17.2524C4.97225 17.3568 5.11494 17.4066 5.28047 17.4074C5.35233 17.4132 5.42462 17.4039 5.49268 17.3801C5.56218 17.3557 5.62568 17.3168 5.67891 17.2659C5.73214 17.215 5.77388 17.1534 5.80133 17.085C5.82827 17.018 5.84083 16.946 5.83823 16.8738C5.84357 16.7072 5.79494 16.5679 5.69411 16.4664C5.59436 16.366 5.4546 16.3137 5.29873 16.2972Z" fill="#3173F1" stroke="#3173F1" stroke-width="0.2"/>
<path d="M14.4376 7.73303L14.4371 7.73302C14.4325 7.88603 14.3882 8.02258 14.2951 8.12298C14.201 8.22438 14.068 8.27712 13.9098 8.28241L14.4376 7.73303ZM14.4376 7.73303L14.437 7.7238M14.4376 7.73303L14.437 7.7238M14.437 7.7238C14.4267 7.55742 14.3721 7.41909 14.2702 7.32294C14.1681 7.2267 14.031 7.18437 13.8787 7.1858C13.7271 7.18722 13.5882 7.23155 13.4863 7.32714C13.3833 7.42375 13.3297 7.56197 13.3297 7.72746L13.3297 7.72774M14.437 7.7238L13.3297 7.72774M13.3297 7.72774C13.3302 7.90028 13.3828 8.0459 13.4905 8.14625M13.3297 7.72774L13.4905 8.14625M13.4905 8.14625C13.5976 8.24605 13.7452 8.28803 13.9097 8.28241L13.4905 8.14625Z" fill="#3173F1" stroke="#3173F1" stroke-width="0.2"/>
</svg>
