<svg width="24" height="24" viewBox="0 0 24 24" fill="none" xmlns="http://www.w3.org/2000/svg">
<path d="M12 22C13.3135 22.0017 14.6143 21.7438 15.8278 21.2412C17.0413 20.7385 18.1435 20.001 19.071 19.071C20.001 18.1435 20.7385 17.0413 21.2412 15.8278C21.7438 14.6143 22.0017 13.3135 22 12C22.0017 10.6865 21.7438 9.3857 21.2411 8.17222C20.7385 6.95875 20.001 5.85656 19.071 4.92901C18.1435 3.99902 17.0413 3.26151 15.8278 2.75885C14.6143 2.25619 13.3135 1.99831 12 2.00001C10.6865 1.99833 9.3857 2.25623 8.17222 2.75889C6.95875 3.26154 5.85656 3.99904 4.92901 4.92901C3.99904 5.85656 3.26154 6.95875 2.75889 8.17222C2.25623 9.3857 1.99833 10.6865 2.00001 12C1.99831 13.3135 2.25619 14.6143 2.75885 15.8278C3.26151 17.0413 3.99902 18.1435 4.92901 19.071C5.85656 20.001 6.95875 20.7385 8.17222 21.2411C9.3857 21.7438 10.6865 22.0017 12 22V22Z" stroke="#3173F1" stroke-width="2" stroke-linejoin="round"/>
<path d="M12.1768 17.4268C12.1299 17.4737 12.0663 17.5 12 17.5C11.9337 17.5 11.8701 17.4737 11.8232 17.4268C11.7763 17.3799 11.75 17.3163 11.75 17.25C11.75 17.1837 11.7763 17.1201 11.8232 17.0732C11.8701 17.0263 11.9337 17 12 17C12.0663 17 12.1299 17.0263 12.1768 17.0732C12.2237 17.1201 12.25 17.1837 12.25 17.25C12.25 17.3163 12.2237 17.3799 12.1768 17.4268Z" fill="black" stroke="#3173F1" stroke-width="2"/>
<path d="M12 6V14" stroke="#3173F1" stroke-width="2" stroke-linecap="round" stroke-linejoin="round"/>
</svg>
