<svg width="24" height="24" viewBox="0 0 24 24" fill="none" xmlns="http://www.w3.org/2000/svg">
<path d="M18.5 8.5V18.5M5.5 18.5V22H18.5V18.5M5.5 18.5H2V8.5C2 7 3 5.25 4.5 4C6 2.75 9 2 9 2H15C15 2 18 2.75 19.5 4C21 5.25 22 7 22 8.5V18.5H18.5M5.5 18.5V8.5" stroke="#3173F1" stroke-width="2" stroke-linecap="round" stroke-linejoin="round"/>
<path d="M15 2C15 2.79565 14.6839 3.55871 14.1213 4.12132C13.5587 4.68393 12.7956 5 12 5C11.2044 5 10.4413 4.68393 9.87868 4.12132C9.31607 3.55871 9 2.79565 9 2" stroke="#3173F1" stroke-width="2" stroke-linecap="round" stroke-linejoin="round"/>
</svg>
