<svg width="24" height="24" viewBox="0 0 24 24" fill="none" xmlns="http://www.w3.org/2000/svg">
<path d="M2 16.9028C2 15.1953 2.00582 13.4861 2 11.7803C2 10.8828 2.41599 10.2803 3.22634 9.94275C4.27047 9.51359 4.763 8.73109 4.763 7.61609C4.763 5.85275 4.763 4.09025 4.763 2.32692C4.763 1.28442 5.35953 0.558588 6.3837 0.384421C7.21568 0.241921 8.04765 0.124421 8.88546 0.0110875C9.26318 -0.0405791 9.62509 0.105254 9.987 0.177754C11.5237 0.475254 13.047 0.411088 14.5629 0.0652542C15.1453 -0.0680791 15.6877 0.126088 16.2468 0.172754C16.7281 0.221743 17.2066 0.295731 17.6803 0.394421C18.6313 0.575254 19.2344 1.30109 19.2369 2.26692C19.2411 4.05775 19.2369 5.85025 19.2369 7.63942C19.2369 8.73525 19.7261 9.51109 20.7578 9.93192C21.5898 10.2711 22.0058 10.8886 21.9999 11.8028C21.9916 15.2044 21.9999 18.6053 21.9999 22.0069C21.9999 23.2044 21.222 23.9936 20.0323 23.9969C17.8559 24.0028 15.6802 23.9969 13.5038 23.9969C13.0295 23.9969 12.5953 23.8803 12.2317 23.5744C12.0653 23.4369 11.9679 23.4078 11.7891 23.5619C11.433 23.8753 10.9979 23.9969 10.5228 23.9969C8.33302 23.9969 6.14325 23.9969 3.95016 23.9928C2.78622 23.9919 2.00582 23.1953 2 22.0253C2 20.318 2 18.6105 2 16.9028ZM17.6753 12.6419C18.5481 12.6419 19.4225 12.6503 20.2936 12.6419C21.1646 12.6336 21.0274 12.8019 21.0423 11.8603C21.0507 11.4019 20.8917 11.0428 20.4466 10.8603C18.9058 10.2394 18.2436 9.06192 18.251 7.44359C18.2594 5.72275 18.2552 4.00275 18.251 2.28192C18.251 1.77442 17.9549 1.41359 17.4923 1.34109C16.9324 1.25775 16.3683 1.19109 15.8108 1.09109C15.5097 1.03609 15.3949 1.11359 15.3732 1.43109C15.3403 1.71969 15.2793 2.00437 15.191 2.28109C14.6669 4.22525 13.7309 5.97692 12.6651 7.66692C12.5427 7.85167 12.4791 8.06934 12.4829 8.29109C12.4921 9.34609 12.4829 10.4003 12.4888 11.4578C12.4888 12.0919 12.4056 11.9969 13.0445 11.9961C13.483 11.9961 13.9306 11.9861 14.2093 12.3911C14.3607 12.6128 14.5296 12.6503 14.7659 12.6486C15.736 12.6369 16.7061 12.6419 17.6753 12.6419ZM6.30133 12.6419C7.28473 12.6419 8.26813 12.6419 9.25153 12.6419C9.38548 12.6419 9.56435 12.7036 9.64256 12.5686C9.99032 11.9661 10.5577 11.9586 11.1401 12.0053C11.4729 12.0328 11.522 11.8944 11.5178 11.6028C11.502 10.5344 11.5037 9.46609 11.5178 8.39775C11.5221 8.10845 11.4389 7.82462 11.2791 7.58359C10.0635 5.60859 8.96366 3.58359 8.59343 1.25025C8.55766 1.02775 8.42038 1.07275 8.28976 1.09192C7.77061 1.16609 7.25145 1.24775 6.7323 1.32859C5.94691 1.44609 5.7439 1.68025 5.7439 2.46775C5.7439 4.14664 5.7439 5.82553 5.7439 7.50442C5.7439 9.08776 5.07832 10.2453 3.57078 10.8528C3.2696 10.9753 3.04497 11.1794 2.99421 11.5078C2.95511 11.7661 2.97758 12.0336 2.95262 12.2953C2.92682 12.5728 3.04164 12.6511 3.30953 12.6469C4.30625 12.6344 5.30379 12.6419 6.30133 12.6419ZM16.7427 23.0103C17.8242 23.0103 18.9058 23.0144 19.9816 23.0103C20.7095 23.0103 21.0348 22.6769 21.0423 21.9369C21.0465 21.5353 21.0207 21.1311 21.0507 20.7311C21.0764 20.3728 20.9741 20.2569 20.5964 20.2603C18.6579 20.2811 16.7202 20.2736 14.7817 20.2653C14.5271 20.2653 14.3466 20.3119 14.1935 20.5419C14.0271 20.7919 13.7417 20.8869 13.4405 20.9194C13.1394 20.9519 12.7067 20.7669 12.5395 21.0094C12.3889 21.2278 12.4962 21.6253 12.4904 21.9436V21.9853C12.4954 22.6711 12.8182 23.0053 13.5029 23.0094C14.5828 23.0144 15.6628 23.0103 16.7427 23.0103ZM7.20985 23.0103C8.10922 23.0103 9.01025 22.9853 9.90879 23.0169C11.2341 23.0628 11.5727 22.8661 11.5212 21.4061C11.5087 21.0069 11.4222 20.8694 11.022 20.9119C10.4937 20.9686 9.99116 20.9011 9.68166 20.3803C9.61177 20.2628 9.50029 20.2694 9.38964 20.2694C7.3413 20.2694 5.29214 20.2694 3.24381 20.2694C3.025 20.2694 2.95095 20.3528 2.95594 20.5628C2.9651 21.0069 2.95594 21.4503 2.95594 21.8961C2.95594 22.6903 3.27376 23.0119 4.05416 23.0144C5.10578 23.0128 6.15989 23.0103 7.20985 23.0103ZM6.3421 17.5936C7.28473 17.5936 8.22653 17.5861 9.17083 17.5936C9.44788 17.5978 9.66169 17.5653 9.83059 17.2986C9.9024 17.1952 9.9988 17.1113 10.1111 17.0546C10.2234 16.9978 10.348 16.97 10.4737 16.9736C10.7366 16.9678 11.0003 16.9628 11.2633 16.9536C11.3548 16.9536 11.4887 16.9719 11.4945 16.8411C11.507 16.5661 11.5519 16.2669 11.4654 16.0203C11.4005 15.8353 11.1143 15.9369 10.9313 15.9419C10.4321 15.9494 9.95538 15.9111 9.67251 15.4061C9.60345 15.2828 9.47783 15.3228 9.37383 15.3228C7.33631 15.3228 5.29713 15.3228 3.26294 15.3169C3.02833 15.3169 2.94596 15.3886 2.95262 15.6261C2.96593 16.1669 2.97009 16.7094 2.95262 17.2494C2.94263 17.5294 3.04413 17.6003 3.3112 17.5969C4.31873 17.5836 5.32792 17.5928 6.3421 17.5928V17.5936ZM17.6786 17.5936C18.6903 17.5936 19.702 17.5869 20.7129 17.5936C20.9625 17.5936 21.0565 17.5253 21.0457 17.2661C21.029 16.7528 21.0207 16.2378 21.0457 15.7261C21.064 15.3928 20.9492 15.3094 20.6297 15.3094C18.7727 15.3236 16.9157 15.3194 15.0596 15.3136C14.6885 15.3136 14.3299 15.2686 14.0928 15.6736C13.993 15.8403 13.76 15.9161 13.5429 15.9186C13.28 15.9186 13.0162 15.9261 12.7533 15.9361C12.6635 15.9361 12.5212 15.9044 12.5121 16.0319C12.4913 16.3069 12.4463 16.6028 12.5245 16.8544C12.5894 17.0619 12.869 16.9444 13.0487 16.9478C13.4996 16.9553 13.9555 16.9478 14.2384 17.3753C14.3566 17.5544 14.488 17.5911 14.6835 17.5903C15.6827 17.5886 16.6811 17.5928 17.6786 17.5928V17.5936ZM12.0062 6.89525C13.0653 5.13109 13.9921 3.38525 14.4031 1.40859C14.4514 1.17942 14.389 1.09359 14.1236 1.14275C12.7618 1.40241 11.3642 1.4106 9.99948 1.16692C9.55936 1.08859 9.52941 1.13025 9.62675 1.56942C9.8597 2.62942 10.2557 3.62942 10.7308 4.60109C11.1093 5.39092 11.5352 6.15705 12.0062 6.89525ZM11.9937 17.9253C11.606 17.9253 11.2175 17.9386 10.829 17.9203C10.5669 17.9078 10.4962 18.0128 10.5028 18.2594C10.5178 18.7169 10.5186 19.1761 10.5028 19.6319C10.4945 19.8769 10.5935 19.9403 10.8198 19.9378C11.6085 19.9283 12.3975 19.9283 13.1868 19.9378C13.4256 19.9378 13.4988 19.8544 13.4913 19.6211C13.478 19.1636 13.4747 18.7044 13.4913 18.2486C13.5013 17.9861 13.3998 17.9153 13.1527 17.9211C12.7691 17.9361 12.3814 17.9253 11.9937 17.9253ZM11.9779 14.9828C12.3939 14.9828 12.8099 14.9778 13.2209 14.9828C13.4131 14.9828 13.4946 14.9153 13.4913 14.7169C13.4841 14.2169 13.4841 13.7186 13.4913 13.2219C13.4913 13.0394 13.4131 12.9819 13.2417 12.9828C12.4097 12.9861 11.5805 12.9861 10.7541 12.9828C10.5877 12.9828 10.5045 13.0369 10.5045 13.2211C10.5111 13.7211 10.5111 14.2191 10.5045 14.7153C10.5045 14.9136 10.581 14.9861 10.7732 14.9828C11.1759 14.9778 11.5769 14.9828 11.9779 14.9828ZM6.21647 14.3336C7.21484 14.3336 8.21322 14.3211 9.21159 14.3411C9.5161 14.3469 9.54438 14.2136 9.54438 13.9719C9.54438 13.7303 9.50528 13.5936 9.21159 13.5953C7.24313 13.6069 5.27411 13.6069 3.30454 13.5953C2.9809 13.5953 2.95927 13.7394 2.95012 13.9961C2.94014 14.2778 3.0433 14.3444 3.30953 14.3403C4.27629 14.3211 5.24472 14.3336 6.21647 14.3336ZM17.7394 14.3336C18.7236 14.3336 19.7078 14.3244 20.6921 14.3394C20.9575 14.3394 21.0615 14.2778 21.0515 13.9953C21.0423 13.7394 21.0215 13.5919 20.6971 13.5944C18.7286 13.6083 16.7596 13.6083 14.79 13.5944C14.4922 13.5944 14.4514 13.7236 14.4531 13.9703C14.4547 14.2169 14.4805 14.3469 14.7859 14.3403C15.7709 14.3169 16.7551 14.3336 17.7394 14.3336ZM6.26306 18.5836C5.26469 18.5836 4.2713 18.5953 3.27626 18.5761C2.96842 18.5703 2.95012 18.7128 2.94929 18.9503C2.94846 19.1878 2.9809 19.3278 3.28208 19.3253C5.25942 19.3125 7.23703 19.3125 9.21492 19.3253C9.52192 19.3253 9.53939 19.1786 9.54272 18.9428C9.54605 18.7069 9.50611 18.5703 9.20993 18.5761C8.22653 18.5928 7.24147 18.5836 6.26306 18.5836ZM17.7352 19.3186C18.717 19.3186 19.6987 19.3078 20.6804 19.3253C20.9799 19.3311 21.0482 19.2253 21.0531 18.9444C21.059 18.6469 20.9583 18.5753 20.6746 18.5769C18.7244 18.5886 16.7746 18.5886 14.825 18.5769C14.5338 18.5769 14.4489 18.6603 14.4506 18.9494C14.4522 19.2386 14.5412 19.3294 14.8308 19.3253C15.7984 19.3069 16.7668 19.3161 17.7352 19.3161V19.3186Z" fill="#3173F1"/>
</svg>
