<svg width="25" height="24" viewBox="0 0 25 24" fill="none" xmlns="http://www.w3.org/2000/svg">
<path d="M22.2173 4.65928C22.1288 4.58869 22.0254 4.53931 21.9149 4.51494C21.8044 4.49056 21.6897 4.49183 21.5798 4.51865L15.8423 5.95303L10.0954 3.0749H10.086L10.011 3.04678H9.99228L9.92666 3.02803H9.89853L9.83291 3.00928H9.57978L3.57978 4.50928C3.41463 4.54963 3.26809 4.6449 3.16418 4.77947C3.06028 4.91404 3.00518 5.07991 3.00791 5.2499V18.7499C3.00681 18.8642 3.03253 18.9772 3.08301 19.0798C3.13348 19.1823 3.2073 19.2717 3.29853 19.3405C3.42936 19.4438 3.59121 19.5 3.75791 19.4999L3.94541 19.4812L9.67353 18.0468L15.4204 20.9249H15.4298L15.4954 20.953H15.5048L15.5798 20.9812H15.9454L21.9454 19.4812C22.1072 19.4394 22.2505 19.3447 22.3524 19.2122C22.4543 19.0798 22.509 18.917 22.5079 18.7499V5.2499C22.509 5.13559 22.4833 5.02261 22.4328 4.92004C22.3823 4.81747 22.3085 4.72816 22.2173 4.65928ZM4.50791 5.83115L9.00791 4.70615V16.6687L4.50791 17.7937V5.83115ZM15.0079 19.0405L10.5079 16.7905V4.95928L15.0079 7.20928V19.0405ZM21.0079 18.1687L16.5079 19.2937V7.33115L21.0079 6.20615V18.1687Z" fill="#3173F1"/>
</svg>
