<svg width="24" height="24" viewBox="0 0 24 24" fill="none" xmlns="http://www.w3.org/2000/svg">
<g clip-path="url(#clip0_1_4825)">
<path d="M21.6897 12.9322C21.3055 12.9322 20.9212 12.9466 20.537 12.9322C20.2354 12.9178 20.1028 12.9811 20.0567 13.3346C19.902 14.6217 19.5005 15.8319 18.6571 16.8424C18.4496 17.0921 18.5082 17.2266 18.7138 17.4187C19.2584 17.9383 19.7877 18.4752 20.3141 19.0092C20.7666 19.4703 20.78 20.0005 20.3641 20.401C19.9626 20.7852 19.465 20.7622 19.0115 20.3146C18.464 19.7757 17.9193 19.234 17.3891 18.6817C17.2229 18.5079 17.1124 18.4896 16.9155 18.6395C15.8655 19.452 14.6436 19.8641 13.3516 20.0533C12.9779 20.1081 12.9203 20.2454 12.927 20.5624C12.9433 21.3788 12.9481 22.1952 12.927 23.0107C12.9059 23.7925 12.2421 24.2152 11.5677 23.8953C11.1662 23.7032 11.0644 23.344 11.0644 22.9348C11.0644 22.1347 11.0538 21.3346 11.0644 20.5336C11.0701 20.231 11.0106 20.1042 10.6619 20.0533C9.36889 19.8612 8.14603 19.4559 7.09416 18.6481C6.87514 18.48 6.76082 18.5127 6.58407 18.6961C6.0298 19.2724 5.46015 19.8343 4.88955 20.3952C4.4371 20.8419 3.92893 20.8755 3.53508 20.4913C3.14123 20.1071 3.15083 19.5481 3.59272 19.0957C4.15371 18.5261 4.7176 17.9575 5.29493 17.4042C5.4784 17.2275 5.5101 17.1161 5.33911 16.8952C4.49669 15.8398 3.94793 14.5807 3.74834 13.2453C3.70511 12.9571 3.57158 12.9216 3.33527 12.9235C2.55141 12.9302 1.76659 12.9408 0.982725 12.9235C0.214234 12.9024 -0.194988 12.2886 0.0797474 11.6105C0.248816 11.1937 0.598479 11.0669 1.00674 11.063C1.74353 11.0563 2.48032 11.0486 3.21615 11.063C3.54949 11.0707 3.71183 11.0169 3.76467 10.6174C3.93302 9.26157 4.47627 7.9796 5.33335 6.9156C5.53124 6.67163 5.47648 6.56021 5.28436 6.37772C4.77523 5.8917 4.27859 5.39224 3.78772 4.88798C3.32951 4.41734 3.3151 3.89579 3.73008 3.49814C4.11433 3.12739 4.64363 3.16485 5.09031 3.60475C5.60232 4.10998 6.11625 4.6152 6.61673 5.13291C6.77619 5.29715 6.87706 5.33173 7.08167 5.17517C8.13834 4.37315 9.35064 3.94381 10.6484 3.76516C11.0163 3.71521 11.0865 3.57306 11.0778 3.25033C11.0577 2.53092 11.0653 1.80958 11.073 1.09017C11.0749 0.3842 11.4198 0 12.0087 0C12.5975 0 12.9289 0.393805 12.9357 1.10169C12.9424 1.85376 12.9453 2.60583 12.9357 3.35791C12.9357 3.61244 13.0077 3.71233 13.2767 3.75363C14.5931 3.9566 15.8344 4.49771 16.879 5.32405C17.1105 5.50366 17.2296 5.4931 17.4246 5.28755C17.9654 4.71989 18.5274 4.17241 19.0846 3.62108C19.5466 3.16485 20.0903 3.12547 20.4813 3.51255C20.8723 3.89963 20.8406 4.44711 20.3852 4.90911C19.8348 5.46716 19.2853 6.02713 18.7176 6.56886C18.5255 6.75423 18.4765 6.8839 18.6446 7.12402C19.4188 8.20683 19.9096 9.46625 20.0721 10.7874C20.1076 11.0755 20.2719 11.063 20.4678 11.063C21.3161 11.063 22.1652 11.0477 23.0135 11.0688C23.782 11.088 24.1902 11.7037 23.9145 12.3837C23.7541 12.7785 23.4246 12.9158 23.0336 12.9274C22.586 12.9408 22.1374 12.9274 21.6888 12.9274L21.6897 12.9322ZM18.6254 11.8228C18.6254 8.14023 15.7041 5.18285 12.0509 5.17421C8.39771 5.16557 5.1883 8.24397 5.17677 11.7786C5.16716 15.3987 8.20943 18.4493 11.8261 18.4454C15.5629 18.4416 18.6235 15.464 18.6254 11.8228Z" fill="#3173F1"/>
<path d="M15.6709 11.8373C15.6637 12.5624 15.4418 13.2691 15.0331 13.8681C14.6245 14.4672 14.0475 14.9318 13.3749 15.2032C12.7024 15.4745 11.9646 15.5406 11.2545 15.393C10.5445 15.2453 9.89412 14.8907 9.38555 14.3737C8.87697 13.8568 8.533 13.2007 8.39707 12.4884C8.26114 11.7761 8.33934 11.0395 8.62179 10.3717C8.90425 9.70379 9.3783 9.13457 9.98408 8.7359C10.5899 8.33722 11.3002 8.12696 12.0254 8.13167C12.5084 8.13468 12.986 8.23302 13.4309 8.42106C13.8758 8.60909 14.2792 8.88312 14.6179 9.22741C14.9566 9.5717 15.224 9.97948 15.4047 10.4274C15.5854 10.8752 15.6759 11.3544 15.6709 11.8373Z" fill="#3173F1"/>
</g>
<defs>
<clipPath id="clip0_1_4825">
<rect width="24" height="24" fill="white"/>
</clipPath>
</defs>
</svg>
