<svg width="24" height="24" viewBox="0 0 24 24" fill="none" xmlns="http://www.w3.org/2000/svg">
<path d="M11.9998 21.1429C17.0493 21.1429 21.1426 17.0495 21.1426 12C21.1426 6.95057 17.0493 2.85718 11.9998 2.85718C6.95033 2.85718 2.85693 6.95057 2.85693 12C2.85693 17.0495 6.95033 21.1429 11.9998 21.1429Z" stroke="#3173F1" stroke-width="1.5" stroke-linecap="round" stroke-linejoin="round"/>
<path d="M11.9996 13.1429V12L13.6156 10.384C14.0443 9.95548 14.2852 9.3742 14.2853 8.76804V8.57146C14.2853 7.87089 13.8899 7.23089 13.2636 6.91775L13.0213 6.79661C12.704 6.63807 12.3542 6.55554 11.9996 6.55554C11.6449 6.55554 11.2951 6.63807 10.9779 6.79661L10.8567 6.85718C10.1562 7.20689 9.71387 7.92346 9.71387 8.70632V9.71432" stroke="#3173F1" stroke-width="1.5" stroke-linecap="round" stroke-linejoin="round"/>
<path d="M11.9998 17.7143C12.631 17.7143 13.1426 17.2026 13.1426 16.5714C13.1426 15.9403 12.631 15.4286 11.9998 15.4286C11.3686 15.4286 10.8569 15.9403 10.8569 16.5714C10.8569 17.2026 11.3686 17.7143 11.9998 17.7143Z" fill="#3173F1"/>
</svg>
