<svg width="25" height="24" viewBox="0 0 25 24" fill="none" xmlns="http://www.w3.org/2000/svg">
<path d="M2.75 16.9028C2.75 15.1953 2.75582 13.4861 2.75 11.7803C2.75 10.8828 3.16599 10.2803 3.97634 9.94275C5.02047 9.51359 5.513 8.73109 5.513 7.61609C5.513 5.85275 5.513 4.09025 5.513 2.32692C5.513 1.28442 6.10953 0.558588 7.1337 0.384421C7.96568 0.241921 8.79765 0.124421 9.63546 0.0110875C10.0132 -0.0405791 10.3751 0.105254 10.737 0.177754C12.2737 0.475254 13.797 0.411088 15.3129 0.0652542C15.8953 -0.0680791 16.4377 0.126088 16.9968 0.172754C17.4781 0.221743 17.9566 0.295731 18.4303 0.394421C19.3813 0.575254 19.9844 1.30109 19.9869 2.26692C19.9911 4.05775 19.9869 5.85025 19.9869 7.63942C19.9869 8.73525 20.4761 9.51109 21.5078 9.93192C22.3398 10.2711 22.7558 10.8886 22.7499 11.8028C22.7416 15.2044 22.7499 18.6053 22.7499 22.0069C22.7499 23.2044 21.972 23.9936 20.7823 23.9969C18.6059 24.0028 16.4302 23.9969 14.2538 23.9969C13.7795 23.9969 13.3453 23.8803 12.9817 23.5744C12.8153 23.4369 12.7179 23.4078 12.5391 23.5619C12.183 23.8753 11.7479 23.9969 11.2728 23.9969C9.08302 23.9969 6.89325 23.9969 4.70016 23.9928C3.53622 23.9919 2.75582 23.1953 2.75 22.0253C2.75 20.318 2.75 18.6105 2.75 16.9028ZM18.4253 12.6419C19.2981 12.6419 20.1725 12.6503 21.0436 12.6419C21.9146 12.6336 21.7774 12.8019 21.7923 11.8603C21.8007 11.4019 21.6417 11.0428 21.1966 10.8603C19.6558 10.2394 18.9936 9.06192 19.001 7.44359C19.0094 5.72275 19.0052 4.00275 19.001 2.28192C19.001 1.77442 18.7049 1.41359 18.2423 1.34109C17.6824 1.25775 17.1183 1.19109 16.5608 1.09109C16.2597 1.03609 16.1449 1.11359 16.1232 1.43109C16.0903 1.71969 16.0293 2.00437 15.941 2.28109C15.4169 4.22525 14.4809 5.97692 13.4151 7.66692C13.2927 7.85167 13.2291 8.06934 13.2329 8.29109C13.2421 9.34609 13.2329 10.4003 13.2388 11.4578C13.2388 12.0919 13.1556 11.9969 13.7945 11.9961C14.233 11.9961 14.6806 11.9861 14.9593 12.3911C15.1107 12.6128 15.2796 12.6503 15.5159 12.6486C16.486 12.6369 17.4561 12.6419 18.4253 12.6419ZM7.05133 12.6419C8.03473 12.6419 9.01813 12.6419 10.0015 12.6419C10.1355 12.6419 10.3144 12.7036 10.3926 12.5686C10.7403 11.9661 11.3077 11.9586 11.8901 12.0053C12.2229 12.0328 12.272 11.8944 12.2678 11.6028C12.252 10.5344 12.2537 9.46609 12.2678 8.39775C12.2721 8.10845 12.1889 7.82462 12.0291 7.58359C10.8135 5.60859 9.71366 3.58359 9.34343 1.25025C9.30766 1.02775 9.17038 1.07275 9.03976 1.09192C8.52061 1.16609 8.00145 1.24775 7.4823 1.32859C6.69691 1.44609 6.4939 1.68025 6.4939 2.46775C6.4939 4.14664 6.4939 5.82553 6.4939 7.50442C6.4939 9.08776 5.82832 10.2453 4.32078 10.8528C4.0196 10.9753 3.79497 11.1794 3.74421 11.5078C3.70511 11.7661 3.72758 12.0336 3.70262 12.2953C3.67682 12.5728 3.79164 12.6511 4.05953 12.6469C5.05625 12.6344 6.05379 12.6419 7.05133 12.6419ZM17.4927 23.0103C18.5742 23.0103 19.6558 23.0144 20.7316 23.0103C21.4595 23.0103 21.7848 22.6769 21.7923 21.9369C21.7965 21.5353 21.7707 21.1311 21.8007 20.7311C21.8264 20.3728 21.7241 20.2569 21.3464 20.2603C19.4079 20.2811 17.4702 20.2736 15.5317 20.2653C15.2771 20.2653 15.0966 20.3119 14.9435 20.5419C14.7771 20.7919 14.4917 20.8869 14.1905 20.9194C13.8894 20.9519 13.4567 20.7669 13.2895 21.0094C13.1389 21.2278 13.2462 21.6253 13.2404 21.9436V21.9853C13.2454 22.6711 13.5682 23.0053 14.2529 23.0094C15.3328 23.0144 16.4128 23.0103 17.4927 23.0103ZM7.95985 23.0103C8.85922 23.0103 9.76025 22.9853 10.6588 23.0169C11.9841 23.0628 12.3227 22.8661 12.2712 21.4061C12.2587 21.0069 12.1722 20.8694 11.772 20.9119C11.2437 20.9686 10.7412 20.9011 10.4317 20.3803C10.3618 20.2628 10.2503 20.2694 10.1396 20.2694C8.0913 20.2694 6.04214 20.2694 3.99381 20.2694C3.775 20.2694 3.70095 20.3528 3.70594 20.5628C3.7151 21.0069 3.70594 21.4503 3.70594 21.8961C3.70594 22.6903 4.02376 23.0119 4.80416 23.0144C5.85578 23.0128 6.90989 23.0103 7.95985 23.0103ZM7.0921 17.5936C8.03473 17.5936 8.97653 17.5861 9.92083 17.5936C10.1979 17.5978 10.4117 17.5653 10.5806 17.2986C10.6524 17.1952 10.7488 17.1113 10.8611 17.0546C10.9734 16.9978 11.098 16.97 11.2237 16.9736C11.4866 16.9678 11.7503 16.9628 12.0133 16.9536C12.1048 16.9536 12.2387 16.9719 12.2445 16.8411C12.257 16.5661 12.3019 16.2669 12.2154 16.0203C12.1505 15.8353 11.8643 15.9369 11.6813 15.9419C11.1821 15.9494 10.7054 15.9111 10.4225 15.4061C10.3535 15.2828 10.2278 15.3228 10.1238 15.3228C8.08631 15.3228 6.04713 15.3228 4.01294 15.3169C3.77833 15.3169 3.69596 15.3886 3.70262 15.6261C3.71593 16.1669 3.72009 16.7094 3.70262 17.2494C3.69263 17.5294 3.79413 17.6003 4.0612 17.5969C5.06873 17.5836 6.07792 17.5928 7.0921 17.5928V17.5936ZM18.4286 17.5936C19.4403 17.5936 20.452 17.5869 21.4629 17.5936C21.7125 17.5936 21.8065 17.5253 21.7957 17.2661C21.779 16.7528 21.7707 16.2378 21.7957 15.7261C21.814 15.3928 21.6992 15.3094 21.3797 15.3094C19.5227 15.3236 17.6657 15.3194 15.8096 15.3136C15.4385 15.3136 15.0799 15.2686 14.8428 15.6736C14.743 15.8403 14.51 15.9161 14.2929 15.9186C14.03 15.9186 13.7662 15.9261 13.5033 15.9361C13.4135 15.9361 13.2712 15.9044 13.2621 16.0319C13.2413 16.3069 13.1963 16.6028 13.2745 16.8544C13.3394 17.0619 13.619 16.9444 13.7987 16.9478C14.2496 16.9553 14.7055 16.9478 14.9884 17.3753C15.1066 17.5544 15.238 17.5911 15.4335 17.5903C16.4327 17.5886 17.4311 17.5928 18.4286 17.5928V17.5936ZM12.7562 6.89525C13.8153 5.13109 14.7421 3.38525 15.1531 1.40859C15.2014 1.17942 15.139 1.09359 14.8736 1.14275C13.5118 1.40241 12.1142 1.4106 10.7495 1.16692C10.3094 1.08859 10.2794 1.13025 10.3767 1.56942C10.6097 2.62942 11.0057 3.62942 11.4808 4.60109C11.8593 5.39092 12.2852 6.15705 12.7562 6.89525ZM12.7437 17.9253C12.356 17.9253 11.9675 17.9386 11.579 17.9203C11.3169 17.9078 11.2462 18.0128 11.2528 18.2594C11.2678 18.7169 11.2686 19.1761 11.2528 19.6319C11.2445 19.8769 11.3435 19.9403 11.5698 19.9378C12.3585 19.9283 13.1475 19.9283 13.9368 19.9378C14.1756 19.9378 14.2488 19.8544 14.2413 19.6211C14.228 19.1636 14.2247 18.7044 14.2413 18.2486C14.2513 17.9861 14.1498 17.9153 13.9027 17.9211C13.5191 17.9361 13.1314 17.9253 12.7437 17.9253ZM12.7279 14.9828C13.1439 14.9828 13.5599 14.9778 13.9709 14.9828C14.1631 14.9828 14.2446 14.9153 14.2413 14.7169C14.2341 14.2169 14.2341 13.7186 14.2413 13.2219C14.2413 13.0394 14.1631 12.9819 13.9917 12.9828C13.1597 12.9861 12.3305 12.9861 11.5041 12.9828C11.3377 12.9828 11.2545 13.0369 11.2545 13.2211C11.2611 13.7211 11.2611 14.2191 11.2545 14.7153C11.2545 14.9136 11.331 14.9861 11.5232 14.9828C11.9259 14.9778 12.3269 14.9828 12.7279 14.9828ZM6.96647 14.3336C7.96484 14.3336 8.96322 14.3211 9.96159 14.3411C10.2661 14.3469 10.2944 14.2136 10.2944 13.9719C10.2944 13.7303 10.2553 13.5936 9.96159 13.5953C7.99313 13.6069 6.02411 13.6069 4.05454 13.5953C3.7309 13.5953 3.70927 13.7394 3.70012 13.9961C3.69014 14.2778 3.7933 14.3444 4.05953 14.3403C5.02629 14.3211 5.99472 14.3336 6.96647 14.3336ZM18.4894 14.3336C19.4736 14.3336 20.4578 14.3244 21.4421 14.3394C21.7075 14.3394 21.8115 14.2778 21.8015 13.9953C21.7923 13.7394 21.7715 13.5919 21.4471 13.5944C19.4786 13.6083 17.5096 13.6083 15.54 13.5944C15.2422 13.5944 15.2014 13.7236 15.2031 13.9703C15.2047 14.2169 15.2305 14.3469 15.5359 14.3403C16.5209 14.3169 17.5051 14.3336 18.4894 14.3336ZM7.01306 18.5836C6.01469 18.5836 5.0213 18.5953 4.02626 18.5761C3.71842 18.5703 3.70012 18.7128 3.69929 18.9503C3.69846 19.1878 3.7309 19.3278 4.03208 19.3253C6.00942 19.3125 7.98703 19.3125 9.96492 19.3253C10.2719 19.3253 10.2894 19.1786 10.2927 18.9428C10.296 18.7069 10.2561 18.5703 9.95993 18.5761C8.97653 18.5928 7.99147 18.5836 7.01306 18.5836ZM18.4852 19.3186C19.467 19.3186 20.4487 19.3078 21.4304 19.3253C21.7299 19.3311 21.7982 19.2253 21.8031 18.9444C21.809 18.6469 21.7083 18.5753 21.4246 18.5769C19.4744 18.5886 17.5246 18.5886 15.575 18.5769C15.2838 18.5769 15.1989 18.6603 15.2006 18.9494C15.2022 19.2386 15.2912 19.3294 15.5808 19.3253C16.5484 19.3069 17.5168 19.3161 18.4852 19.3161V19.3186Z" fill="#3173F1"/>
</svg>
