<svg width="25" height="24" viewBox="0 0 25 24" fill="none" xmlns="http://www.w3.org/2000/svg">
<path d="M20.6598 9.6133L20.6611 9.60344C20.6821 9.44203 20.5974 9.30614 20.4442 9.17063C20.0456 8.82508 19.6473 8.47922 19.249 8.13337C18.2834 7.29482 17.3178 6.45633 16.3475 5.62235L16.3474 5.62233C16.1834 5.48118 16.0423 5.43103 15.9167 5.4419C15.7899 5.45288 15.6545 5.5281 15.5071 5.69048C15.3541 5.86025 15.2054 6.03312 15.0557 6.20713C14.9608 6.31743 14.8656 6.4282 14.7685 6.53894M20.6598 9.6133L20.5101 9.09538C20.1115 8.74989 19.7132 8.40404 19.3149 8.05816C18.3491 7.2195 17.3832 6.3807 16.4127 5.54652C16.0608 5.24381 15.7456 5.27893 15.4329 5.62345C15.2794 5.7938 15.1291 5.96856 14.9786 6.14348C14.8838 6.25363 14.789 6.36383 14.6933 6.47304C14.3439 6.87191 14.2164 6.88027 13.7994 6.53241C13.7194 6.46555 13.6392 6.39881 13.5589 6.33204C13.2548 6.07897 12.9503 5.8256 12.6521 5.56491C12.5129 5.44283 12.4178 5.41356 12.2777 5.56491M20.6598 9.6133L20.6605 9.62322C20.677 9.86261 20.5434 10.0091 20.3721 10.1685C20.1973 10.3296 20.0911 10.499 20.0587 10.6937C20.0267 10.8863 20.0694 11.0891 20.1627 11.3123C21.0514 13.4427 21.9235 15.5808 22.7957 17.7189C23.0975 18.459 23.3994 19.199 23.702 19.9387C23.7688 20.1021 23.8116 20.2298 23.8306 20.3337C23.8493 20.4365 23.8433 20.509 23.8198 20.5666C23.7964 20.6241 23.7505 20.679 23.6662 20.7374C23.5809 20.7965 23.4621 20.855 23.3011 20.9214L23.3007 20.9216C23.0633 21.0209 22.8243 21.1194 22.5853 21.2179C22.2853 21.3415 21.9852 21.4652 21.6878 21.5907C21.5268 21.6585 21.3951 21.6782 21.2874 21.6518C21.1836 21.6263 21.0844 21.5536 20.9959 21.3973C20.9063 21.237 20.7907 21.1373 20.6435 21.1064C20.5019 21.0768 20.3514 21.1156 20.2005 21.1836L20.2003 21.1837C18.9393 21.7546 17.6722 22.3146 16.404 22.8732C15.7721 23.1514 15.239 23.1551 14.8364 22.939C14.4333 22.7227 14.1356 22.2727 14.0044 21.5887C13.1844 17.3095 12.3575 13.0311 11.5237 8.75347C11.4969 8.61597 11.4783 8.47526 11.4599 8.33106C11.4585 8.32022 11.4571 8.30936 11.4557 8.29848C11.4388 8.16559 11.4215 8.02976 11.3977 7.89544C11.3461 7.60416 11.2627 7.31109 11.0775 7.04332L11.0774 7.04304C11.0699 7.03232 11.0682 7.02642 11.0678 7.02454M20.6598 9.6133L11.0878 6.85686C11.2603 6.66696 11.4354 6.47901 11.6108 6.29065C11.834 6.05101 12.0578 5.81072 12.2777 5.56491M14.7685 6.53894L14.6947 6.47429L14.7685 6.53893C14.7685 6.53893 14.7685 6.53893 14.7685 6.53894ZM14.7685 6.53894C14.6803 6.63966 14.6014 6.72128 14.5254 6.77909C14.4484 6.83767 14.3683 6.87656 14.2783 6.88253C14.1887 6.88847 14.1033 6.86078 14.0176 6.81356C13.9328 6.76682 13.8406 6.69696 13.7354 6.60919L13.7354 6.60917C13.6556 6.54256 13.5756 6.47599 13.4955 6.40933C13.1912 6.15615 12.8855 5.90178 12.5863 5.6402L12.5862 5.64011C12.5171 5.5795 12.481 5.56355 12.459 5.56218C12.4451 5.56132 12.4138 5.56532 12.3517 5.63224M12.3517 5.63224C12.3519 5.63202 12.3521 5.6318 12.3522 5.63159L12.2777 5.56491M12.3517 5.63224C12.3515 5.63244 12.3513 5.63264 12.3511 5.63284L12.2777 5.56491M12.3517 5.63224C12.1323 5.8774 11.9066 6.11975 11.6824 6.36055C11.5067 6.54914 11.332 6.73678 11.1619 6.92409L11.1614 6.92462C11.1479 6.93924 11.1311 6.95501 11.1178 6.96759C11.1133 6.97175 11.1093 6.97556 11.1059 6.97886C11.089 6.99505 11.0787 7.00642 11.0724 7.01591C11.0692 7.02074 11.0681 7.02346 11.0678 7.02454M11.0678 7.02454C11.0677 7.02367 11.0678 7.02365 11.0678 7.02439C11.0678 7.02523 11.0676 7.02534 11.0678 7.02454ZM2.60811 -0.0990008L2.60825 -0.099937L2.59446 -0.100046C1.82007 -0.106189 1.26131 0.263534 1.03058 0.892883L1.03049 0.893136C0.921891 1.19182 0.83532 1.4992 0.750383 1.80078C0.745433 1.81836 0.740489 1.83591 0.735546 1.85345L0.735543 1.85345L0.735342 1.85418C0.604977 2.3305 0.639383 2.76627 0.836041 3.12126C1.03276 3.47636 1.3844 3.73726 1.8625 3.87805L1.89075 3.78212L1.86219 3.87795C2.24578 3.99226 2.62903 4.11157 3.01289 4.23108C3.93785 4.51903 4.86636 4.8081 5.81181 5.03091C7.2102 5.36207 8.42493 5.95311 9.42689 6.98343L9.42688 6.98344L9.428 6.98456C9.62951 7.18534 9.84914 7.36699 10.0841 7.52718C10.1626 7.5814 10.229 7.65143 10.2791 7.73283C10.3293 7.81432 10.362 7.9054 10.3751 8.00028L10.375 8.00029L10.3759 8.00499C10.4891 8.60942 10.6074 9.21391 10.7255 9.81809C10.81 10.2501 10.8945 10.6819 10.9771 11.1134C11.657 14.6992 12.3429 18.2858 13.035 21.8732C13.2141 22.8023 13.7032 23.4841 14.3745 23.8353C15.0458 24.1865 15.8846 24.1994 16.7481 23.8197L16.7482 23.8197C17.8778 23.3218 19.0055 22.822 20.1312 22.3203C20.2154 22.283 20.2674 22.2608 20.3165 22.2577C20.3559 22.2552 20.4026 22.2649 20.4701 22.3234C20.6967 22.5218 20.9432 22.6369 21.2055 22.6709C21.4671 22.7048 21.7375 22.657 22.0116 22.5409C22.3755 22.3869 22.7412 22.2384 23.1076 22.0897C23.3057 22.0093 23.5041 21.9288 23.7024 21.8472L23.7026 21.8472C24.2401 21.6254 24.5982 21.3439 24.7569 20.9643C24.9155 20.5846 24.8637 20.1332 24.6442 19.5979C24.3252 18.8187 24.0067 18.0394 23.6882 17.26C22.8621 15.2385 22.0359 13.217 21.2012 11.1987C21.149 11.071 21.1357 10.9787 21.149 10.8984C21.1623 10.8176 21.2048 10.7353 21.2907 10.6319L21.2908 10.6318C21.5843 10.2779 21.723 9.88661 21.6968 9.50293C21.6707 9.11895 21.4804 8.75482 21.139 8.45422L21.139 8.45418C19.7506 7.23305 18.355 6.02083 16.9522 4.81754L16.9522 4.81752C16.6155 4.52886 16.2329 4.39889 15.8538 4.42778C15.476 4.45658 15.112 4.64235 14.8087 4.9664C14.6653 5.1059 14.5345 5.25786 14.4178 5.42049L14.4177 5.42042L14.415 5.4246C14.3127 5.58329 14.2424 5.61454 14.1913 5.61428C14.1616 5.61413 14.1238 5.60387 14.0732 5.57583C14.0225 5.54774 13.9648 5.50509 13.8964 5.44745C12.9964 4.68929 12.0851 3.9445 11.1746 3.20028C10.772 2.87119 10.3695 2.54222 9.96816 2.21224L9.96812 2.21221C9.75406 2.03641 9.50647 1.90625 9.24049 1.82971C8.54064 1.62463 7.84123 1.417 7.14148 1.20927C6.26239 0.948302 5.38276 0.687171 4.50104 0.43074L4.50101 0.430731C4.29806 0.371776 4.09885 0.307953 3.9013 0.244663C3.77684 0.204788 3.65303 0.165124 3.52938 0.127024C3.21283 0.0294926 2.90246 -0.0560331 2.60811 -0.0990008ZM11.5408 5.05263L11.5408 5.05266C11.216 5.37721 10.9042 5.71678 10.5916 6.05728C10.4897 6.16827 10.3877 6.27936 10.2851 6.39007C10.1598 6.28641 10.0348 6.18388 9.91036 6.08182C9.55103 5.78712 9.19642 5.49629 8.85356 5.19314L8.85319 5.19281C8.48672 4.87204 8.05167 4.63994 7.58158 4.51441C6.16085 4.10751 4.74336 3.68488 3.3255 3.26214C2.95519 3.15173 2.58485 3.04132 2.21443 2.93117L2.21435 2.93115C1.91438 2.84223 1.77309 2.75189 1.71229 2.63588C1.65057 2.5181 1.6545 2.34184 1.74191 2.02963L1.742 2.02928C1.75907 1.96747 1.77542 1.90656 1.79159 1.84631C1.84359 1.65258 1.89375 1.46568 1.95996 1.27772C2.02128 1.10684 2.10739 1.00138 2.20935 0.947281C2.31075 0.893475 2.44479 0.8815 2.62092 0.932224C4.75801 1.55228 6.8926 2.17819 9.02469 2.80995C9.15427 2.85926 9.27354 2.93247 9.37632 3.0258L9.3762 3.02593L9.38079 3.02962C9.65268 3.24878 9.92375 3.47037 10.1951 3.69218C10.6337 4.05074 11.073 4.40986 11.5176 4.76019C11.5652 4.79834 11.5973 4.82837 11.6178 4.85369C11.6378 4.8785 11.642 4.89306 11.6429 4.90085C11.6445 4.91611 11.6375 4.95608 11.5408 5.05263Z" fill="#3173F1" stroke="#3173F1" stroke-width="0.2"/>
<path d="M3.43957 13.8773L3.4396 13.8773C5.38243 13.9646 6.84404 12.2187 6.33819 10.324C5.95747 8.89769 5.14216 7.69118 4.22153 6.57907L4.2215 6.57903C4.02859 6.34622 3.77359 6.23541 3.5128 6.25032C3.25358 6.26515 3.00084 6.40331 2.80606 6.64427C1.98446 7.65822 1.27948 8.75769 0.837548 10.001L0.837536 10.001C0.152938 11.9293 1.41484 13.7856 3.43957 13.8773ZM5.32594 10.4215L5.32603 10.4218C5.74163 11.6944 4.87099 12.8829 3.53336 12.883C2.23797 12.8797 1.36594 11.7154 1.74778 10.4736L1.74783 10.4735C2.09755 9.3291 2.76504 8.36111 3.4769 7.40061L3.47703 7.40044C3.51652 7.34691 3.53793 7.3363 3.54414 7.33445C3.54679 7.33543 3.55398 7.33879 3.56628 7.34952C3.58278 7.36391 3.60246 7.38623 3.62667 7.41852C4.32424 8.35351 4.96608 9.30916 5.32594 10.4215ZM3.54607 7.33412C3.54607 7.33418 3.54565 7.33428 3.54483 7.33426C3.54567 7.33406 3.54608 7.33407 3.54607 7.33412Z" fill="#3173F1" stroke="#3173F1" stroke-width="0.2"/>
<path d="M16.4636 12.5607V12.4607C17.3197 12.4607 18.0658 12.9517 18.3517 13.7772C18.7823 15.02 19.2009 16.2673 19.6194 17.5141C19.8324 18.1485 20.0453 18.7829 20.2597 19.4165C20.3267 19.6134 20.3296 19.7867 20.2519 19.935C20.1758 20.0802 20.0327 20.1811 19.8537 20.2586L19.8534 20.2587C19.1669 20.5538 18.4814 20.8571 17.7953 21.1606C17.3146 21.3733 16.8337 21.5861 16.3519 21.7963L16.3515 21.7964C15.9488 21.9701 15.5842 21.9929 15.2974 21.8391C15.0099 21.685 14.83 21.3692 14.7614 20.9324M16.4636 12.5607L14.7614 20.9324M16.4636 12.5607L16.4629 12.4607C16.0353 12.4637 15.6108 12.5349 15.2055 12.6715C14.7578 12.8191 14.3773 13.1216 14.1318 13.5248C13.8865 13.928 13.7922 14.4055 13.8658 14.8719M16.4636 12.5607L13.8658 14.8719M14.7614 20.9324C14.5861 19.8179 14.4234 18.701 14.2608 17.5848C14.1991 17.161 14.1374 16.7373 14.075 16.3139C14.0325 16.0254 13.9908 15.7365 13.9492 15.4478C13.9214 15.2557 13.8937 15.0637 13.8658 14.8719M14.7614 20.9324L13.8658 14.8719M15.0284 15.8994C15.0081 15.7601 14.9827 15.6246 14.9575 15.4899C14.9011 15.189 14.8457 14.8929 14.8501 14.5707C15.5162 15.0188 15.958 15.5437 16.1767 16.2971L16.1767 16.2972C16.458 17.263 16.7949 18.2132 17.1307 19.1601C17.2212 19.4152 17.3115 19.6699 17.4007 19.9247C17.4477 20.059 17.4553 20.134 17.4382 20.1831C17.4237 20.2246 17.3805 20.2747 17.2389 20.3252C16.8808 20.4528 16.5349 20.6127 16.1927 20.7709C16.1195 20.8048 16.0464 20.8386 15.9735 20.8719L15.9732 20.8721C15.9217 20.8958 15.8835 20.9091 15.855 20.9144C15.8271 20.9195 15.8167 20.9156 15.814 20.9143C15.8123 20.9134 15.8035 20.9091 15.7921 20.8848C15.7801 20.8592 15.7686 20.8186 15.7596 20.7563L15.7596 20.7561C15.6434 19.9609 15.5219 19.1664 15.4005 18.3723L15.3936 18.3271C15.2698 17.5178 15.1463 16.7089 15.0284 15.8994ZM15.0284 15.8994L14.9317 15.9135L15.0284 15.8994ZM15.6757 13.9255C15.6758 13.9256 15.6759 13.9257 15.676 13.9257L15.6181 14.0073C16.3286 14.504 16.778 15.168 17.0273 16.0067C17.2495 16.7556 17.5049 17.4948 17.7602 18.2339C17.8718 18.5569 17.9833 18.8798 18.0921 19.2035C18.2165 19.5777 18.2778 19.7625 18.3969 19.8143C18.5174 19.8667 18.6971 19.7831 19.061 19.6216L15.6757 13.9255ZM15.6757 13.9255C16.4062 14.4364 16.8681 15.1201 17.1232 15.9782L17.1232 15.9782C17.3448 16.725 17.5989 17.4608 17.8539 18.1989C17.9656 18.5223 18.0775 18.8462 18.1869 19.1716L18.187 19.172C18.2503 19.3625 18.2949 19.4963 18.338 19.5895C18.3819 19.6845 18.4138 19.713 18.4377 19.723C18.4624 19.7334 18.5068 19.736 18.6082 19.7026C18.7009 19.672 18.8202 19.6191 18.9854 19.5458C18.9968 19.5407 19.0085 19.5355 19.0205 19.5302L19.0206 19.5301C19.1229 19.4849 19.1561 19.4512 19.1679 19.4258C19.179 19.4018 19.1831 19.3586 19.1489 19.2583C18.7925 18.2139 18.4395 17.168 18.0866 16.1221C17.8673 15.4723 17.648 14.8226 17.4279 14.1732L17.4279 14.1732C17.2916 13.771 17.0191 13.5224 16.6113 13.4831C16.1908 13.4471 15.7689 13.5188 15.3849 13.6904C15.4032 13.7058 15.4207 13.7206 15.4375 13.7348C15.5274 13.8108 15.5977 13.8702 15.6757 13.9255Z" fill="#3173F1" stroke="#3173F1" stroke-width="0.2"/>
<path d="M12.4449 10.0346V10.0227C12.4449 9.87877 12.4807 9.75032 12.5591 9.6514C12.6385 9.55138 12.7534 9.49191 12.891 9.4722L12.9051 9.57118L12.8907 9.47223C13.0247 9.45274 13.1461 9.48387 13.2421 9.55695C13.3368 9.62903 13.3997 9.73646 13.43 9.85906L12.4449 10.0346ZM12.4449 10.0346L12.4477 10.0462M12.4449 10.0346L12.4477 10.0462M12.4477 10.0462C12.4993 10.26 12.5504 10.4743 12.6015 10.6887C12.7492 11.3079 12.8973 11.9285 13.0585 12.545L13.0585 12.545M12.4477 10.0462L13.0585 12.545M13.0585 12.545C13.0932 12.6774 13.1731 12.7767 13.2842 12.8298C13.3933 12.8819 13.5219 12.8847 13.6491 12.8474M13.0585 12.545L13.6491 12.8474M13.6491 12.8474C13.7895 12.8075 13.8963 12.7289 13.9574 12.6172C14.0179 12.5065 14.0268 12.3757 13.9966 12.2432L13.6491 12.8474ZM13.9965 12.2432C13.8152 11.4471 13.6263 10.6524 13.43 9.85912L13.9965 12.2432Z" fill="#3173F1" stroke="#3173F1" stroke-width="0.2"/>
<path d="M13.0154 8.57101L13.0156 8.55622L13.0116 8.54199C12.988 8.45963 12.9647 8.36972 12.9402 8.27537C12.8896 8.08011 12.834 7.86588 12.7614 7.66036C12.7424 7.60437 12.7124 7.55271 12.6733 7.50836C12.6341 7.46383 12.5864 7.42756 12.533 7.40168C12.4796 7.3758 12.4215 7.36084 12.3623 7.35767C12.3046 7.35458 12.2468 7.36275 12.1922 7.3817C12.0698 7.4145 11.9642 7.47835 11.8955 7.57457C11.8249 7.67334 11.8005 7.79642 11.8257 7.93068L11.8257 7.93068L11.8259 7.93154C11.8854 8.23315 11.9627 8.53094 12.0575 8.82333C12.0733 8.87931 12.0999 8.93168 12.1358 8.97747C12.1722 9.02387 12.2174 9.06259 12.2688 9.09138C12.3202 9.12018 12.3768 9.13846 12.4353 9.14517C12.4926 9.15174 12.5507 9.14708 12.6062 9.13148C12.7332 9.10381 12.8383 9.04458 12.9107 8.94459C12.9822 8.84567 13.0131 8.71846 13.0154 8.57101Z" fill="#3173F1" stroke="#3173F1" stroke-width="0.2"/>
</svg>
