<svg width="25" height="24" viewBox="0 0 25 24" fill="none" xmlns="http://www.w3.org/2000/svg">
<g clip-path="url(#clip0_1_3080)">
<path d="M1.87992 21.8953L1.88017 21.8953C1.87006 21.8472 1.84721 21.8021 1.8135 21.7644C1.77977 21.7268 1.73627 21.6979 1.68702 21.6809L1.68077 21.6787L1.68085 21.6785C1.35449 21.541 1.09712 21.347 0.920777 21.0959C0.744157 20.8444 0.653136 20.5418 0.649962 20.1946C0.646784 19.847 0.734171 19.5418 0.908398 19.2876C1.08233 19.0339 1.33865 18.8371 1.66402 18.699C1.74828 18.6625 1.78916 18.6259 1.81323 18.5879C1.83873 18.5476 1.85319 18.4937 1.8622 18.4065L1.8622 18.4064C2.17622 15.3793 4.47817 13.0034 7.5934 12.567C8.96688 12.3622 10.3667 12.3906 11.7301 12.6511L11.731 12.6512C11.7918 12.6635 11.8355 12.6694 11.8674 12.6695C11.8995 12.6696 11.908 12.6637 11.9081 12.6636L11.9084 12.6633C11.9085 12.6632 11.9088 12.6629 11.9091 12.6624C11.9094 12.6621 11.9096 12.6617 11.9099 12.6612C11.9116 12.6583 11.9146 12.652 11.9174 12.64C11.9233 12.6146 11.9259 12.5743 11.9224 12.5114L11.9224 12.5114C11.838 10.9724 11.7645 9.4328 11.7019 7.89267M1.87992 21.8953L11.8018 7.88861M1.87992 21.8953L1.88191 21.9023C2.08782 22.6205 2.44511 23.1714 2.95028 23.5419C3.45515 23.9123 4.0987 24.0958 4.86565 24.0958H4.88264H4.89964H4.91664H4.93364H4.95064H4.96764H4.98464H5.00163H5.01863H5.03563H5.05263H5.06963H5.08663H5.10362H5.12062H5.13762H5.15462H5.17162H5.18861H5.20561H5.22261H5.23961H5.2566H5.2736H5.2906H5.3076H5.32459H5.34159H5.35859H5.37559H5.39259H5.40958H5.42658H5.44358H5.46057H5.47757H5.49457H5.51157H5.52856H5.54556H5.56256H5.57955H5.59655H5.61355H5.63055H5.64754H5.66454H5.68154H5.69853H5.71553H5.73253H5.74952H5.76652H5.78352H5.80051H5.81751H5.83451H5.8515H5.8685H5.88549H5.90249H5.91949H5.93648H5.95348H5.97048H5.98747H6.00447H6.02146H6.03846H6.05546H6.07245H6.08945H6.10644H6.12344H6.14043H6.15743H6.17443H6.19142H6.20842H6.22541H6.24241H6.2594H6.2764H6.29339H6.31039H6.32738H6.34438H6.36138H6.37837H6.39537H6.41236H6.42936H6.44635H6.46335H6.48034H6.49734H6.51433H6.53133H6.54832H6.56531H6.58231H6.5993H6.6163H6.63329H6.65029H6.66728H6.68428H6.70127H6.71827H6.73526H6.75225H6.76925H6.78624H6.80324H6.82023H6.83723H6.85422H6.87121H6.88821H6.9052H6.9222H6.93919H6.95618H6.97318H6.99017H7.00716H7.02416H7.04115H7.05815H7.07514H7.09213H7.10913H7.12612H7.14311H7.16011H7.1771H7.19409H7.21109H7.22808H7.24507H7.26207H7.27906H7.29605H7.31304H7.33004H7.34703H7.36402H7.38102H7.39801H7.415H7.43199H7.44899H7.46598H7.48297H7.49996H7.51696H7.53395H7.55094H7.56793H7.58493H7.60192H7.61891H7.6359H7.6529H7.66989H7.68688H7.70387H7.72086H7.73786H7.75485H7.77184H7.78883H7.80582H7.82282H7.83981H7.8568H7.87379H7.89078H7.90777H7.92477H7.94176H7.95875H7.97574H7.99273H8.00972H8.02671H8.04371H8.0607H8.07769H8.09468H8.11167H8.12866H8.14565H8.16264H8.17964H8.19663H8.21362H8.23061H8.2476H8.26459H8.28158H8.29857H8.31556H8.33255H8.34954H8.36653H8.38352H8.40051H8.41751H8.4345H8.45149H8.46848H8.48547H8.50246H8.51945H8.53644H8.55343H8.57042H8.58741H8.6044H8.62139H8.63838H8.65537H8.67236H8.68935H8.70634H8.72333H8.74032H8.75731H8.77429H8.79128H8.80827H8.82526H8.84225H8.85924H8.87623H8.89322H8.91021H8.9272H8.94419H8.96118H8.97817H8.99516H9.01215H9.02913H9.04612H9.06311H9.0801H9.09709H9.11408H9.13107H9.14806H9.16505H9.18203H9.19902H9.21601H9.233H9.24999H9.26698H9.28397H9.30095H9.31794H9.33493H9.35192H9.36891H9.38589H9.40288H9.41987H9.43686H9.45385H9.47084H9.48782H9.50481H9.5218H9.53879H9.55577H9.57276H9.58975H9.60674H9.62373H9.64071H9.6577H9.67469H9.69168H9.70866H9.72565H9.74264H9.75963H9.77661H9.7936H9.81059H9.82757H9.84456H9.86155H9.87854H9.89552H9.91251H9.9295H9.94648H9.96347H9.98046H9.99744H10.0144H10.0314H10.0484H10.0654H10.0824H10.0994H10.1164H10.1333H10.1503H10.1673H10.1843H10.2013H10.2183H10.2353H10.2522H10.2692H10.2862H10.3032H10.3202H10.3372H10.3542H10.3711H10.3881H10.4051H10.4221H10.4391H10.4561H10.4731H10.49H10.507H10.524H10.541H10.558H10.575H10.592H10.6089H10.6259H10.6429H10.6599H10.6769H10.6939H10.7109H10.7278H10.7448H10.7618H10.7788H10.7958H10.8128H10.8297H10.8467H10.8637H10.8807H10.8977H10.9147H10.9317H10.9486H10.9656H10.9826H10.9996H11.0166H11.0336H11.0505H11.0675H11.0845H11.1015H11.1185H11.1355H11.1525H11.1694H11.1864H11.2034H11.2204H11.2374H11.2544H11.2713H11.2883H11.3053H11.3223H11.3393H11.3563H11.3732H11.3902H11.4072H11.4242H11.4412H11.4582H11.4751H11.4921H11.5091H11.5261H11.5431H11.5601H11.577H11.594H11.611H11.628H11.645H11.662H11.6789H11.6959H11.7129H11.7299H11.7469H11.7639H11.7808H11.7978H11.8148H11.8318H11.8488H11.8657H11.8827H11.8997H11.9167H11.9337H11.9507H11.9676H11.9846H12.0016H12.0186H12.0356H12.0526H12.0695H12.0865H12.1035H12.1205H12.1375H12.1544H12.1714H12.1884H12.2054H12.2224H12.2394H12.2563H12.2733H12.2903H12.3073H12.3243H12.3412H12.3582H12.3752H12.3922H12.4092H12.4261H12.4431H12.4601H12.4771H12.4941H12.5111H12.528H12.545H12.562H12.579H12.596H12.6129H12.6299H12.6469H12.6639H12.6809H12.6978H12.7148H12.7318H12.7488H12.7658H12.7827H12.7997H12.8167H12.8337H12.8507H12.8676H12.8846H12.9016H12.9186H12.9356H12.9525H12.9695H12.9865H13.0035H13.0205H13.0374H13.0544H13.0714H13.0884H13.1054H13.1223H13.1393H13.1563H13.1733H13.1903H13.2072H13.2242H13.2412H13.2582H13.2752H13.2921H13.3091H13.3261H13.3431H13.36H13.377H13.394H13.411H13.428H13.4449H13.4619H13.4789H13.4959H13.5129H13.5298H13.5468H13.5638C14.216 24.0958 14.8681 24.0956 15.5203 24.0955C17.8675 24.0947 20.2144 24.094 22.563 24.1025H22.5632C22.7691 24.1029 22.95 24.0739 23.0816 23.9695C23.2176 23.8615 23.2784 23.6917 23.2885 23.4661C23.3477 22.1382 23.4156 20.8115 23.4836 19.4845C23.5263 18.6493 23.5691 17.814 23.6097 16.9781C23.7584 13.9695 23.8999 10.9608 24.0343 7.95216C24.0416 7.83127 24.0605 7.77648 24.0857 7.7488C24.1063 7.72615 24.1506 7.70181 24.2749 7.70599C24.4658 7.71468 24.6198 7.66414 24.7228 7.54759C24.8232 7.43406 24.8587 7.27603 24.856 7.10457M1.87992 21.8953L11.1567 5.32075C10.7657 5.31408 10.5659 5.45994 10.584 5.86083M11.7019 7.89267L11.8018 7.88861M11.7019 7.89267C11.7019 7.8927 11.7019 7.89274 11.7019 7.89277L11.8018 7.88861M11.7019 7.89267C11.6974 7.78694 11.6745 7.75002 11.6572 7.73524C11.6388 7.71963 11.5988 7.70456 11.4996 7.71242L11.4917 7.61279L11.5004 7.71236C11.4373 7.71785 11.369 7.71592 11.3085 7.71421C11.2815 7.71345 11.2561 7.71274 11.2334 7.71274H11.2319V7.71272C11.0902 7.71063 10.9718 7.704 10.8752 7.685C10.778 7.66586 10.6937 7.63246 10.6287 7.56981C10.5633 7.50667 10.5284 7.42443 10.509 7.32947C10.49 7.23588 10.4845 7.12168 10.484 6.9863L10.484 6.98598C10.484 6.8583 10.4856 6.73196 10.4871 6.60634C10.4902 6.35799 10.4932 6.11245 10.4841 5.86488M11.8018 7.88861C11.7923 7.66108 11.7019 7.59607 11.4917 7.61274C11.4343 7.61774 11.3769 7.61607 11.3195 7.6144C11.2908 7.61357 11.2621 7.61274 11.2334 7.61274C10.6702 7.6044 10.5858 7.52356 10.584 6.98598C10.584 6.86096 10.5856 6.73595 10.5871 6.61093C10.5902 6.3609 10.5932 6.11086 10.584 5.86083M10.4841 5.86488C10.4841 5.86503 10.4841 5.86518 10.4841 5.86533L10.584 5.86083M10.4841 5.86488C10.4841 5.86476 10.4841 5.86463 10.4841 5.8645L10.584 5.86083M10.4841 5.86488C10.4745 5.64925 10.5225 5.47694 10.6506 5.36318C10.7753 5.25244 10.9542 5.21728 11.1584 5.22077L11.1585 5.22077C11.3836 5.22479 11.6134 5.22286 11.8446 5.22092C12.1764 5.21813 12.5112 5.21532 12.8397 5.23002L12.84 5.23003C12.9204 5.23387 12.9783 5.23177 13.0195 5.22408C13.0604 5.21647 13.0747 5.20527 13.0801 5.19921C13.0849 5.19386 13.0938 5.18036 13.0951 5.14204C13.0964 5.10255 13.0894 5.04683 13.0711 4.96835L13.0711 4.96834C12.9072 4.26293 12.7519 3.55602 12.5967 2.84986L12.5849 2.79613C12.4258 2.07189 12.2666 1.34846 12.098 0.627022L12.098 0.626993C12.0611 0.468908 12.0512 0.314982 12.1053 0.186299C12.1627 0.0498048 12.2821 -0.0367814 12.4535 -0.0765619C12.6329 -0.118217 12.7768 -0.0742167 12.8806 0.0296825C12.9776 0.126859 13.0295 0.266499 13.0578 0.400517M13.0578 0.400517C13.0578 0.400349 13.0577 0.400181 13.0577 0.400013L12.9601 0.421735L13.0579 0.401116C13.0579 0.400916 13.0579 0.400717 13.0578 0.400517ZM13.0578 0.400517C13.1438 0.786992 13.2308 1.17349 13.3177 1.56012C13.5623 2.64716 13.807 3.73529 14.0321 4.82717L14.0321 4.8272C14.0699 5.0112 14.1194 5.10465 14.1876 5.15753C14.2571 5.21141 14.3668 5.23948 14.5673 5.23826M14.5673 5.23826C14.5673 5.23826 14.5673 5.23826 14.5673 5.23826L14.568 5.33825L14.5673 5.23826ZM14.5673 5.23826C16.9852 5.22229 19.4037 5.22394 21.823 5.22558C22.5623 5.22608 23.3017 5.22658 24.0412 5.22658C24.2024 5.22658 24.335 5.23061 24.441 5.24818C24.5476 5.26585 24.6397 5.29904 24.7093 5.36699C24.7793 5.43521 24.8138 5.52591 24.8324 5.63091C24.8508 5.73498 24.8553 5.86486 24.856 6.0221L24.856 6.02252C24.856 6.14381 24.8554 6.26468 24.8548 6.38529C24.8537 6.62557 24.8525 6.86486 24.856 7.10457M24.856 7.10457L24.756 7.106L24.856 7.10438C24.856 7.10444 24.856 7.1045 24.856 7.10457ZM22.3161 22.8668L22.3162 22.8647C22.4242 20.7861 22.5292 18.7076 22.6314 16.6291C22.678 15.6719 22.7234 14.7144 22.7688 13.7569C22.8595 11.8452 22.9501 9.93321 23.05 8.02173C23.0583 7.86329 23.0395 7.80449 23.0144 7.77756C22.9899 7.75119 22.9319 7.7265 22.7661 7.7269C19.4933 7.73857 16.2225 7.73857 12.9537 7.7269L12.9541 7.6269M22.3161 22.8668L12.7629 12.0734M22.3161 22.8668C22.3154 22.8902 22.3157 22.9137 22.3159 22.9351L22.3159 22.9383C22.3162 22.959 22.3164 22.9777 22.316 22.9959C22.3151 23.0349 22.3114 23.0615 22.3042 23.0804C22.2984 23.0957 22.2904 23.1059 22.2748 23.1145C22.2561 23.1247 22.2201 23.1357 22.1528 23.1357C20.8318 23.133 19.5104 23.1339 18.1625 23.1348C17.545 23.1352 16.922 23.1356 16.2909 23.1357M22.3161 22.8668L16.2909 23.1357M12.9541 7.6269V7.7269C12.8046 7.7269 12.7419 7.74803 12.7129 7.77505C12.6879 7.79824 12.664 7.84956 12.6724 7.99281C12.69 8.29098 12.7092 8.58965 12.7284 8.88866C12.7965 9.94793 12.8649 11.0116 12.8629 12.0735M12.9541 7.6269C16.2226 7.63857 19.4932 7.63857 22.7657 7.6269C23.0956 7.62607 23.1662 7.71442 23.1498 8.02696C23.05 9.93817 22.9594 11.8498 22.8687 13.7612C22.8233 14.7189 22.7779 15.6765 22.7313 16.634C22.6291 18.7126 22.524 20.7912 22.4161 22.8699L12.5725 7.99862C12.5553 7.70275 12.6552 7.6269 12.9541 7.6269ZM12.8629 12.0735L12.7629 12.0734M12.8629 12.0735C12.8629 12.0735 12.8629 12.0734 12.8629 12.0734H12.7629M12.8629 12.0735C12.8629 12.4358 12.9143 12.7179 13.0448 12.9396C13.1737 13.1588 13.3874 13.3312 13.7377 13.4597L13.7379 13.4597C13.7671 13.4705 13.7921 13.4802 13.8146 13.4889C13.8451 13.5007 13.8712 13.5108 13.8978 13.5197C13.9418 13.5345 13.9676 13.5388 13.9853 13.5376C14.0038 13.5364 14.0435 13.5293 14.1134 13.3896L14.1134 13.3896C14.8023 12.015 16.6295 11.0613 18.3657 11.3774L18.3657 11.3774C19.2728 11.5428 20.0962 12 20.7021 12.6754C21.3081 13.3509 21.661 14.2052 21.703 15.0999L21.703 15.1003C21.7792 16.8813 20.4732 18.5685 18.7056 19.0162M12.7629 12.0734C12.7629 12.8135 12.9713 13.2852 13.7033 13.5536C13.7287 13.5629 13.7526 13.5721 13.7752 13.5809C13.974 13.6577 14.0721 13.6956 14.2028 13.4344C14.8711 12.1009 16.6538 11.1674 18.3478 11.4758C19.2335 11.6373 20.0368 12.0836 20.6277 12.7422C21.2185 13.4008 21.5622 14.2333 21.6031 15.1046C21.6772 16.8357 20.4052 18.4826 18.6811 18.9193C18.5264 18.9586 18.3678 18.9712 18.2094 18.9837C18.0149 18.9992 17.8208 19.0146 17.6347 19.0793M18.7056 19.0162C18.7056 19.0162 18.7057 19.0162 18.7057 19.0162L18.6814 18.9206L18.7056 19.0162ZM18.7056 19.0162C18.5422 19.0577 18.3749 19.071 18.2177 19.0834C18.1994 19.0848 18.1814 19.0863 18.1634 19.0877C18.0221 19.0993 17.8888 19.1128 17.7613 19.1456M17.7613 19.1456C17.7578 19.1404 17.7543 19.1351 17.7507 19.1299C17.7425 19.1091 17.7368 19.0875 17.7337 19.0655L17.6347 19.0793M17.7613 19.1456C18.1047 19.6567 18.2348 20.1369 18.12 20.5746C18.0037 21.0183 17.643 21.3894 17.0709 21.6922L17.0606 21.6977L17.0604 21.697C17.0224 21.7118 16.9891 21.7354 16.9635 21.7654C16.9384 21.7947 16.9213 21.8291 16.9133 21.8657C16.8427 22.3392 16.5996 22.729 16.2909 23.1357M17.7613 19.1456C17.7356 19.1522 17.7102 19.1596 17.685 19.1679L17.6623 19.1777M17.6347 19.0793L17.6676 19.1738C17.6678 19.1737 17.6681 19.1736 17.6684 19.1735M17.6347 19.0793C17.6394 19.1131 17.6487 19.1462 17.6623 19.1777M17.6684 19.1735L16.165 23.1357C16.4947 22.7079 16.7453 22.32 16.8148 21.848C16.826 21.7937 16.851 21.7429 16.8875 21.7003C16.9241 21.6577 16.971 21.6245 17.0241 21.6038C18.1437 21.0113 18.3564 20.1928 17.6623 19.1777M17.6684 19.1735L17.6623 19.1777M17.6684 19.1735L16.2909 23.1357M17.6417 18.2517L17.6426 18.1659C17.8386 18.1679 18.0345 18.1571 18.2291 18.1337C18.9227 18.001 19.5477 17.6422 20 17.1179C20.4531 16.5928 20.7056 15.9336 20.716 15.2506C20.7333 13.9161 19.7298 12.6668 18.3912 12.3643L18.3911 12.3642C17.7089 12.2094 16.9926 12.284 16.3602 12.5756C15.728 12.8671 15.2178 13.358 14.9132 13.9667C14.8636 14.0663 14.844 14.1333 14.849 14.1907C14.8535 14.2438 14.8811 14.3068 14.9713 14.3924C14.9715 14.3925 14.9716 14.3926 14.9717 14.3927L14.903 14.4654C15.8525 15.3455 16.4909 16.4932 16.727 17.745L17.6417 18.2517ZM17.6417 18.2517H17.6416V18.1525C17.5552 18.1525 17.4706 18.1525 17.3879 18.1501L17.3879 18.1499L17.3818 18.1501C17.2042 18.1557 17.0865 18.1329 17.0049 18.0761C16.9262 18.0213 16.8623 17.9213 16.8252 17.7264L17.6417 18.2517ZM17.6495 6.17752H17.6493C17.1584 6.17752 16.6674 6.17783 16.1763 6.17815C14.703 6.17909 13.2294 6.18002 11.7559 6.17252C11.6879 6.17253 11.6355 6.17498 11.594 6.182C11.5529 6.18894 11.5288 6.19939 11.5132 6.21097C11.4865 6.23085 11.4558 6.27699 11.4504 6.42688C11.4442 6.60623 11.479 6.66643 11.5145 6.69342C11.5351 6.70907 11.5667 6.72235 11.6182 6.73068C11.67 6.73904 11.7351 6.74137 11.8175 6.74014L11.8187 6.74012L17.6495 6.17752ZM17.6495 6.17752C19.5705 6.1753 21.492 6.17474 23.4142 6.17586L23.4142 6.07622L23.4139 6.17586C23.4608 6.17601 23.5123 6.17236 23.5584 6.1691C23.5793 6.16762 23.5992 6.16622 23.6169 6.16529C23.6803 6.16197 23.728 6.1635 23.7648 6.17412C23.7968 6.18336 23.8196 6.19907 23.8375 6.2307C23.8579 6.26666 23.8757 6.3306 23.8757 6.44341L23.8757 6.44378M17.6495 6.17752L23.8757 6.44378M23.8757 6.44378C23.8761 6.55266 23.8608 6.61716 23.8419 6.65518C23.825 6.68901 23.8039 6.70537 23.7762 6.71567C23.7438 6.72773 23.6998 6.73222 23.6382 6.73171C23.6104 6.73148 23.5813 6.73031 23.5497 6.72903L23.5417 6.72871C23.5075 6.72735 23.4708 6.72596 23.4333 6.72596L23.8757 6.44378ZM15.6984 18.5601H15.7108C15.7746 18.5601 15.8228 18.5597 15.8614 18.5551C15.9003 18.5505 15.9166 18.5428 15.9234 18.5376C15.9279 18.5342 15.9578 18.5103 15.9332 18.3478C15.585 16.089 14.3009 14.5614 12.1153 13.7591C10.6937 13.238 9.19253 13.3404 7.69961 13.5145C5.24296 13.8109 3.16834 15.8859 2.85398 18.2581L15.6984 18.5601ZM15.6984 18.5601H15.6861M15.6984 18.5601H15.6861M15.6861 18.5601H15.6737M15.6861 18.5601H15.6737M15.6737 18.5601H15.6614M15.6737 18.5601H15.6614M15.6614 18.5601H15.649M15.6614 18.5601H15.649M15.649 18.5601H15.6367M15.649 18.5601H15.6367M15.6367 18.5601H15.6243M15.6367 18.5601H15.6243M15.6243 18.5601H15.6119M15.6243 18.5601H15.6119M15.6119 18.5601H15.5996M15.6119 18.5601H15.5996M15.5996 18.5601H15.5872M15.5996 18.5601H15.5872M15.5872 18.5601H15.5749M15.5872 18.5601H15.5749M15.5749 18.5601H15.5625M15.5749 18.5601H15.5625M15.5625 18.5601H15.5502M15.5625 18.5601H15.5502M15.5502 18.5601H15.5378M15.5502 18.5601H15.5378M15.5378 18.5601H15.5255M15.5378 18.5601H15.5255M15.5255 18.5601H15.5131M15.5255 18.5601H15.5131M15.5131 18.5601H15.5008M15.5131 18.5601H15.5008M15.5008 18.5601H15.4884M15.5008 18.5601H15.4884M15.4884 18.5601H15.4761M15.4884 18.5601H15.4761M15.4761 18.5601H15.4637M15.4761 18.5601H15.4637M15.4637 18.5601H15.4514M15.4637 18.5601H15.4514M15.4514 18.5601H15.439M15.4514 18.5601H15.439M15.439 18.5601H15.4267M15.439 18.5601H15.4267M15.4267 18.5601H15.4143M15.4267 18.5601H15.4143M15.4143 18.5601H15.4019M15.4143 18.5601H15.4019M15.4019 18.5601H15.3896M15.4019 18.5601H15.3896M15.3896 18.5601H15.3772M15.3896 18.5601H15.3772M15.3772 18.5601H15.3649M15.3772 18.5601H15.3649M15.3649 18.5601H15.3525M15.3649 18.5601H15.3525M15.3525 18.5601H15.3402M15.3525 18.5601H15.3402M15.3402 18.5601H15.3278M15.3402 18.5601H15.3278M15.3278 18.5601H15.3155M15.3278 18.5601H15.3155M15.3155 18.5601H15.3031M15.3155 18.5601H15.3031M15.3031 18.5601H15.2908M15.3031 18.5601H15.2908M15.2908 18.5601H15.2784M15.2908 18.5601H15.2784M15.2784 18.5601H15.2661M15.2784 18.5601H15.2661M15.2661 18.5601H15.2537M15.2661 18.5601H15.2537M15.2537 18.5601H15.2414M15.2537 18.5601H15.2414M15.2414 18.5601H15.229M15.2414 18.5601H15.229M15.229 18.5601H15.2166M15.229 18.5601H15.2166M15.2166 18.5601H15.2043M15.2166 18.5601H15.2043M15.2043 18.5601H15.1919M15.2043 18.5601H15.1919M15.1919 18.5601H15.1796M15.1919 18.5601H15.1796M15.1796 18.5601H15.1672M15.1796 18.5601H15.1672M15.1672 18.5601H15.1549M15.1672 18.5601H15.1549M15.1549 18.5601H15.1425M15.1549 18.5601H15.1425M15.1425 18.5601H15.1302M15.1425 18.5601H15.1302M15.1302 18.5601H15.1178M15.1302 18.5601H15.1178M15.1178 18.5601H15.1055M15.1178 18.5601H15.1055M15.1055 18.5601H15.0931M15.1055 18.5601H15.0931M15.0931 18.5601H15.0808M15.0931 18.5601H15.0808M15.0808 18.5601H15.0684M15.0808 18.5601H15.0684M15.0684 18.5601H15.0561M15.0684 18.5601H15.0561M15.0561 18.5601H15.0437M15.0561 18.5601H15.0437M15.0437 18.5601H15.0313M15.0437 18.5601H15.0313M15.0313 18.5601H15.019M15.0313 18.5601H15.019M15.019 18.5601H15.0066M15.019 18.5601H15.0066M15.0066 18.5601H14.9943M15.0066 18.5601H14.9943M14.9943 18.5601H14.9819M14.9943 18.5601H14.9819M14.9819 18.5601H14.9696M14.9819 18.5601H14.9696M14.9696 18.5601H14.9572M14.9696 18.5601H14.9572M14.9572 18.5601H14.9449M14.9572 18.5601H14.9449M14.9449 18.5601H14.9325M14.9449 18.5601H14.9325M14.9325 18.5601H14.9202M14.9325 18.5601H14.9202M14.9202 18.5601H14.9078M14.9202 18.5601H14.9078M14.9078 18.5601H14.8955M14.9078 18.5601H14.8955M14.8955 18.5601H14.8831M14.8955 18.5601H14.8831M14.8831 18.5601H14.8707M14.8831 18.5601H14.8707M14.8707 18.5601H14.8584M14.8707 18.5601H14.8584M14.8584 18.5601H14.846M14.8584 18.5601H14.846M14.846 18.5601H14.8337M14.846 18.5601H14.8337M14.8337 18.5601H14.8213M14.8337 18.5601H14.8213M14.8213 18.5601H14.809M14.8213 18.5601H14.809M14.809 18.5601H14.7966M14.809 18.5601H14.7966M14.7966 18.5601H14.7843M14.7966 18.5601H14.7843M14.7843 18.5601H14.7719M14.7843 18.5601H14.7719M14.7719 18.5601H14.7596M14.7719 18.5601H14.7596M14.7596 18.5601H14.7472M14.7596 18.5601H14.7472M14.7472 18.5601H14.7349M14.7472 18.5601H14.7349M14.7349 18.5601H14.7225M14.7349 18.5601H14.7225M14.7225 18.5601H14.7101M14.7225 18.5601H14.7101M14.7101 18.5601H14.6978M14.7101 18.5601H14.6978M14.6978 18.5601H14.6854M14.6978 18.5601H14.6854M14.6854 18.5601H14.6731M14.6854 18.5601H14.6731M14.6731 18.5601H14.6607M14.6731 18.5601H14.6607M14.6607 18.5601H14.6484M14.6607 18.5601H14.6484M14.6484 18.5601H14.636M14.6484 18.5601H14.636M14.636 18.5601H14.6237M14.636 18.5601H14.6237M14.6237 18.5601H14.6113M14.6237 18.5601H14.6113M14.6113 18.5601H14.599M14.6113 18.5601H14.599M14.599 18.5601H14.5866M14.599 18.5601H14.5866M14.5866 18.5601H14.5743M14.5866 18.5601H14.5743M14.5743 18.5601H14.5619M14.5743 18.5601H14.5619M14.5619 18.5601H14.5495M14.5619 18.5601H14.5495M14.5495 18.5601H14.5372M14.5495 18.5601H14.5372M14.5372 18.5601H14.5248M14.5372 18.5601H14.5248M14.5248 18.5601H14.5125M14.5248 18.5601H14.5125M14.5125 18.5601H14.5001M14.5125 18.5601H14.5001M14.5001 18.5601H14.4878M14.5001 18.5601H14.4878M14.4878 18.5601H14.4754M14.4878 18.5601H14.4754M14.4754 18.5601H14.4631M14.4754 18.5601H14.4631M14.4631 18.5601H14.4507M14.4631 18.5601H14.4507M14.4507 18.5601H14.4384M14.4507 18.5601H14.4384M14.4384 18.5601H14.426M14.4384 18.5601H14.426M14.426 18.5601H14.4136M14.426 18.5601H14.4136M14.4136 18.5601H14.4013M14.4136 18.5601H14.4013M14.4013 18.5601H14.3889M14.4013 18.5601H14.3889M14.3889 18.5601H14.3766M14.3889 18.5601H14.3766M14.3766 18.5601H14.3642M14.3766 18.5601H14.3642M14.3642 18.5601H14.3519M14.3642 18.5601H14.3519M14.3519 18.5601H14.3395M14.3519 18.5601H14.3395M14.3395 18.5601H14.3272M14.3395 18.5601H14.3272M14.3272 18.5601H14.3148M14.3272 18.5601H14.3148M14.3148 18.5601H14.3025M14.3148 18.5601H14.3025M14.3025 18.5601H14.2901M14.3025 18.5601H14.2901M14.2901 18.5601H14.2778M14.2901 18.5601H14.2778M14.2778 18.5601H14.2654M14.2778 18.5601H14.2654M14.2654 18.5601H14.253M14.2654 18.5601H14.253M14.253 18.5601H14.2407M14.253 18.5601H14.2407M14.2407 18.5601H14.2283M14.2407 18.5601H14.2283M14.2283 18.5601H14.216M14.2283 18.5601H14.216M14.216 18.5601H14.2036M14.216 18.5601H14.2036M14.2036 18.5601H14.1913M14.2036 18.5601H14.1913M14.1913 18.5601H14.1789M14.1913 18.5601H14.1789M14.1789 18.5601H14.1666M14.1789 18.5601H14.1666M14.1666 18.5601H14.1542M14.1666 18.5601H14.1542M14.1542 18.5601H14.1419M14.1542 18.5601H14.1419M14.1419 18.5601H14.1295M14.1419 18.5601H14.1295M14.1295 18.5601H14.1171M14.1295 18.5601H14.1171M14.1171 18.5601H14.1048M14.1171 18.5601H14.1048M14.1048 18.5601H14.0924M14.1048 18.5601H14.0924M14.0924 18.5601H14.0801M14.0924 18.5601H14.0801M14.0801 18.5601H14.0677M14.0801 18.5601H14.0677M14.0677 18.5601H14.0554M14.0677 18.5601H14.0554M14.0554 18.5601H14.043M14.0554 18.5601H14.043M14.043 18.5601H14.0307M14.043 18.5601H14.0307M14.0307 18.5601H14.0183M14.0307 18.5601H14.0183M14.0183 18.5601H14.006M14.0183 18.5601H14.006M14.006 18.5601H13.9936M14.006 18.5601H13.9936M13.9936 18.5601H13.9812M13.9936 18.5601H13.9812M13.9812 18.5601H13.9689M13.9812 18.5601H13.9689M13.9689 18.5601H13.9565M13.9689 18.5601H13.9565M13.9565 18.5601H13.9442M13.9565 18.5601H13.9442M13.9442 18.5601H13.9318M13.9442 18.5601H13.9318M13.9318 18.5601H13.9195M13.9318 18.5601H13.9195M13.9195 18.5601H13.9071M13.9195 18.5601H13.9071M13.9071 18.5601H13.8948M13.9071 18.5601H13.8948M13.8948 18.5601H13.8824M13.8948 18.5601H13.8824M13.8824 18.5601H13.87M13.8824 18.5601H13.87M13.87 18.5601H13.8577M13.87 18.5601H13.8577M13.8577 18.5601H13.8453M13.8577 18.5601H13.8453M13.8453 18.5601H13.833M13.8453 18.5601H13.833M13.833 18.5601H13.8206M13.833 18.5601H13.8206M13.8206 18.5601H13.8083M13.8206 18.5601H13.8083M13.8083 18.5601H13.7959M13.8083 18.5601H13.7959M13.7959 18.5601H13.7836M13.7959 18.5601H13.7836M13.7836 18.5601H13.7712M13.7836 18.5601H13.7712M13.7712 18.5601H13.7589M13.7712 18.5601H13.7589M13.7589 18.5601H13.7465M13.7589 18.5601H13.7465M13.7465 18.5601H13.7341M13.7465 18.5601H13.7341M13.7341 18.5601H13.7218M13.7341 18.5601H13.7218M13.7218 18.5601H13.7094M13.7218 18.5601H13.7094M13.7094 18.5601H13.6971M13.7094 18.5601H13.6971M13.6971 18.5601H13.6847M13.6971 18.5601H13.6847M13.6847 18.5601H13.6724M13.6847 18.5601H13.6724M13.6724 18.5601H13.66M13.6724 18.5601H13.66M13.66 18.5601H13.6477M13.66 18.5601H13.6477M13.6477 18.5601H13.6353M13.6477 18.5601H13.6353M13.6353 18.5601H13.6229M13.6353 18.5601H13.6229M13.6229 18.5601H13.6106M13.6229 18.5601H13.6106M13.6106 18.5601H13.5982M13.6106 18.5601H13.5982M13.5982 18.5601H13.5859M13.5982 18.5601H13.5859M13.5859 18.5601H13.5735M13.5859 18.5601H13.5735M13.5735 18.5601H13.5612M13.5735 18.5601H13.5612M13.5612 18.5601H13.5488M13.5612 18.5601H13.5488M13.5488 18.5601H13.5365M13.5488 18.5601H13.5365M13.5365 18.5601H13.5241M13.5365 18.5601H13.5241M13.5241 18.5601H13.5118M13.5241 18.5601H13.5118M13.5118 18.5601H13.4994M13.5118 18.5601H13.4994M13.4994 18.5601H13.487M13.4994 18.5601H13.487M13.487 18.5601H13.4747M13.487 18.5601H13.4747M13.4747 18.5601H13.4623M13.4747 18.5601H13.4623M13.4623 18.5601H13.45M13.4623 18.5601H13.45M13.45 18.5601H13.4376M13.45 18.5601H13.4376M13.4376 18.5601H13.4253M13.4376 18.5601H13.4253M13.4253 18.5601H13.4129M13.4253 18.5601H13.4129M13.4129 18.5601H13.4006M13.4129 18.5601H13.4006M13.4006 18.5601H13.3882M13.4006 18.5601H13.3882M13.3882 18.5601H13.3758M13.3882 18.5601H13.3758M13.3758 18.5601H13.3635M13.3758 18.5601H13.3635M13.3635 18.5601H13.3511M13.3635 18.5601H13.3511M13.3511 18.5601H13.3388M13.3511 18.5601H13.3388M13.3388 18.5601H13.3264M13.3388 18.5601H13.3264M13.3264 18.5601H13.3141M13.3264 18.5601H13.3141M13.3141 18.5601H13.3017M13.3141 18.5601H13.3017M13.3017 18.5601H13.2894M13.3017 18.5601H13.2894M13.2894 18.5601H13.277M13.2894 18.5601H13.277M13.277 18.5601H13.2646M13.277 18.5601H13.2646M13.2646 18.5601H13.2523M13.2646 18.5601H13.2523M13.2523 18.5601H13.2399M13.2523 18.5601H13.2399M13.2399 18.5601H13.2276M13.2399 18.5601H13.2276M13.2276 18.5601H13.2152M13.2276 18.5601H13.2152M13.2152 18.5601H13.2029M13.2152 18.5601H13.2029M13.2029 18.5601H13.1905M13.2029 18.5601H13.1905M13.1905 18.5601H13.1782M13.1905 18.5601H13.1782M13.1782 18.5601H13.1658M13.1782 18.5601H13.1658M13.1658 18.5601H13.1534M13.1658 18.5601H13.1534M13.1534 18.5601H13.1411M13.1534 18.5601H13.1411M13.1411 18.5601H13.1287M13.1411 18.5601H13.1287M13.1287 18.5601H13.1164M13.1287 18.5601H13.1164M13.1164 18.5601H13.104M13.1164 18.5601H13.104M13.104 18.5601H13.0917M13.104 18.5601H13.0917M13.0917 18.5601H13.0793M13.0917 18.5601H13.0793M13.0793 18.5601H13.067M13.0793 18.5601H13.067M13.067 18.5601H13.0546M13.067 18.5601H13.0546M13.0546 18.5601H13.0422M13.0546 18.5601H13.0422M13.0422 18.5601H13.0299M13.0422 18.5601H13.0299M13.0299 18.5601H13.0175M13.0299 18.5601H13.0175M13.0175 18.5601H13.0052M13.0175 18.5601H13.0052M13.0052 18.5601H12.9928M13.0052 18.5601H12.9928M12.9928 18.5601H12.9805M12.9928 18.5601H12.9805M12.9805 18.5601H12.9681M12.9805 18.5601H12.9681M12.9681 18.5601H12.9558M12.9681 18.5601H12.9558M12.9558 18.5601H12.9434M12.9558 18.5601H12.9434M12.9434 18.5601H12.931M12.9434 18.5601H12.931M12.931 18.5601H12.9187M12.931 18.5601H12.9187M12.9187 18.5601H12.9063M12.9187 18.5601H12.9063M12.9063 18.5601H12.894M12.9063 18.5601H12.894M12.894 18.5601H12.8816M12.894 18.5601H12.8816M12.8816 18.5601H12.8693M12.8816 18.5601H12.8693M12.8693 18.5601H12.8569M12.8693 18.5601H12.8569M12.8569 18.5601H12.8446M12.8569 18.5601H12.8446M12.8446 18.5601H12.8322M12.8446 18.5601H12.8322M12.8322 18.5601H12.8198M12.8322 18.5601H12.8198M12.8198 18.5601H12.8075M12.8198 18.5601H12.8075M12.8075 18.5601H12.7951M12.8075 18.5601H12.7951M12.7951 18.5601H12.7828M12.7951 18.5601H12.7828M12.7828 18.5601H12.7704M12.7828 18.5601H12.7704M12.7704 18.5601H12.7581M12.7704 18.5601H12.7581M12.7581 18.5601H12.7457M12.7581 18.5601H12.7457M12.7457 18.5601H12.7333M12.7457 18.5601H12.7333M12.7333 18.5601H12.721M12.7333 18.5601H12.721M12.721 18.5601H12.7086M12.721 18.5601H12.7086M12.7086 18.5601H12.6963M12.7086 18.5601H12.6963M12.6963 18.5601H12.6839M12.6963 18.5601H12.6839M12.6839 18.5601H12.6716M12.6839 18.5601H12.6716M12.6716 18.5601H12.6592M12.6716 18.5601H12.6592M12.6592 18.5601H12.6469M12.6592 18.5601H12.6469M12.6469 18.5601H12.6345M12.6469 18.5601H12.6345M12.6345 18.5601H12.6221M12.6345 18.5601H12.6221M12.6221 18.5601H12.6098M12.6221 18.5601H12.6098M12.6098 18.5601H12.5974M12.6098 18.5601H12.5974M12.5974 18.5601H12.5851M12.5974 18.5601H12.5851M12.5851 18.5601H12.5727M12.5851 18.5601H12.5727M12.5727 18.5601H12.5604M12.5727 18.5601H12.5604M12.5604 18.5601H12.548M12.5604 18.5601H12.548M12.548 18.5601H12.5356M12.548 18.5601H12.5356M12.5356 18.5601H12.5233M12.5356 18.5601H12.5233M12.5233 18.5601H12.5109M12.5233 18.5601H12.5109M12.5109 18.5601H12.4986M12.5109 18.5601H12.4986M12.4986 18.5601H12.4862M12.4986 18.5601H12.4862M12.4862 18.5601H12.4739M12.4862 18.5601H12.4739M12.4739 18.5601H12.4615M12.4739 18.5601H12.4615M12.4615 18.5601H12.4492M12.4615 18.5601H12.4492M12.4492 18.5601H12.4368M12.4492 18.5601H12.4368M12.4368 18.5601H12.4244M12.4368 18.5601H12.4244M12.4244 18.5601H12.4121M12.4244 18.5601H12.4121M12.4121 18.5601H12.3997M12.4121 18.5601H12.3997M12.3997 18.5601H12.3874M12.3997 18.5601H12.3874M12.3874 18.5601H12.375M12.3874 18.5601H12.375M12.375 18.5601H12.3627M12.375 18.5601H12.3627M12.3627 18.5601H12.3503M12.3627 18.5601H12.3503M12.3503 18.5601H12.3379M12.3503 18.5601H12.3379M12.3379 18.5601H12.3256M12.3379 18.5601H12.3256M12.3256 18.5601H12.3132M12.3256 18.5601H12.3132M12.3132 18.5601H12.3009M12.3132 18.5601H12.3009M12.3009 18.5601H12.2885M12.3009 18.5601H12.2885M12.2885 18.5601H12.2762M12.2885 18.5601H12.2762M12.2762 18.5601H12.2638M12.2762 18.5601H12.2638M12.2638 18.5601H12.2515M12.2638 18.5601H12.2515M12.2515 18.5601H12.2391M12.2515 18.5601H12.2391M12.2391 18.5601H12.2267M12.2391 18.5601H12.2267M12.2267 18.5601H12.2144M12.2267 18.5601H12.2144M12.2144 18.5601H12.202M12.2144 18.5601H12.202M12.202 18.5601H12.1897M12.202 18.5601H12.1897M12.1897 18.5601H12.1773M12.1897 18.5601H12.1773M12.1773 18.5601H12.165M12.1773 18.5601H12.165M12.165 18.5601H12.1526M12.165 18.5601H12.1526M12.1526 18.5601H12.1402M12.1526 18.5601H12.1402M12.1402 18.5601H12.1279M12.1402 18.5601H12.1279M12.1279 18.5601H12.1155M12.1279 18.5601H12.1155M12.1155 18.5601H12.1032M12.1155 18.5601H12.1032M12.1032 18.5601H12.0908M12.1032 18.5601H12.0908M12.0908 18.5601H12.0785M12.0908 18.5601H12.0785M12.0785 18.5601H12.0661M12.0785 18.5601H12.0661M12.0661 18.5601H12.0537M12.0661 18.5601H12.0537M12.0537 18.5601H12.0414M12.0537 18.5601H12.0414M12.0414 18.5601H12.029M12.0414 18.5601H12.029M12.029 18.5601H12.0167M12.029 18.5601H12.0167M12.0167 18.5601H12.0043M12.0167 18.5601H12.0043M12.0043 18.5601H11.992M12.0043 18.5601H11.992M11.992 18.5601H11.9796M11.992 18.5601H11.9796M11.9796 18.5601H11.9672M11.9796 18.5601H11.9672M11.9672 18.5601H11.9549M11.9672 18.5601H11.9549M11.9549 18.5601H11.9425M11.9549 18.5601H11.9425M11.9425 18.5601H11.9302M11.9425 18.5601H11.9302M11.9302 18.5601H11.9178M11.9302 18.5601H11.9178M11.9178 18.5601H11.9055M11.9178 18.5601H11.9055M11.9055 18.5601H11.8931M11.9055 18.5601H11.8931M11.8931 18.5601H11.8807M11.8931 18.5601H11.8807M11.8807 18.5601H11.8684M11.8807 18.5601H11.8684M11.8684 18.5601H11.856M11.8684 18.5601H11.856M11.856 18.5601H11.8437M11.856 18.5601H11.8437M11.8437 18.5601H11.8313M11.8437 18.5601H11.8313M11.8313 18.5601H11.819M11.8313 18.5601H11.819M11.819 18.5601H11.8066M11.819 18.5601H11.8066M11.8066 18.5601H11.7943M11.8066 18.5601H11.7943M11.7943 18.5601H11.7819M11.7943 18.5601H11.7819M11.7819 18.5601H11.7695M11.7819 18.5601H11.7695M11.7695 18.5601H11.7572M11.7695 18.5601H11.7572M11.7572 18.5601H11.7448M11.7572 18.5601H11.7448M11.7448 18.5601H11.7325M11.7448 18.5601H11.7325M11.7325 18.5601H11.7201M11.7325 18.5601H11.7201M11.7201 18.5601H11.7078M11.7201 18.5601H11.7078M11.7078 18.5601H11.6954M11.7078 18.5601H11.6954M11.6954 18.5601H11.683M11.6954 18.5601H11.683M11.683 18.5601H11.6707M11.683 18.5601H11.6707M11.6707 18.5601H11.6583M11.6707 18.5601H11.6583M11.6583 18.5601H11.646M11.6583 18.5601H11.646M11.646 18.5601H11.6336M11.646 18.5601H11.6336M11.6336 18.5601H11.6213M11.6336 18.5601H11.6213M11.6213 18.5601H11.6089M11.6213 18.5601H11.6089M11.6089 18.5601H11.5965M11.6089 18.5601H11.5965M11.5965 18.5601H11.5842M11.5965 18.5601H11.5842M11.5842 18.5601H11.5718M11.5842 18.5601H11.5718M11.5718 18.5601H11.5595M11.5718 18.5601H11.5595M11.5595 18.5601H11.5471M11.5595 18.5601H11.5471M11.5471 18.5601H11.5347M11.5471 18.5601H11.5347M11.5347 18.5601H11.5224M11.5347 18.5601H11.5224M11.5224 18.5601H11.51M11.5224 18.5601H11.51M11.51 18.5601H11.4977M11.51 18.5601H11.4977M11.4977 18.5601H11.4853M11.4977 18.5601H11.4853M11.4853 18.5601H11.473M11.4853 18.5601H11.473M11.473 18.5601H11.4606M11.473 18.5601H11.4606M11.4606 18.5601H11.4482M11.4606 18.5601H11.4482M11.4482 18.5601H11.4359M11.4482 18.5601H11.4359M11.4359 18.5601H11.4235M11.4359 18.5601H11.4235M11.4235 18.5601H11.4112M11.4235 18.5601H11.4112M11.4112 18.5601H11.3988M11.4112 18.5601H11.3988M11.3988 18.5601H11.3865M11.3988 18.5601H11.3865M11.3865 18.5601H11.3741M11.3865 18.5601H11.3741M11.3741 18.5601H11.3617M11.3741 18.5601H11.3617M11.3617 18.5601H11.3494M11.3617 18.5601H11.3494M11.3494 18.5601H11.337M11.3494 18.5601H11.337M11.337 18.5601H11.3247M11.337 18.5601H11.3247M11.3247 18.5601H11.3123M11.3247 18.5601H11.3123M11.3123 18.5601H11.3M11.3123 18.5601H11.3M11.3 18.5601H11.2876M11.3 18.5601H11.2876M11.2876 18.5601H11.2752M11.2876 18.5601H11.2752M11.2752 18.5601H11.2629M11.2752 18.5601H11.2629M11.2629 18.5601H11.2505M11.2629 18.5601H11.2505M11.2505 18.5601H11.2382M11.2505 18.5601H11.2382M11.2382 18.5601H11.2258M11.2382 18.5601H11.2258M11.2258 18.5601H11.2135M11.2258 18.5601H11.2135M11.2135 18.5601H11.2011M11.2135 18.5601H11.2011M11.2011 18.5601H11.1887M11.2011 18.5601H11.1887M11.1887 18.5601H11.1764M11.1887 18.5601H11.1764M11.1764 18.5601H11.164M11.1764 18.5601H11.164M11.164 18.5601H11.1517M11.164 18.5601H11.1517M11.1517 18.5601H11.1393M11.1517 18.5601H11.1393M11.1393 18.5601H11.127M11.1393 18.5601H11.127M11.127 18.5601H11.1146M11.127 18.5601H11.1146M11.1146 18.5601H11.1022M11.1146 18.5601H11.1022M11.1022 18.5601H11.0899M11.1022 18.5601H11.0899M11.0899 18.5601H11.0775M11.0899 18.5601H11.0775M11.0775 18.5601H11.0652M11.0775 18.5601H11.0652M11.0652 18.5601H11.0528M11.0652 18.5601H11.0528M11.0528 18.5601H11.0404M11.0528 18.5601H11.0404M11.0404 18.5601H11.0281M11.0404 18.5601H11.0281M11.0281 18.5601H11.0157M11.0281 18.5601H11.0157M11.0157 18.5601H11.0034M11.0157 18.5601H11.0034M11.0034 18.5601H10.991M11.0034 18.5601H10.991M10.991 18.5601H10.9787M10.991 18.5601H10.9787M10.9787 18.5601H10.9663M10.9787 18.5601H10.9663M10.9663 18.5601H10.9539M10.9663 18.5601H10.9539M10.9539 18.5601H10.9416M10.9539 18.5601H10.9416M10.9416 18.5601H10.9292M10.9416 18.5601H10.9292M10.9292 18.5601H10.9169M10.9292 18.5601H10.9169M10.9169 18.5601H10.9045M10.9169 18.5601H10.9045M10.9045 18.5601H10.8922M10.9045 18.5601H10.8922M10.8922 18.5601H10.8798M10.8922 18.5601H10.8798M10.8798 18.5601H10.8674M10.8798 18.5601H10.8674M10.8674 18.5601H10.8551M10.8674 18.5601H10.8551M10.8551 18.5601H10.8427M10.8551 18.5601H10.8427M10.8427 18.5601H10.8304M10.8427 18.5601H10.8304M10.8304 18.5601H10.818M10.8304 18.5601H10.818M10.818 18.5601H10.8056M10.818 18.5601H10.8056M10.8056 18.5601H10.7933M10.8056 18.5601H10.7933M10.7933 18.5601H10.7809M10.7933 18.5601H10.7809M10.7809 18.5601H10.7686M10.7809 18.5601H10.7686M10.7686 18.5601H10.7562M10.7686 18.5601H10.7562M10.7562 18.5601H10.7439M10.7562 18.5601H10.7439M10.7439 18.5601H10.7315M10.7439 18.5601H10.7315M10.7315 18.5601H10.7191M10.7315 18.5601H10.7191M10.7191 18.5601H10.7068M10.7191 18.5601H10.7068M10.7068 18.5601H10.6944M10.7068 18.5601H10.6944M10.6944 18.5601H10.6821M10.6944 18.5601H10.6821M10.6821 18.5601H10.6697M10.6821 18.5601H10.6697M10.6697 18.5601H10.6573M10.6697 18.5601H10.6573M10.6573 18.5601H10.645M10.6573 18.5601H10.645M10.645 18.5601H10.6326M10.645 18.5601H10.6326M10.6326 18.5601H10.6203M10.6326 18.5601H10.6203M10.6203 18.5601H10.6079M10.6203 18.5601H10.6079M10.6079 18.5601H10.5956M10.6079 18.5601H10.5956M10.5956 18.5601H10.5832M10.5956 18.5601H10.5832M10.5832 18.5601H10.5708M10.5832 18.5601H10.5708M10.5708 18.5601H10.5585M10.5708 18.5601H10.5585M10.5585 18.5601H10.5461M10.5585 18.5601H10.5461M10.5461 18.5601H10.5338M10.5461 18.5601H10.5338M10.5338 18.5601H10.5214M10.5338 18.5601H10.5214M10.5214 18.5601H10.509M10.5214 18.5601H10.509M10.509 18.5601H10.4967M10.509 18.5601H10.4967M10.4967 18.5601H10.4843M10.4967 18.5601H10.4843M10.4843 18.5601H10.472M10.4843 18.5601H10.472M10.472 18.5601H10.4596M10.472 18.5601H10.4596M10.4596 18.5601H10.4473M10.4596 18.5601H10.4473M10.4473 18.5601H10.4349M10.4473 18.5601H10.4349M10.4349 18.5601H10.4225M10.4349 18.5601H10.4225M10.4225 18.5601H10.4102M10.4225 18.5601H10.4102M10.4102 18.5601H10.3978M10.4102 18.5601H10.3978M10.3978 18.5601H10.3855M10.3978 18.5601H10.3855M10.3855 18.5601H10.3731M10.3855 18.5601H10.3731M10.3731 18.5601H10.3607M10.3731 18.5601H10.3607M10.3607 18.5601H10.3484M10.3607 18.5601H10.3484M10.3484 18.5601H10.336M10.3484 18.5601H10.336M10.336 18.5601H10.3237M10.336 18.5601H10.3237M10.3237 18.5601H10.3113M10.3237 18.5601H10.3113M10.3113 18.5601H10.299M10.3113 18.5601H10.299M10.299 18.5601H10.2866M10.299 18.5601H10.2866M10.2866 18.5601H10.2742M10.2866 18.5601H10.2742M10.2742 18.5601H10.2619M10.2742 18.5601H10.2619M10.2619 18.5601H10.2495M10.2619 18.5601H10.2495M10.2495 18.5601H10.2372M10.2495 18.5601H10.2372M10.2372 18.5601H10.2248M10.2372 18.5601H10.2248M10.2248 18.5601H10.2124M10.2248 18.5601H10.2124M10.2124 18.5601H10.2001M10.2124 18.5601H10.2001M10.2001 18.5601H10.1877M10.2001 18.5601H10.1877M10.1877 18.5601H10.1754M10.1877 18.5601H10.1754M10.1754 18.5601H10.163M10.1754 18.5601H10.163M10.163 18.5601H10.1506M10.163 18.5601H10.1506M10.1506 18.5601H10.1383M10.1506 18.5601H10.1383M10.1383 18.5601H10.1259M10.1383 18.5601H10.1259M10.1259 18.5601H10.1136M10.1259 18.5601H10.1136M10.1136 18.5601H10.1012M10.1136 18.5601H10.1012M10.1012 18.5601H10.0889M10.1012 18.5601H10.0889M10.0889 18.5601H10.0765M10.0889 18.5601H10.0765M10.0765 18.5601H10.0641M10.0765 18.5601H10.0641M10.0641 18.5601H10.0518M10.0641 18.5601H10.0518M10.0518 18.5601H10.0394M10.0518 18.5601H10.0394M10.0394 18.5601H10.0271M10.0394 18.5601H10.0271M10.0271 18.5601H10.0147M10.0271 18.5601H10.0147M10.0147 18.5601H10.0023M10.0147 18.5601H10.0023M10.0023 18.5601H9.98998M10.0023 18.5601H9.98998M9.98998 18.5601H9.97762M9.98998 18.5601H9.97762M9.97762 18.5601H9.96526M9.97762 18.5601H9.96526M9.96526 18.5601H9.9529M9.96526 18.5601H9.9529M9.9529 18.5601H9.94055M9.9529 18.5601H9.94055M9.94055 18.5601H9.92819M9.94055 18.5601H9.92819M9.92819 18.5601H9.91583M9.92819 18.5601H9.91583M9.91583 18.5601H9.90347M9.91583 18.5601H9.90347M9.90347 18.5601H9.89111M9.90347 18.5601H9.89111M9.89111 18.5601H9.87875M9.89111 18.5601H9.87875M9.87875 18.5601H9.86639M9.87875 18.5601H9.86639M9.86639 18.5601H9.85403M9.86639 18.5601H9.85403M9.85403 18.5601H9.84167M9.85403 18.5601H9.84167M9.84167 18.5601H9.82931M9.84167 18.5601H9.82931M9.82931 18.5601H9.81695M9.82931 18.5601H9.81695M9.81695 18.5601H9.8046M9.81695 18.5601H9.8046M9.8046 18.5601H9.79224M9.8046 18.5601H9.79224M9.79224 18.5601H9.77988M9.79224 18.5601H9.77988M9.77988 18.5601H9.76752M9.77988 18.5601H9.76752M9.76752 18.5601H9.75516M9.76752 18.5601H9.75516M9.75516 18.5601H9.7428M9.75516 18.5601H9.7428M9.7428 18.5601H9.73044M9.7428 18.5601H9.73044M9.73044 18.5601H9.71808M9.73044 18.5601H9.71808M9.71808 18.5601H9.70572M9.71808 18.5601H9.70572M9.70572 18.5601H9.69336M9.70572 18.5601H9.69336M9.69336 18.5601H9.681M9.69336 18.5601H9.681M9.681 18.5601H9.66864M9.681 18.5601H9.66864M9.66864 18.5601H9.65628M9.66864 18.5601H9.65628M9.65628 18.5601H9.64393M9.65628 18.5601H9.64393M9.64393 18.5601H9.63157M9.64393 18.5601H9.63157M9.63157 18.5601H9.61921M9.63157 18.5601H9.61921M9.61921 18.5601H9.60685M9.61921 18.5601H9.60685M9.60685 18.5601H9.59449M9.60685 18.5601H9.59449M9.59449 18.5601H9.58213M9.59449 18.5601H9.58213M9.58213 18.5601H9.56977M9.58213 18.5601H9.56977M9.56977 18.5601H9.55741M9.56977 18.5601H9.55741M9.55741 18.5601H9.54505M9.55741 18.5601H9.54505M9.54505 18.5601H9.53269M9.54505 18.5601H9.53269M9.53269 18.5601H9.52033M9.53269 18.5601H9.52033M9.52033 18.5601H9.50797M9.52033 18.5601H9.50797M9.50797 18.5601H9.49561M9.50797 18.5601H9.49561M9.49561 18.5601H9.48325M9.49561 18.5601H9.48325M9.48325 18.5601H9.47089M9.48325 18.5601H9.47089M9.47089 18.5601H9.45853M9.47089 18.5601H9.45853M9.45853 18.5601H9.44617M9.45853 18.5601H9.44617M9.44617 18.5601H9.43382M9.44617 18.5601H9.43382M9.43382 18.5601H9.42146M9.43382 18.5601H9.42146M9.42146 18.5601H9.4091M9.42146 18.5601H9.4091M9.4091 18.5601H9.39674M9.4091 18.5601H9.39674M9.39674 18.5601H9.38438M9.39674 18.5601H9.38438M9.38438 18.5601C8.87703 18.5601 8.36992 18.5596 7.86285 18.5591C6.29097 18.5576 4.71958 18.556 3.14341 18.5693M9.38438 18.5601L3.14341 18.5693M3.14341 18.5693C2.96315 18.5705 2.89951 18.5402 2.87444 18.5107M3.14341 18.5693L2.87444 18.5107M2.87444 18.5107C2.84863 18.4805 2.8331 18.4164 2.85397 18.2582L2.87444 18.5107ZM2.57885 19.5284L2.57884 19.5285H2.58432H9.38093V19.4285L9.381 19.5285C11.7039 19.5269 14.0266 19.5258 16.3489 19.5252C16.6005 19.5252 16.7876 19.58 16.9156 19.6732C17.0413 19.7646 17.12 19.9001 17.1437 20.0847L17.1437 20.0853C17.1719 20.2944 17.1203 20.4689 17.0151 20.5949C16.9095 20.7213 16.7422 20.808 16.5226 20.8257L16.5225 20.8258C16.4174 20.8343 16.313 20.8335 16.2034 20.8326C16.1695 20.8324 16.1351 20.8321 16.1 20.8321H2.67991C2.64979 20.8321 2.62008 20.8323 2.59073 20.8324C2.47603 20.8331 2.36664 20.8337 2.25808 20.8241L2.25809 20.824L2.25341 20.8238C2.08315 20.8168 1.92318 20.7456 1.80758 20.6263C1.69208 20.5071 1.63 20.3496 1.63363 20.1876L1.63369 20.1876L1.63364 20.184C1.63148 20.0211 1.69291 19.863 1.80655 19.7412C1.91994 19.6197 2.07705 19.5433 2.24689 19.5283C2.35745 19.5223 2.46828 19.5223 2.57885 19.5284ZM16.1996 20.9326C16.3102 20.9335 16.4207 20.9344 16.5306 20.9254L2.24931 20.9238C2.363 20.9338 2.47834 20.9331 2.59357 20.9324C2.62236 20.9323 2.65116 20.9321 2.67991 20.9321H16.1C16.1332 20.9321 16.1664 20.9324 16.1996 20.9326ZM4.78213 23.1332L4.78125 23.2332L4.78212 23.1332C3.81078 23.1248 3.10106 22.6052 2.92135 21.8222H15.5781C15.7043 21.8222 15.7926 21.8248 15.8531 21.834C15.888 21.8393 15.9045 21.8456 15.9115 21.849C15.9111 21.8566 15.9086 21.8737 15.897 21.9054C15.8762 21.9623 15.836 22.0403 15.7749 22.1503C15.3953 22.8329 14.7868 23.1266 13.9892 23.1266H13.989C12.1564 23.131 10.3216 23.1332 8.48442 23.1332L8.48408 23.1332C8.32827 23.1338 8.17255 23.1343 8.01692 23.1349C6.93614 23.1388 5.85946 23.1427 4.78213 23.1332Z" fill="#3173F1" stroke="#3173F1" stroke-width="0.2"/>
<path d="M5.34826 15.2186L5.34826 15.2186L5.34825 15.219C5.34604 15.3821 5.36997 15.5204 5.47091 15.6095C5.56745 15.6946 5.70923 15.7104 5.86679 15.7104C6.02544 15.7104 6.17633 15.691 6.2734 15.6017C6.37537 15.5078 6.38851 15.3686 6.35742 15.21C6.39195 15.0415 6.3717 14.9031 6.25662 14.8168C6.20352 14.777 6.13909 14.7561 6.07467 14.7438C6.00977 14.7313 5.93658 14.7261 5.86062 14.7229L5.86062 14.7229L5.85926 14.7228C5.69192 14.7181 5.55203 14.7403 5.45986 14.8359C5.36988 14.9294 5.35085 15.0679 5.34826 15.2186Z" fill="#3173F1" stroke="#3173F1" stroke-width="0.2"/>
<path d="M10.5775 14.8528C10.6498 15.1645 10.5241 15.2545 10.1968 15.2579C9.86958 15.2612 9.79035 15.1587 9.79552 14.8561L10.6802 14.854M10.5775 14.8528L10.6743 14.8778C10.6764 14.8698 10.6783 14.8618 10.6802 14.854M10.5775 14.8528C10.6679 14.5019 10.4604 14.4844 10.1727 14.4736L10.5775 14.8528ZM10.6802 14.854C10.7123 15.008 10.7048 15.1468 10.6069 15.2425C10.5582 15.2901 10.4954 15.3178 10.4282 15.3342C10.361 15.3505 10.2833 15.357 10.1979 15.3579C10.0311 15.3596 9.89041 15.3365 9.79913 15.2407C9.70885 15.146 9.69294 15.0067 9.69554 14.8544L9.69554 14.8543C9.69808 14.7178 9.71144 14.5839 9.79206 14.4911C9.87768 14.3926 10.0121 14.368 10.1762 14.3737L10.1765 14.3737L10.1765 14.3737C10.2478 14.3763 10.32 14.3796 10.3847 14.3891C10.4487 14.3986 10.5153 14.4155 10.5713 14.4518C10.6312 14.4906 10.6735 14.5483 10.6905 14.6256C10.7052 14.6922 10.7 14.7685 10.6802 14.854Z" fill="#3173F1" stroke="#3173F1" stroke-width="0.2"/>
<path d="M4.95742 16.756L4.95742 16.7558C4.95159 16.5888 4.97721 16.4509 5.08108 16.3634C5.17814 16.2816 5.3192 16.2672 5.46956 16.2656M4.95742 16.756L5.66478 17.2399C5.72858 17.2282 5.79309 17.2082 5.84639 17.1691C5.90299 17.1276 5.94049 17.0692 5.95538 16.9949C5.96836 16.9302 5.96359 16.8567 5.94588 16.775C5.97354 16.6285 5.96864 16.4904 5.87987 16.3914C5.78932 16.2905 5.64011 16.2635 5.46956 16.2656M4.95742 16.756C4.96003 16.8273 4.96445 16.8957 4.97636 16.9565C4.98834 17.0177 5.00913 17.0781 5.04925 17.1293C5.1341 17.2377 5.27339 17.2676 5.45343 17.2598L4.95742 16.756ZM5.46956 16.2656C5.46953 16.2656 5.46951 16.2656 5.46948 16.2656L5.47073 16.3656L5.46964 16.2656C5.46961 16.2656 5.46959 16.2656 5.46956 16.2656Z" fill="#3173F1" stroke="#3173F1" stroke-width="0.2"/>
<path d="M12.0297 16.753L12.0297 16.753C12.0211 16.5779 12.0504 16.4387 12.1608 16.3541C12.2128 16.3143 12.2744 16.2937 12.3376 16.2822C12.4005 16.2707 12.4715 16.2673 12.547 16.2664L12.5471 16.2664C12.7145 16.2647 12.8663 16.2891 12.9578 16.3852C13.051 16.4832 13.0515 16.6201 13.013 16.7633C13.0314 16.8488 13.0364 16.9245 13.0237 16.9906C13.009 17.0673 12.971 17.1272 12.9132 17.1694C12.8589 17.2091 12.7934 17.2285 12.7299 17.2399L12.0297 16.753ZM12.0297 16.753L12.0297 16.7534C12.0334 16.8215 12.0375 16.8887 12.0481 16.9485C12.0587 17.0085 12.0771 17.0696 12.1147 17.1222C12.1963 17.2362 12.3355 17.2694 12.5214 17.2597L12.0297 16.753Z" fill="#3173F1" stroke="#3173F1" stroke-width="0.2"/>
<path d="M8.99383 16.6409L8.99371 16.6409C8.81455 16.631 8.67207 16.6562 8.5851 16.7638C8.54363 16.8151 8.52251 16.8765 8.51083 16.9391C8.49922 17.0014 8.49573 17.0719 8.49464 17.1468C8.49245 17.2968 8.51137 17.43 8.60476 17.5175C8.6958 17.6027 8.83141 17.6187 8.983 17.6175C9.0601 17.6168 9.13464 17.6136 9.20077 17.6021C9.2664 17.5906 9.33259 17.5696 9.38643 17.5271C9.50033 17.437 9.51455 17.2922 9.47512 17.1177C9.49852 17.039 9.5081 16.9672 9.49803 16.903C9.48596 16.8261 9.44673 16.7674 9.38827 16.7272C9.33428 16.69 9.26847 16.6718 9.20488 16.661C9.14033 16.65 9.06742 16.645 8.99383 16.6409Z" fill="#3173F1" stroke="#3173F1" stroke-width="0.2"/>
</g>
<defs>
<clipPath id="clip0_1_3080">
<rect width="24" height="24" fill="white" transform="translate(0.75)"/>
</clipPath>
</defs>
</svg>
