<svg width="25" height="24" viewBox="0 0 25 24" fill="none" xmlns="http://www.w3.org/2000/svg">
<g clip-path="url(#clip0_1_3101)">
<path d="M21.1559 18.7129C21.1518 17.8579 20.8693 17.1146 20.2393 16.5071C20.1898 16.4516 20.1529 16.3861 20.1309 16.3151C20.1089 16.2441 20.1024 16.1692 20.1118 16.0955C20.2193 15.588 20.121 15.3397 19.641 15.1463C18.9993 14.8872 18.3519 14.6464 17.7052 14.3964C16.8252 14.063 16.8244 14.063 16.2503 14.753C16.2221 14.7512 16.1942 14.7467 16.1669 14.7397C15.8697 14.6286 15.572 14.5158 15.2736 14.4014C14.8728 14.2472 14.7328 13.5472 15.0636 13.2622C15.6885 12.7444 16.1175 12.0284 16.2794 11.2331C16.3236 11.0165 16.4311 10.9331 16.6461 10.869C17.8252 10.5182 18.2219 9.29237 17.5061 8.27824C17.4394 8.18408 17.3394 8.04075 17.3686 7.96492C17.5786 7.4266 17.4011 6.96495 17.1402 6.50664C17.0077 6.27164 17.0569 6.06998 17.3386 5.93749C17.59 5.81863 17.8273 5.67188 18.046 5.5C18.546 5.11335 18.9293 4.6542 18.9193 3.97339C18.9068 3.15175 18.4894 2.58594 17.9469 2.10512L17.9535 2.09762C17.5536 1.61764 16.5169 1.06266 16.0894 0.847666C16.0299 0.808702 15.9665 0.776028 15.9003 0.750169C15.8486 0.73017 15.7994 0.703504 15.7494 0.680172C13.2604 -0.443956 10.8929 -0.126467 8.62136 1.28598C7.93305 1.71347 7.29974 2.21095 6.87142 2.92093C6.35727 3.78006 6.48644 4.65753 7.23724 5.31918C7.4915 5.53383 7.76517 5.72437 8.05471 5.88832C8.4872 6.14415 8.51553 6.20498 8.26554 6.66413C8.05305 7.05578 7.96055 7.4566 8.09888 7.90075C8.11108 7.96167 8.1111 8.0244 8.09894 8.08533C8.08679 8.14625 8.06269 8.20417 8.02805 8.25574C7.26891 9.3157 7.6564 10.4998 8.89219 10.9006C8.96047 10.9272 9.02232 10.968 9.07361 11.0203C9.12491 11.0726 9.16447 11.1352 9.18968 11.204C9.39217 12.0248 9.78299 12.7206 10.4396 13.2639C10.6555 13.4431 10.6571 14.2105 10.4396 14.3047C10.0388 14.4805 9.62383 14.6239 9.22384 14.7763C8.80719 14.1155 8.64053 14.0605 7.93305 14.3322C7.22558 14.6039 6.5106 14.8772 5.80479 15.1613C5.38814 15.328 5.27481 15.6205 5.36647 16.0638C5.38056 16.1419 5.37805 16.2222 5.35909 16.2992C5.34014 16.3763 5.30518 16.4486 5.25648 16.5113C4.62983 17.1221 4.34651 17.8629 4.33984 18.7187C4.33984 20.1498 4.33984 21.5803 4.33984 23.0102C4.34484 23.6919 4.65483 23.9994 5.33981 23.9994C10.2841 23.9994 15.2284 23.9994 20.1726 23.9994C20.8493 23.9994 21.1584 23.6894 21.1601 23.0052C21.1609 21.5736 21.1634 20.1437 21.1559 18.7129ZM17.0369 14.888L19.4618 15.8255C19.3502 16.0988 19.2685 16.2996 19.1693 16.5438L16.7527 15.6172L17.0369 14.888ZM15.8269 15.3705L14.377 16.7038L13.627 15.9005C13.9537 15.6022 14.2595 15.3105 14.5828 15.0388C14.6264 15.0131 14.6749 14.997 14.7252 14.9915C14.7755 14.9861 14.8264 14.9914 14.8745 15.0072C15.1778 15.1047 15.4686 15.2297 15.8269 15.3705ZM13.5204 16.8704C13.3329 16.9729 13.1579 17.1421 12.9704 17.1579C12.2812 17.2154 12.2796 17.1963 12.0287 16.7946C12.5512 16.0155 12.9687 16.0388 13.5204 16.8721V16.8704ZM11.6204 14.7197C11.3021 14.4889 11.2421 14.2064 11.3604 13.8139C12.2846 14.1472 13.2154 14.1939 14.1378 13.8139C14.2603 14.2105 14.1928 14.4914 13.877 14.7222C13.639 14.9119 13.4125 15.1156 13.1987 15.3322C12.9162 15.5947 12.5812 15.5938 12.2987 15.3322C12.0851 15.1151 11.8586 14.9111 11.6204 14.7213V14.7197ZM16.3503 10.1982C16.3503 9.79152 16.3053 9.4132 16.3686 9.05488C16.4003 8.87322 16.6278 8.72656 16.7677 8.56323C17.4227 9.20321 17.2302 9.94818 16.3503 10.1998V10.1982ZM7.96805 2.68677C9.60216 1.18682 11.5188 0.431847 13.7637 0.8235C14.3953 0.93433 15.0036 1.19265 15.6161 1.40265C15.7209 1.44624 15.8306 1.47674 15.9428 1.49348C16.3553 1.71347 16.8794 2.12262 17.2027 2.38845C17.2569 2.43928 17.3169 2.48594 17.3769 2.53427L17.5061 2.64177C18.571 3.6709 18.4602 4.51671 17.1677 5.23251C17.1336 5.24234 17.0982 5.24711 17.0627 5.24668C16.8327 4.87086 16.5036 4.88169 16.0978 4.97919C13.8917 5.51614 11.5888 5.51385 9.38383 4.97252C8.98635 4.87669 8.67719 4.88919 8.43387 5.26668C7.07475 4.58337 6.89642 3.67173 7.96805 2.68677ZM15.8769 6.49997C13.7462 7.10161 11.6179 7.05245 9.48633 6.4808C9.01051 6.35497 9.08968 6.04249 9.12718 5.66667C11.5024 6.22332 13.9742 6.22332 16.3494 5.66667C16.4619 6.32248 16.4653 6.33331 15.8769 6.49997ZM8.36887 9.56736C8.24304 9.19738 8.41054 8.90072 8.66469 8.60656C9.538 8.94905 8.97968 9.65069 9.18634 10.1898C8.73469 10.1398 8.48803 9.91652 8.36887 9.56903V9.56736ZM9.07218 7.99158C8.68219 7.73409 8.65553 7.47077 8.89969 7.03662C11.4571 7.84242 14.0145 7.84659 16.6078 7.03662C16.8577 7.50993 16.8219 7.83409 16.3511 8.04242C15.6997 8.34034 15.0168 8.56396 14.3153 8.70906C12.8508 8.98121 11.3413 8.87859 9.92715 8.41074C9.6243 8.31084 9.33662 8.16981 9.07218 7.99158ZM9.83965 10.6465C9.81132 10.1648 9.83965 9.67986 9.83965 9.13904C11.8104 9.67902 13.7229 9.67319 15.7253 9.12654C15.6628 9.89402 15.6994 10.6173 15.5295 11.2873C15.1586 12.7414 13.8437 13.5197 12.2562 13.3331C10.9913 13.1822 9.92298 12.0064 9.83965 10.6465ZM8.46053 14.8872C8.5572 15.1372 8.64386 15.3597 8.74386 15.6155L6.33977 16.5463L6.03895 15.828L8.46053 14.8872ZM11.7338 17.8729C11.6946 18.5237 11.6354 19.1729 11.5838 19.8228C11.4929 20.967 11.4021 22.1103 11.3096 23.2777H7.75639V22.2353C7.75639 21.2495 7.75639 20.2637 7.75639 19.2787C7.75639 19.0154 7.69973 18.7787 7.39807 18.7737C7.09641 18.7687 7.02975 19.0145 7.02975 19.2737V23.2736H5.08232V21.9653C5.08232 20.8136 5.08232 19.662 5.08232 18.5096C5.08232 17.9187 5.32064 17.4429 5.76479 17.0096C6.09812 17.3346 6.44477 17.2679 6.82892 17.1096C7.66973 16.7621 8.52303 16.448 9.4205 16.1013C9.77132 16.418 10.1496 16.8088 10.5805 17.1288C10.7771 17.2746 11.0738 17.3288 11.3304 17.3396C11.7138 17.3613 11.7504 17.5996 11.7338 17.8729ZM11.1221 16.6988L9.70049 15.398C9.72039 15.3785 9.74185 15.3607 9.76466 15.3447C10.8088 14.8447 10.8421 14.8547 11.8579 15.9121L11.1221 16.6988ZM12.0262 23.2761C12.1621 21.4861 12.2962 19.712 12.4346 17.8937H13.0604C13.0962 18.3429 13.1287 18.7812 13.1654 19.2195C13.1745 19.3304 13.1862 19.4404 13.1987 19.5528C13.2529 20.372 13.4387 22.8161 13.4779 23.2777L12.0262 23.2761ZM20.4118 23.2677H18.4952C18.4869 23.1277 18.4702 22.9819 18.4702 22.8369C18.4702 21.7258 18.4702 20.6148 18.4702 19.5037C18.4702 19.407 18.4702 19.3095 18.4702 19.2129C18.4594 18.9629 18.3594 18.7295 18.091 18.7854C17.9527 18.8137 17.8002 19.047 17.7577 19.2137C17.7019 19.4504 17.7435 19.7095 17.7435 19.9595V23.2744H14.1895C14.1537 22.7644 13.9578 19.8037 13.9087 19.2995C13.8928 19.142 13.9087 18.9454 13.847 18.8045C13.8278 18.5995 13.8078 18.3937 13.792 18.1879C13.7803 18.0354 13.737 17.8762 13.7678 17.7329C13.8178 17.5071 13.8712 17.2996 14.232 17.3571C14.4512 17.3913 14.7453 17.2688 14.9345 17.1246C15.3511 16.8063 15.7236 16.4288 16.0836 16.103C17.0369 16.473 17.9527 16.8529 18.8893 17.1763C19.1393 17.2596 19.4485 17.1621 19.8676 17.1404C20.0304 17.2833 20.1617 17.4584 20.2533 17.6546C20.345 17.8508 20.395 18.0639 20.4001 18.2804C20.4301 19.9303 20.4118 21.5828 20.4118 23.2677Z" fill="#3173F1" stroke="#3173F1" stroke-width="0.2"/>
<path d="M11.4386 4.05748C11.8172 4.36966 12.2158 4.65665 12.6319 4.91661C12.7061 4.96411 12.8736 4.91661 12.9736 4.86162C13.1676 4.76745 13.347 4.64563 13.5061 4.49996C13.801 4.22024 14.0759 3.92006 14.3285 3.60166C14.4819 3.40417 14.4594 3.16501 14.2002 3.04251C13.9269 2.91335 13.8136 3.11168 13.6861 3.31334C13.5392 3.523 13.3809 3.72441 13.2119 3.91665L13.1136 3.84498V3.09501C13.3094 2.87835 13.5586 2.72086 13.5477 2.58419C13.5344 2.41087 13.3086 2.25087 13.1253 2.03005C13.2178 1.89755 13.4936 1.6134 13.1403 1.4309C13.0176 1.37752 12.8853 1.34998 12.7515 1.34998C12.6178 1.34998 12.4854 1.37752 12.3628 1.4309C11.9895 1.61756 12.3178 1.89505 12.3736 2.04171C12.1961 2.25004 11.9695 2.40503 11.952 2.58336C11.9378 2.71836 12.1861 2.88002 12.3878 3.10751V3.84665L12.2503 3.92998C12.0836 3.69332 11.937 3.43667 11.7403 3.22834C11.6403 3.12251 11.407 3.02001 11.3095 3.06751C11.1987 3.12168 11.0962 3.3625 11.1237 3.49416C11.1685 3.70977 11.2784 3.9064 11.4386 4.05748Z" fill="#3173F1"/>
</g>
<defs>
<clipPath id="clip0_1_3101">
<rect width="24" height="24" fill="white" transform="translate(0.75)"/>
</clipPath>
</defs>
</svg>
